SplineFontDB: 3.0
FontName: Oswald-BoldItalic
FullName: Oswald BoldItalic
FamilyName: Oswald
Weight: Bold
Copyright: Copyright (c) 2010-13 by Vernon Adams
Version: 3.0
ItalicAngle: 0
UnderlinePosition: -163
UnderlineWidth: 85
Ascent: 1638
Descent: 410
sfntRevision: 0x00030000
LayerCount: 2
Layer: 0 1 "Back"  1
Layer: 1 1 "Fore"  0
XUID: [1021 913 -2060267417 4627043]
FSType: 0
OS2Version: 4
OS2_WeightWidthSlopeOnly: 0
OS2_UseTypoMetrics: 1
CreationTime: 1372540907
ModificationTime: 1372715242
PfmFamily: 17
TTFWeight: 700
TTFWidth: 5
LineGap: 0
VLineGap: 0
Panose: 2 0 8 3 0 0 0 0 0 0
OS2TypoAscent: 2233
OS2TypoAOffset: 0
OS2TypoDescent: -548
OS2TypoDOffset: 0
OS2TypoLinegap: 0
OS2WinAscent: 2233
OS2WinAOffset: 0
OS2WinDescent: 548
OS2WinDOffset: 0
HheadAscent: 2233
HheadAOffset: 0
HheadDescent: -548
HheadDOffset: 0
OS2SubXSize: 1331
OS2SubYSize: 1433
OS2SubXOff: 0
OS2SubYOff: 286
OS2SupXSize: 1331
OS2SupYSize: 1433
OS2SupXOff: 0
OS2SupYOff: 983
OS2StrikeYSize: 102
OS2StrikeYPos: 530
OS2Vendor: 'newt'
OS2CodePages: 20000097.00000000
OS2UnicodeRanges: a00002ef.4000204b.00000000.00000000
Lookup: 258 0 0 "'kern' Horizontal Kerning lookup 0"  {"'kern' Horizontal Kerning lookup 0 per glyph data 0"  "'kern' Horizontal Kerning lookup 0 kerning class 1"  } ['kern' ('DFLT' <'dflt' > 'cyrl' <'dflt' > 'latn' <'dflt' > ) ]
Lookup: 260 0 0 "'mark' Mark Positioning lookup 1"  {"'mark' Mark Positioning lookup 1 subtable"  } ['mark' ('DFLT' <'dflt' > 'cyrl' <'dflt' > 'grek' <'dflt' > 'latn' <'dflt' > ) ]
MarkAttachClasses: 1
DEI: 91125
KernClass2: 44 59 "'kern' Horizontal Kerning lookup 0 kerning class 1" 
 89 A Agrave Aacute Acircumflex Atilde Adieresis Aring Abreve Amacron Aogonek uni0200 uni0202
 9 B uni1E02
 16 D Dcaron uni1E0A
 94 E Egrave Eacute Ecircumflex Edieresis Ebreve Ecaron Edotaccent Emacron Eogonek uni0204 uni0206
 9 F uni1E1E
 52 G Gbreve Gcircumflex Gcommaaccent Gdotaccent uni01F4
 14 K Kcommaaccent
 28 L Lacute Lcaron Lcommaaccent
 9 P uni1E56

StartChar: .notdef
Encoding: 65536 -1 0
Width: 748
Flags: W
LayerCount: 2
UndoRedoHistory
Layer: 1
Undoes
EndUndoes
Redoes
EndRedoes
EndUndoRedoHistory
Fore
SplineSet
136 68 m 1,0,-1
 544 68 l 1,1,-1
 544 1297 l 1,2,-1
 136 1297 l 1,3,-1
 136 68 l 1,0,-1
68 0 m 1,4,-1
 68 1365 l 1,5,-1
 612 1365 l 1,6,-1
 612 0 l 1,7,-1
 68 0 l 1,4,-1
EndSplineSet
EndChar

StartChar: exclam
Encoding: 33 33 4
Width: 518
GlyphClass: 2
Flags: W
LayerCount: 2
UndoRedoHistory
Layer: 1
Undoes
EndUndoes
Redoes
EndRedoes
EndUndoRedoHistory
Fore
SplineSet
188 417 m 1,0,-1
 223 1654 l 1,1,-1
 549 1654 l 1,2,-1
 302 417 l 1,3,-1
 188 417 l 1,0,-1
43 0 m 1,4,-1
 76 307 l 1,5,-1
 387 307 l 1,6,-1
 354 0 l 1,7,-1
 43 0 l 1,4,-1
EndSplineSet
EndChar

StartChar: quotedbl
Encoding: 34 34 5
Width: 734
GlyphClass: 2
Flags: W
LayerCount: 2
UndoRedoHistory
Layer: 1
Undoes
EndUndoes
Redoes
EndRedoes
EndUndoRedoHistory
Fore
SplineSet
502 1049 m 1,0,-1
 566 1658 l 1,1,-1
 846 1658 l 1,2,-1
 654 1049 l 1,3,-1
 502 1049 l 1,0,-1
125 1049 m 1,4,-1
 189 1658 l 1,5,-1
 470 1658 l 1,6,-1
 277 1049 l 1,7,-1
 125 1049 l 1,4,-1
EndSplineSet
EndChar

StartChar: numbersign
Encoding: 35 35 6
Width: 1088
GlyphClass: 2
Flags: W
LayerCount: 2
UndoRedoHistory
Layer: 1
Undoes
EndUndoes
Redoes
EndRedoes
EndUndoRedoHistory
Fore
SplineSet
479 762 m 1,0,-1
 641 762 l 1,1,-1
 693 991 l 1,2,-1
 532 991 l 1,3,-1
 479 762 l 1,0,-1
85 -1 m 1,4,-1
 209 555 l 1,5,-1
 100 555 l 1,6,-1
 127 762 l 1,7,-1
 262 762 l 1,8,-1
 311 991 l 1,9,-1
 153 991 l 1,10,-1
 180 1200 l 1,11,-1
 370 1200 l 1,12,-1
 471 1658 l 1,13,-1
 692 1658 l 1,14,-1
 590 1200 l 1,15,-1
 750 1200 l 1,16,-1
 851 1658 l 1,17,-1
 1072 1658 l 1,18,-1
 969 1200 l 1,19,-1
 1073 1200 l 1,20,-1
 1046 991 l 1,21,-1
 911 991 l 1,22,-1
 861 762 l 1,23,-1
 1019 762 l 1,24,-1
 992 555 l 1,25,-1
 809 555 l 1,26,-1
 683 -1 l 1,27,-1
 465 -1 l 1,28,-1
 589 555 l 1,29,-1
 429 555 l 1,30,-1
 304 -1 l 1,31,-1
 85 -1 l 1,4,-1
EndSplineSet
EndChar

StartChar: dollar
Encoding: 36 36 7
Width: 998
GlyphClass: 2
Flags: W
LayerCount: 2
UndoRedoHistory
Layer: 1
Undoes
EndUndoes
Redoes
EndRedoes
EndUndoRedoHistory
Fore
SplineSet
406 -217 m 1,0,-1
 426 -22 l 1,1,2
 214 -12 214 -12 122 115 c 0,3,4
 46 221 46 221 46 419 c 0,5,6
 46 458 46 458 49 501 c 1,7,-1
 364 550 l 1,8,9
 359 499 359 499 359 456 c 0,10,11
 358 370 358 370 378 322 c 0,12,13
 406 250 406 250 480 250 c 0,14,15
 577 250 577 250 591 374 c 0,16,17
 593 393 593 393 593 411 c 0,18,19
 593 458 593 458 580 498 c 0,20,21
 562 554 562 554 531 593 c 128,-1,22
 500 632 500 632 443 687 c 2,23,-1
 304 820 l 2,24,25
 256 865 256 865 225 903.5 c 128,-1,26
 194 942 194 942 167 993.5 c 0,27,28
 140 1044 140 1044 131 1108 c 0,29,30
 126 1142 126 1142 126 1180 c 0,31,32
 126 1213 126 1213 130 1249 c 0,33,34
 150 1440 150 1440 271 1552 c 128,-1,35
 392 1664 392 1664 585 1678 c 1,36,-1
 604 1865 l 1,37,-1
 707 1865 l 1,38,-1
 688 1679 l 1,39,40
 762 1674 762 1674 819 1650.5 c 128,-1,41
 876 1627 876 1627 908.5 1591 c 128,-1,42
 941 1555 941 1555 964 1509 c 128,-1,43
 987 1463 987 1463 993 1413 c 0,44,45
 998 1363 998 1363 1002 1311 c 0,46,47
 1003 1292 1003 1292 1004 1273 c 0,48,49
 1004 1241 1004 1241 1000 1212 c 1,50,-1
 684 1170 l 1,51,52
 690 1239 690 1239 690 1292 c 0,53,54
 690 1296 690 1296 690 1300 c 0,55,56
 690 1356 690 1356 667 1388 c 0,57,58
 646 1418 646 1418 603 1417 c 0,59,60
 600 1417 600 1417 597 1417 c 0,61,62
 547 1415 547 1415 516 1375.5 c 128,-1,63
 485 1336 485 1336 479 1285 c 0,64,65
 477 1270 477 1270 477 1255 c 0,66,67
 477 1233 477 1233 481 1213 c 0,68,69
 487 1179 487 1179 496.5 1155.5 c 128,-1,70
 506 1132 506 1132 528 1104 c 128,-1,71
 550 1076 550 1076 564 1061 c 128,-1,72
 578 1046 578 1046 607 1018 c 2,73,-1
 742 888 l 2,74,75
 795 837 795 837 831.5 789 c 128,-1,76
 868 741 868 741 899 680.5 c 128,-1,77
 930 620 930 620 942 548 c 0,78,79
 949 507 949 507 949 462 c 0,80,81
 949 429 949 429 945 393 c 0,82,83
 928 227 928 227 814 112.5 c 128,-1,84
 700 -2 700 -2 528 -20 c 1,85,-1
 507 -217 l 1,86,-1
 406 -217 l 1,0,-1
EndSplineSet
EndChar

StartChar: percent
Encoding: 37 37 8
Width: 2063
GlyphClass: 2
Flags: W
LayerCount: 2
UndoRedoHistory
Layer: 1
Undoes
EndUndoes
Redoes
EndRedoes
EndUndoRedoHistory
Fore
SplineSet
635 0 m 1,0,-1
 1309 1658 l 1,1,-1
 1499 1658 l 1,2,-1
 825 0 l 1,3,-1
 635 0 l 1,0,-1
1533 -3 m 0,4,5
 1327 -3 1327 -3 1248 105 c 0,6,7
 1187 188 1187 188 1187 339 c 0,8,9
 1187 385 1187 385 1193 437 c 1,10,-1
 1200 509 l 1,11,12
 1224 737 1224 737 1322.5 838.5 c 128,-1,13
 1421 940 1421 940 1632 940 c 128,-1,14
 1843 940 1843 940 1922 840 c 0,15,16
 1983 763 1983 763 1983 612 c 0,17,18
 1983 566 1983 566 1977 513 c 1,19,-1
 1968 435 l 1,20,21
 1945 210 1945 210 1843 103.5 c 128,-1,22
 1741 -3 1741 -3 1533 -3 c 0,4,5
1556 209 m 0,23,24
 1587 209 1587 209 1609.5 220 c 128,-1,25
 1632 231 1632 231 1646 248.5 c 128,-1,26
 1660 266 1660 266 1670 299.5 c 128,-1,27
 1680 333 1680 333 1684.5 364.5 c 128,-1,28
 1689 396 1689 396 1695 448 c 2,29,-1
 1701 502 l 2,30,31
 1709 578 1709 578 1709 627.5 c 128,-1,32
 1709 677 1709 677 1686.5 701 c 128,-1,33
 1664 725 1664 725 1610 725 c 0,34,35
 1577 725 1577 725 1555 715.5 c 128,-1,36
 1533 706 1533 706 1519 691.5 c 128,-1,37
 1505 677 1505 677 1496 645 c 128,-1,38
 1487 613 1487 613 1483 585 c 128,-1,39
 1479 557 1479 557 1473 503 c 2,40,-1
 1466 447 l 1,41,42
 1459 372 1459 372 1459 319 c 128,-1,43
 1459 266 1459 266 1482 237.5 c 128,-1,44
 1505 209 1505 209 1556 209 c 0,23,24
503 718 m 128,-1,46
 296 718 296 718 217 826 c 0,47,48
 156 908 156 908 156 1060 c 0,49,50
 156 1106 156 1106 162 1158 c 2,51,-1
 170 1230 l 1,52,53
 194 1458 194 1458 291.5 1559.5 c 128,-1,54
 389 1661 389 1661 601 1661 c 0,55,56
 812 1661 812 1661 891 1561 c 0,57,58
 952 1484 952 1484 952 1333 c 0,59,60
 952 1287 952 1287 946 1235 c 1,61,-1
 938 1156 l 1,62,63
 914 931 914 931 812 824.5 c 128,-1,45
 710 718 710 718 503 718 c 128,-1,46
525 931 m 0,64,65
 556 931 556 931 578.5 942 c 128,-1,66
 601 953 601 953 615 970.5 c 128,-1,67
 629 988 629 988 639 1021 c 128,-1,68
 649 1054 649 1054 653.5 1085.5 c 128,-1,69
 658 1117 658 1117 664 1169 c 2,70,-1
 670 1223 l 2,71,72
 678 1299 678 1299 678 1349 c 128,-1,73
 678 1399 678 1399 655.5 1423 c 128,-1,74
 633 1447 633 1447 579 1447 c 0,75,76
 546 1447 546 1447 523.5 1437.5 c 128,-1,77
 501 1428 501 1428 487.5 1413 c 128,-1,78
 474 1398 474 1398 465 1366.5 c 128,-1,79
 456 1335 456 1335 451.5 1306 c 128,-1,80
 447 1277 447 1277 442 1224 c 1,81,-1
 435 1169 l 1,82,83
 427 1097 427 1097 427 1046 c 0,84,85
 428 1043 428 1043 428 1040 c 0,86,87
 428 987 428 987 451 959 c 128,-1,88
 474 931 474 931 525 931 c 0,64,65
EndSplineSet
EndChar

StartChar: ampersand
Encoding: 38 38 9
Width: 1173
GlyphClass: 2
Flags: W
LayerCount: 2
UndoRedoHistory
Layer: 1
Undoes
EndUndoes
Redoes
EndRedoes
EndUndoRedoHistory
Fore
SplineSet
554 1005 m 1,0,1
 603 1082 603 1082 650 1179.5 c 128,-1,2
 697 1277 697 1277 704 1347 c 0,3,4
 705 1355 705 1355 705 1362 c 0,5,6
 705 1398 705 1398 684 1420 c 0,7,8
 659 1448 659 1448 619 1448 c 0,9,10
 577 1448 577 1448 546.5 1414 c 128,-1,11
 516 1380 516 1380 511 1326 c 0,12,13
 509 1308 509 1308 509 1288 c 0,14,15
 510 1257 510 1257 514 1221 c 0,16,17
 522 1161 522 1161 537.5 1087 c 128,-1,18
 553 1013 553 1013 554 1005 c 1,0,1
437 199 m 0,19,20
 534 199 534 199 599 276 c 1,21,22
 463 615 463 615 451 656 c 1,23,24
 353 519 353 519 339 385 c 0,25,26
 337 367 337 367 337 351 c 0,27,28
 337 290 337 290 360 250 c 0,29,30
 389 198 389 198 437 199 c 0,19,20
408 -25 m 0,31,32
 242 -25 242 -25 148 83 c 0,33,34
 70 174 70 174 69 308 c 0,35,36
 69 334 69 334 72 362 c 0,37,38
 87 505 87 505 168.5 642.5 c 128,-1,39
 250 780 250 780 360 877 c 1,40,41
 346 913 346 913 315.5 984 c 128,-1,42
 285 1055 285 1055 269.5 1095.5 c 128,-1,43
 254 1136 254 1136 243 1196 c 0,44,45
 236 1235 236 1235 236 1272 c 0,46,47
 236 1292 236 1292 238 1312 c 0,48,49
 254 1470 254 1470 362 1576 c 128,-1,50
 470 1682 470 1682 630 1682 c 128,-1,51
 790 1682 790 1682 885 1587 c 0,52,53
 966 1506 966 1506 966 1379 c 0,54,55
 966 1356 966 1356 963 1332 c 0,56,57
 958 1290 958 1290 946 1248.5 c 128,-1,58
 934 1207 934 1207 919 1174 c 128,-1,59
 904 1141 904 1141 879.5 1104 c 128,-1,60
 855 1067 855 1067 835 1042 c 128,-1,61
 815 1017 815 1017 783 983 c 128,-1,62
 751 949 751 949 731.5 930 c 128,-1,63
 712 911 712 911 678 879 c 128,-1,64
 644 847 644 847 629 832 c 1,65,-1
 786 474 l 1,66,67
 814 517 814 517 840.5 618.5 c 128,-1,68
 867 720 867 720 881 813 c 1,69,-1
 1111 813 l 1,70,71
 1094 649 1094 649 1049 528 c 128,-1,72
 1004 407 1004 407 930 290 c 1,73,74
 948 265 948 265 983.5 246 c 128,-1,75
 1019 227 1019 227 1058 224 c 1,76,-1
 1032 -22 l 1,77,78
 996 -30 996 -30 976 -30 c 0,79,80
 957 -30 957 -30 937.5 -25.5 c 128,-1,81
 918 -21 918 -21 903 -16 c 128,-1,82
 888 -11 888 -11 869 1.5 c 128,-1,83
 850 14 850 14 839.5 20.5 c 128,-1,84
 829 27 829 27 810 44.5 c 128,-1,85
 791 62 791 62 784.5 68 c 128,-1,86
 778 74 778 74 758.5 94 c 128,-1,87
 739 114 739 114 736 117 c 1,88,89
 675 49 675 49 589.5 12 c 128,-1,90
 504 -25 504 -25 408 -25 c 0,31,32
EndSplineSet
EndChar

StartChar: quotesingle
Encoding: 39 39 10
Width: 497
GlyphClass: 2
Flags: W
LayerCount: 2
UndoRedoHistory
Layer: 1
Undoes
EndUndoes
Redoes
EndRedoes
EndUndoRedoHistory
Fore
SplineSet
155 1049 m 1,0,-1
 218 1658 l 1,1,-1
 488 1658 l 1,2,-1
 315 1049 l 1,3,-1
 155 1049 l 1,0,-1
EndSplineSet
EndChar

StartChar: parenleft
Encoding: 40 40 11
Width: 688
GlyphClass: 2
Flags: W
LayerCount: 2
UndoRedoHistory
Layer: 1
Undoes
EndUndoes
Redoes
EndRedoes
EndUndoRedoHistory
Fore
SplineSet
528 -373 m 1,0,1
 454 -373 454 -373 394.5 -355 c 128,-1,2
 335 -337 335 -337 291.5 -306 c 128,-1,3
 248 -275 248 -275 216.5 -225.5 c 128,-1,4
 185 -176 185 -176 165 -122 c 128,-1,5
 145 -68 145 -68 134.5 5.5 c 0,6,7
 124 80 124 80 120 148 c 0,8,9
 118 182 118 182 118.5 221.5 c 0,10,11
 118 261 118 261 120 306 c 0,12,13
 124 396 124 396 130.5 472 c 128,-1,14
 137 548 137 548 147 645 c 0,15,16
 158 748 158 748 168 827.5 c 128,-1,17
 178 907 178 907 194 999.5 c 128,-1,18
 210 1092 210 1092 227.5 1161.5 c 128,-1,19
 245 1231 245 1231 271.5 1304.5 c 128,-1,20
 298 1378 298 1378 329 1431.5 c 128,-1,21
 360 1485 360 1485 402 1533.5 c 128,-1,22
 444 1582 444 1582 493.5 1612 c 128,-1,23
 543 1642 543 1642 606 1659.5 c 128,-1,24
 669 1677 669 1677 743 1677 c 1,25,-1
 719 1447 l 1,26,27
 680 1447 680 1447 648.5 1423 c 128,-1,28
 617 1399 617 1399 591.5 1349 c 128,-1,29
 566 1299 566 1299 546 1234 c 128,-1,30
 526 1169 526 1169 508.5 1074 c 128,-1,31
 491 979 491 979 478 879 c 128,-1,32
 465 779 465 779 451 645 c 0,33,34
 437 512 437 512 429.5 409.5 c 0,35,36
 422 308 422 308 420 216 c 0,37,38
 420 196 420 196 420 176 c 0,39,40
 420 110 420 110 425 60 c 0,41,42
 432 -4 432 -4 447.5 -51 c 128,-1,43
 463 -98 463 -98 489 -120.5 c 128,-1,44
 515 -143 515 -143 552 -143 c 1,45,-1
 528 -373 l 1,0,1
EndSplineSet
EndChar

StartChar: parenright
Encoding: 41 41 12
Width: 660
GlyphClass: 2
Flags: W
LayerCount: 2
UndoRedoHistory
Layer: 1
Undoes
EndUndoes
Redoes
EndRedoes
EndUndoRedoHistory
Fore
SplineSet
-18 -373 m 1,0,-1
 6 -142 l 1,1,2
 112 -142 112 -142 171.5 48 c 128,-1,3
 231 238 231 238 274 646 c 0,4,5
 288 781 288 781 295.5 880.5 c 128,-1,6
 303 980 303 980 306 1076 c 0,7,8
 307 1106 307 1106 307 1133 c 0,9,10
 306 1192 306 1192 302 1236 c 0,11,12
 296 1300 296 1300 281 1350.5 c 128,-1,13
 266 1401 266 1401 239 1424.5 c 128,-1,14
 212 1448 212 1448 173 1448 c 1,15,-1
 197 1677 l 1,16,17
 271 1677 271 1677 330.5 1659.5 c 128,-1,18
 390 1642 390 1642 433.5 1612.5 c 128,-1,19
 477 1583 477 1583 509 1534 c 128,-1,20
 541 1485 541 1485 561 1432 c 128,-1,21
 581 1379 581 1379 591.5 1305 c 128,-1,22
 602 1231 602 1231 606 1162 c 0,23,24
 608 1128 608 1128 607.5 1087.5 c 0,25,26
 608 1046 608 1046 606 1000 c 0,27,28
 602 908 602 908 595.5 829 c 128,-1,29
 589 750 589 750 578 646 c 0,30,31
 568 548 568 548 558 472.5 c 128,-1,32
 548 397 548 397 532 307 c 128,-1,33
 516 217 516 217 498.5 148.5 c 128,-1,34
 481 80 481 80 454.5 6 c 128,-1,35
 428 -68 428 -68 397 -121.5 c 128,-1,36
 366 -175 366 -175 323.5 -225 c 128,-1,37
 281 -275 281 -275 231.5 -306 c 128,-1,38
 182 -337 182 -337 118.5 -355 c 128,-1,39
 55 -373 55 -373 -18 -373 c 1,0,-1
EndSplineSet
EndChar

StartChar: asterisk
Encoding: 42 42 13
Width: 865
GlyphClass: 2
Flags: W
LayerCount: 2
UndoRedoHistory
Layer: 1
Undoes
EndUndoes
Redoes
EndRedoes
EndUndoRedoHistory
Fore
SplineSet
397 923 m 1,0,-1
 216 1037 l 1,1,-1
 384 1246 l 1,2,-1
 173 1331 l 1,3,-1
 267 1528 l 1,4,-1
 457 1417 l 1,5,-1
 455 1657 l 1,6,-1
 701 1657 l 1,7,-1
 650 1416 l 1,8,-1
 862 1529 l 1,9,-1
 915 1330 l 1,10,-1
 684 1245 l 1,11,-1
 812 1038 l 1,12,-1
 605 923 l 1,13,-1
 524 1143 l 1,14,-1
 397 923 l 1,0,-1
EndSplineSet
EndChar

StartChar: plus
Encoding: 43 43 14
Width: 918
GlyphClass: 2
Flags: W
LayerCount: 2
UndoRedoHistory
Layer: 1
Undoes
EndUndoes
Redoes
EndRedoes
EndUndoRedoHistory
Fore
SplineSet
341 423 m 1,0,-1
 376 752 l 1,1,-1
 83 752 l 1,2,-1
 103 948 l 1,3,-1
 397 948 l 1,4,-1
 430 1270 l 1,5,-1
 650 1270 l 1,6,-1
 616 948 l 1,7,-1
 914 948 l 1,8,-1
 894 752 l 1,9,-1
 596 752 l 1,10,-1
 561 423 l 1,11,-1
 341 423 l 1,0,-1
EndSplineSet
EndChar

StartChar: comma
Encoding: 44 44 15
Width: 480
GlyphClass: 2
Flags: W
LayerCount: 2
UndoRedoHistory
Layer: 1
Undoes
EndUndoes
Redoes
EndRedoes
EndUndoRedoHistory
Fore
SplineSet
55 -287 m 1,0,-1
 45 -178 l 1,1,2
 193 -144 193 -144 208 0 c 1,3,-1
 37 0 l 1,4,-1
 69 308 l 1,5,-1
 381 308 l 1,6,-1
 352 38 l 2,7,8
 320 -263 320 -263 55 -287 c 1,0,-1
EndSplineSet
EndChar

StartChar: hyphen
Encoding: 45 45 16
Width: 784
GlyphClass: 2
Flags: W
LayerCount: 2
UndoRedoHistory
Layer: 1
Undoes
EndUndoes
Redoes
EndRedoes
EndUndoRedoHistory
Fore
SplineSet
141 600 m 1,0,-1
 163 813 l 1,1,-1
 691 813 l 1,2,-1
 668 600 l 1,3,-1
 141 600 l 1,0,-1
EndSplineSet
EndChar

StartChar: period
Encoding: 46 46 17
Width: 491
GlyphClass: 2
Flags: W
LayerCount: 2
UndoRedoHistory
Layer: 1
Undoes
EndUndoes
Redoes
EndRedoes
EndUndoRedoHistory
Fore
SplineSet
43 0 m 1,0,-1
 76 311 l 1,1,-1
 388 311 l 1,2,-1
 355 0 l 1,3,-1
 43 0 l 1,0,-1
EndSplineSet
EndChar

StartChar: slash
Encoding: 47 47 18
Width: 859
GlyphClass: 2
Flags: W
LayerCount: 2
UndoRedoHistory
Layer: 1
Undoes
EndUndoes
Redoes
EndRedoes
EndUndoRedoHistory
Fore
SplineSet
37 0 m 1,0,-1
 712 1658 l 1,1,-1
 896 1658 l 1,2,-1
 220 0 l 1,3,-1
 37 0 l 1,0,-1
EndSplineSet
EndChar

StartChar: zero
Encoding: 48 48 19
Width: 1095
GlyphClass: 2
Flags: W
LayerCount: 2
UndoRedoHistory
Layer: 1
Undoes
EndUndoes
Redoes
EndRedoes
EndUndoRedoHistory
Fore
SplineSet
495 -29 m 0,0,1
 278 -29 278 -29 175 100 c 0,2,3
 91 205 91 205 91 370 c 0,4,5
 91 407 91 407 95 446 c 2,6,-1
 174 1196 l 2,7,8
 198 1422 198 1422 324 1552 c 128,-1,9
 450 1682 450 1682 675 1682 c 0,10,11
 898 1682 898 1682 998 1552 c 0,12,13
 1078 1447 1078 1447 1078 1280 c 0,14,15
 1078 1240 1078 1240 1073 1196 c 2,16,-1
 995 446 l 2,17,18
 972 231 972 231 841 101 c 128,-1,19
 710 -29 710 -29 495 -29 c 0,0,1
527 269 m 0,20,21
 636 269 636 269 652 455 c 1,22,-1
 729 1187 l 2,23,24
 732 1212 732 1212 733 1227.5 c 128,-1,25
 734 1243 734 1243 734 1269.5 c 128,-1,26
 734 1296 734 1296 729 1313 c 128,-1,27
 724 1330 724 1330 714.5 1347.5 c 128,-1,28
 705 1365 705 1365 687 1374 c 128,-1,29
 669 1383 669 1383 644 1383 c 0,30,31
 618 1383 618 1383 598 1374.5 c 128,-1,32
 578 1366 578 1366 565 1347.5 c 128,-1,33
 552 1329 552 1329 543.5 1313 c 128,-1,34
 535 1297 535 1297 529.5 1269 c 128,-1,35
 524 1241 524 1241 522 1227.5 c 128,-1,36
 520 1214 520 1214 517 1187 c 2,37,-1
 441 455 l 2,38,39
 438 427 438 427 438 402 c 0,40,41
 438 269 438 269 527 269 c 0,20,21
EndSplineSet
EndChar

StartChar: one
Encoding: 49 49 20
Width: 1095
GlyphClass: 2
Flags: W
LayerCount: 2
UndoRedoHistory
Layer: 1
Undoes
EndUndoes
Redoes
EndRedoes
EndUndoRedoHistory
Fore
SplineSet
381 0 m 1,0,-1
 519 1319 l 1,1,-1
 275 1225 l 1,2,-1
 301 1477 l 1,3,4
 379 1510 379 1510 483 1564 c 128,-1,5
 587 1618 587 1618 629 1658 c 1,6,-1
 893 1658 l 1,7,-1
 719 0 l 1,8,-1
 381 0 l 1,0,-1
EndSplineSet
EndChar

StartChar: two
Encoding: 50 50 21
Width: 1095
GlyphClass: 2
Flags: W
LayerCount: 2
UndoRedoHistory
Layer: 1
Undoes
EndUndoes
Redoes
EndRedoes
EndUndoRedoHistory
Fore
SplineSet
63 0 m 1,0,-1
 88 238 l 1,1,-1
 546 851 l 2,2,3
 556 864 556 864 599.5 921 c 128,-1,4
 643 978 643 978 660 1003 c 128,-1,5
 677 1028 677 1028 706 1075.5 c 128,-1,6
 735 1123 735 1123 749 1164.5 c 128,-1,7
 763 1206 763 1206 767 1248 c 0,8,9
 769 1266 769 1266 769 1282 c 0,10,11
 770 1336 770 1336 746 1366 c 0,12,13
 721 1397 721 1397 677 1398 c 0,14,15
 667 1398 667 1398 655 1396 c 1,16,17
 593 1389 593 1389 558 1332 c 128,-1,18
 523 1275 523 1275 511 1164 c 2,19,-1
 503 1085 l 1,20,-1
 177 1085 l 1,21,-1
 185 1170 l 1,22,23
 197 1283 197 1283 232.5 1374.5 c 128,-1,24
 268 1466 268 1466 329 1536.5 c 128,-1,25
 390 1607 390 1607 484 1645.5 c 128,-1,26
 578 1684 578 1684 698 1684 c 0,27,28
 918 1684 918 1684 1020 1568 c 0,29,30
 1105 1472 1105 1472 1105 1313 c 0,31,32
 1105 1280 1105 1280 1101 1244 c 0,33,34
 1098 1213 1098 1213 1090.5 1181.5 c 128,-1,35
 1083 1150 1083 1150 1076.5 1125 c 128,-1,36
 1070 1100 1070 1100 1054 1067 c 128,-1,37
 1038 1034 1038 1034 1030.5 1016.5 c 128,-1,38
 1023 999 1023 999 1000 963.5 c 128,-1,39
 977 928 977 928 970 916 c 128,-1,40
 963 904 963 904 934.5 866 c 128,-1,41
 906 828 906 828 900.5 821 c 128,-1,42
 895 814 895 814 861.5 771.5 c 128,-1,43
 828 729 828 729 825 725 c 2,44,-1
 469 265 l 1,45,-1
 952 265 l 1,46,-1
 924 0 l 1,47,-1
 63 0 l 1,0,-1
EndSplineSet
EndChar

StartChar: three
Encoding: 51 51 22
Width: 1095
GlyphClass: 2
Flags: W
LayerCount: 2
UndoRedoHistory
Layer: 1
Undoes
EndUndoes
Redoes
EndRedoes
EndUndoRedoHistory
Fore
SplineSet
504 -29 m 0,0,1
 378 -29 378 -29 292.5 7.5 c 128,-1,2
 207 44 207 44 162 113.5 c 0,3,4
 118 183 118 183 104 274 c 0,5,6
 97 322 97 322 96 378 c 0,7,8
 96 428 96 428 102 485 c 1,9,-1
 109 544 l 1,10,-1
 446 544 l 1,11,12
 440 520 440 520 440 487 c 1,13,14
 435 437 435 437 435 398 c 0,15,16
 435 338 435 338 447 306 c 0,17,18
 467 253 467 253 538 253 c 0,19,20
 607 253 607 253 635 305.5 c 128,-1,21
 663 358 663 358 676 478 c 0,22,23
 680 518 680 518 680 552 c 0,24,25
 680 628 680 628 658 670 c 0,26,27
 626 731 626 731 526 734 c 1,28,-1
 468 734 l 1,29,-1
 494 974 l 1,30,-1
 546 974 l 1,31,32
 651 975 651 975 695.5 1030 c 128,-1,33
 740 1085 740 1085 753 1214 c 0,34,35
 757 1248 757 1248 757 1276 c 0,36,37
 757 1332 757 1332 742 1364 c 0,38,39
 720 1412 720 1412 652 1413 c 0,40,41
 585 1413 585 1413 556 1361 c 128,-1,42
 527 1309 527 1309 515 1206 c 0,43,44
 514 1204 514 1204 510 1164.5 c 128,-1,45
 506 1125 506 1125 506 1123 c 1,46,-1
 169 1123 l 1,47,-1
 179 1221 l 1,48,49
 203 1442 203 1442 335 1563 c 128,-1,50
 467 1684 467 1684 679 1684 c 0,51,52
 897 1684 897 1684 1004 1568 c 0,53,54
 1092 1473 1092 1473 1092 1308 c 0,55,56
 1092 1272 1092 1272 1088 1234 c 0,57,58
 1073 1093 1073 1093 1004.5 995 c 128,-1,59
 936 897 936 897 844 872 c 1,60,61
 1014 807 1014 807 1014 569 c 0,62,63
 1014 530 1014 530 1010 487 c 0,64,65
 998 370 998 370 963.5 278 c 128,-1,66
 929 186 929 186 869 116 c 128,-1,67
 809 46 809 46 717 8.5 c 128,-1,68
 625 -29 625 -29 504 -29 c 0,0,1
EndSplineSet
EndChar

StartChar: four
Encoding: 52 52 23
Width: 1095
GlyphClass: 2
Flags: W
LayerCount: 2
UndoRedoHistory
Layer: 1
Undoes
EndUndoes
Redoes
EndRedoes
EndUndoRedoHistory
Fore
SplineSet
341 631 m 1,0,-1
 587 631 l 1,1,-1
 660 1325 l 1,2,-1
 341 631 l 1,0,-1
521 0 m 1,3,-1
 561 384 l 1,4,-1
 58 384 l 1,5,-1
 86 641 l 1,6,-1
 621 1658 l 1,7,-1
 998 1658 l 1,8,-1
 890 631 l 1,9,-1
 1050 631 l 1,10,-1
 1024 384 l 1,11,-1
 864 384 l 1,12,-1
 824 0 l 1,13,-1
 521 0 l 1,3,-1
EndSplineSet
EndChar

StartChar: five
Encoding: 53 53 24
Width: 1095
GlyphClass: 2
Flags: W
LayerCount: 2
UndoRedoHistory
Layer: 1
Undoes
EndUndoes
Redoes
EndRedoes
EndUndoRedoHistory
Fore
SplineSet
501 -29 m 0,0,1
 395 -29 395 -29 320 -5 c 128,-1,2
 245 19 245 19 202.5 63.5 c 128,-1,3
 160 108 160 108 138 171.5 c 0,4,5
 116 234 116 234 115 314 c 0,6,7
 115 322 115 322 115 331 c 0,8,9
 115 404 115 404 123 487 c 1,10,-1
 449 487 l 1,11,12
 442 419 442 419 442 370 c 0,13,14
 442 311 442 311 452 279 c 0,15,16
 470 222 470 222 542 222 c 0,17,18
 546 222 546 222 549 222 c 0,19,20
 573 223 573 223 591.5 232.5 c 128,-1,21
 610 242 610 242 623.5 255 c 128,-1,22
 637 268 637 268 648 294.5 c 128,-1,23
 659 321 659 321 666 344 c 128,-1,24
 673 367 673 367 679.5 409 c 128,-1,25
 686 451 686 451 689.5 482 c 128,-1,26
 693 513 693 513 699 569 c 1,27,28
 706 652 706 652 706 716 c 128,-1,29
 706 780 706 780 680 818.5 c 128,-1,30
 654 857 654 857 599 857 c 0,31,32
 493 857 493 857 450 708 c 1,33,-1
 159 708 l 1,34,-1
 285 1658 l 1,35,-1
 1060 1658 l 1,36,-1
 1031 1373 l 1,37,-1
 529 1373 l 1,38,-1
 474 1029 l 1,39,40
 500 1057 500 1057 558.5 1078.5 c 128,-1,41
 617 1100 617 1100 686 1107 c 0,42,43
 707 1109 707 1109 726 1109 c 0,44,45
 886 1110 886 1110 962 986 c 0,46,47
 1025 882 1025 882 1025 706 c 0,48,49
 1025 648 1025 648 1018 582 c 0,50,51
 1008 487 1008 487 993.5 414 c 128,-1,52
 979 341 979 341 954 268 c 128,-1,53
 929 195 929 195 890.5 143.5 c 128,-1,54
 852 92 852 92 799 51.5 c 128,-1,55
 746 11 746 11 671 -9 c 128,-1,56
 596 -29 596 -29 501 -29 c 0,0,1
EndSplineSet
EndChar

StartChar: six
Encoding: 54 54 25
Width: 1095
GlyphClass: 2
Flags: W
LayerCount: 2
UndoRedoHistory
Layer: 1
Undoes
EndUndoes
Redoes
EndRedoes
EndUndoRedoHistory
Fore
SplineSet
540 226 m 0,0,1
 606 226 606 226 634 291.5 c 128,-1,2
 662 357 662 357 678 506 c 0,3,4
 682 545 682 545 683.5 563.5 c 128,-1,5
 685 582 685 582 687 614.5 c 128,-1,6
 689 647 689 647 688 663 c 128,-1,7
 687 679 687 679 684 702 c 128,-1,8
 681 725 681 725 674 736 c 128,-1,9
 667 747 667 747 657 759 c 128,-1,10
 647 771 647 771 631 775.5 c 128,-1,11
 615 780 615 780 595 780 c 0,12,13
 556 780 556 780 522.5 758 c 128,-1,14
 489 736 489 736 472 708 c 1,15,-1
 444 442 l 2,16,17
 440 407 440 407 440 378 c 0,18,19
 440 226 440 226 540 226 c 0,0,1
509 -24 m 0,20,21
 391 -24 391 -24 306 17 c 128,-1,22
 221 58 221 58 175.5 132.5 c 0,23,24
 130 206 130 206 114 304 c 0,25,26
 105 358 105 358 105 419 c 0,27,28
 105 469 105 469 111 523 c 2,29,-1
 173 1112 l 2,30,31
 187 1242 187 1242 217 1339 c 128,-1,32
 247 1436 247 1436 304.5 1516.5 c 128,-1,33
 362 1597 362 1597 458 1639 c 128,-1,34
 554 1681 554 1681 687 1681 c 0,35,36
 913 1681 913 1681 1000 1575 c 0,37,38
 1070 1490 1070 1490 1070 1334 c 0,39,40
 1070 1296 1070 1296 1066 1255 c 0,41,42
 1066 1254 1066 1254 1064.5 1241.5 c 128,-1,43
 1063 1229 1063 1229 1063 1227 c 1,44,-1
 746 1227 l 1,45,46
 751 1284 751 1284 751 1324 c 0,47,48
 751 1331 751 1331 751 1337 c 0,49,50
 750 1381 750 1381 729 1403.5 c 128,-1,51
 708 1426 708 1426 662 1426 c 0,52,53
 592 1426 592 1426 562.5 1357.5 c 128,-1,54
 533 1289 533 1289 512 1093 c 2,55,-1
 496 941 l 1,56,57
 526 985 526 985 583.5 1009.5 c 128,-1,58
 641 1034 641 1034 712 1036 c 0,59,60
 718 1036 718 1036 724 1036 c 0,61,62
 796 1036 796 1036 850 1014 c 0,63,64
 910 990 910 990 945 947.5 c 128,-1,65
 980 905 980 905 1001 845 c 128,-1,66
 1022 785 1022 785 1024 713 c 0,67,68
 1025 694 1025 694 1025 674 c 0,69,70
 1025 619 1025 619 1020 560 c 1,71,72
 1006 425 1006 425 973 323 c 128,-1,73
 940 221 940 221 881 140.5 c 128,-1,74
 822 60 822 60 728.5 18 c 128,-1,75
 635 -24 635 -24 509 -24 c 0,20,21
EndSplineSet
EndChar

StartChar: seven
Encoding: 55 55 26
Width: 1095
GlyphClass: 2
Flags: W
LayerCount: 2
UndoRedoHistory
Layer: 1
Undoes
EndUndoes
Redoes
EndRedoes
EndUndoRedoHistory
Fore
SplineSet
219 0 m 1,0,-1
 721 1403 l 1,1,-1
 254 1403 l 1,2,-1
 281 1658 l 1,3,-1
 1076 1658 l 1,4,-1
 1053 1422 l 1,5,-1
 547 0 l 1,6,-1
 219 0 l 1,0,-1
EndSplineSet
EndChar

StartChar: eight
Encoding: 56 56 27
Width: 1095
GlyphClass: 2
Flags: W
LayerCount: 2
UndoRedoHistory
Layer: 1
Undoes
EndUndoes
Redoes
EndRedoes
EndUndoRedoHistory
Fore
SplineSet
605 996 m 0,0,1
 710 996 710 996 736 1245 c 0,2,3
 739 1271 739 1271 739 1293 c 0,4,5
 739 1345 739 1345 724 1379 c 0,6,7
 703 1428 703 1428 651 1428 c 0,8,9
 597 1428 597 1428 565 1379 c 128,-1,10
 533 1330 533 1330 524 1245 c 0,11,12
 519 1195 519 1195 519 1154 c 0,13,14
 519 1094 519 1094 530 1058 c 0,15,16
 549 996 549 996 605 996 c 0,0,1
524 223 m 0,17,18
 557 223 557 223 582.5 240 c 128,-1,19
 608 257 608 257 622.5 281 c 128,-1,20
 637 305 637 305 648 342 c 128,-1,21
 659 379 659 379 663 406 c 128,-1,22
 667 433 667 433 671 469 c 0,23,24
 678 526 678 526 678 564 c 0,25,26
 678 567 678 567 678 569 c 0,27,28
 678 604 678 604 671 642 c 0,29,30
 664 682 664 682 640.5 703.5 c 128,-1,31
 617 725 617 725 577 725 c 0,32,33
 545 725 545 725 520.5 709.5 c 128,-1,34
 496 694 496 694 481 671.5 c 128,-1,35
 466 649 466 649 454.5 612.5 c 128,-1,36
 443 576 443 576 438 544.5 c 128,-1,37
 433 513 433 513 428 469 c 0,38,39
 424 433 424 433 423 405 c 0,40,41
 423 398 423 398 423 390 c 0,42,43
 423 366 423 366 425 340 c 0,44,45
 428 304 428 304 438 280.5 c 128,-1,46
 448 257 448 257 470 240 c 128,-1,47
 492 223 492 223 524 223 c 0,17,18
498 -26 m 0,48,49
 94 -26 94 -26 94 381 c 0,50,51
 94 434 94 434 101 493 c 0,52,53
 116 624 116 624 174 725 c 128,-1,54
 232 826 232 826 331 874 c 1,55,56
 203 976 203 976 203 1176 c 0,57,58
 203 1203 203 1203 205 1233 c 0,59,60
 223 1445 223 1445 345.5 1562.5 c 128,-1,61
 468 1680 468 1680 678 1680 c 0,62,63
 887 1680 887 1680 983 1562 c 0,64,65
 1058 1470 1058 1470 1058 1321 c 0,66,67
 1058 1279 1058 1279 1052 1233 c 1,68,69
 1022 987 1022 987 853 874 c 1,70,71
 940 826 940 826 978 724 c 0,72,73
 1007 646 1007 646 1007 551 c 0,74,75
 1007 523 1007 523 1005 493 c 0,76,77
 959 -26 959 -26 498 -26 c 0,48,49
EndSplineSet
EndChar

StartChar: nine
Encoding: 57 57 28
Width: 1095
GlyphClass: 2
Flags: W
LayerCount: 2
UndoRedoHistory
Layer: 1
Undoes
EndUndoes
Redoes
EndRedoes
EndUndoRedoHistory
Fore
SplineSet
587 877 m 0,0,1
 655 877 655 877 703 950 c 1,2,-1
 730 1215 l 2,3,4
 734 1263 734 1263 734 1304 c 0,5,6
 734 1312 734 1312 734 1320 c 0,7,8
 733 1368 733 1368 710.5 1399.5 c 128,-1,9
 688 1431 688 1431 642 1431 c 0,10,11
 576 1431 576 1431 548.5 1365.5 c 128,-1,12
 521 1300 521 1300 505 1151 c 1,13,14
 496 1057 496 1057 496 1002 c 0,15,16
 496 970 496 970 499 952 c 0,17,18
 514 877 514 877 587 877 c 0,0,1
488 -24 m 0,19,20
 260 -24 260 -24 174 82 c 0,21,22
 105 167 105 167 106 323 c 0,23,24
 106 361 106 361 110 404 c 1,25,26
 113 407 113 407 113 430 c 1,27,-1
 431 430 l 1,28,29
 426 379 426 379 426 341 c 0,30,31
 426 330 426 330 426 320 c 0,32,33
 428 276 428 276 449.5 254 c 128,-1,34
 471 232 471 232 517 232 c 0,35,36
 587 232 587 232 614 298.5 c 128,-1,37
 641 365 641 365 662 564 c 2,38,-1
 678 716 l 1,39,40
 648 672 648 672 591.5 647.5 c 128,-1,41
 535 623 535 623 465 621 c 0,42,43
 459 621 459 621 454 621 c 0,44,45
 383 621 383 621 328 644 c 0,46,47
 269 669 269 669 234 714.5 c 128,-1,48
 199 760 199 760 178 823 c 0,49,50
 156 886 156 886 154 960 c 0,51,52
 153 979 153 979 154 999 c 0,53,54
 154 1055 154 1055 159 1114 c 1,55,56
 188 1386 188 1386 309.5 1533.5 c 128,-1,57
 431 1681 431 1681 668 1681 c 0,58,59
 787 1681 787 1681 871.5 1643 c 128,-1,60
 956 1605 956 1605 1002.5 1533.5 c 128,-1,61
 1049 1462 1049 1462 1065 1367 c 0,62,63
 1074 1315 1074 1315 1074 1255 c 0,64,65
 1074 1206 1074 1206 1068 1152 c 2,66,-1
 1004 546 l 2,67,68
 993 443 993 443 972.5 361.5 c 128,-1,69
 952 280 952 280 912.5 206 c 128,-1,70
 873 132 873 132 817.5 82.5 c 128,-1,71
 762 33 762 33 678.5 4.5 c 128,-1,72
 595 -24 595 -24 488 -24 c 0,19,20
EndSplineSet
EndChar

StartChar: colon
Encoding: 58 58 29
Width: 555
GlyphClass: 2
Flags: W
LayerCount: 2
UndoRedoHistory
Layer: 1
Undoes
EndUndoes
Redoes
EndRedoes
EndUndoRedoHistory
Fore
SplineSet
173 842 m 1,0,-1
 205 1148 l 1,1,-1
 514 1148 l 1,2,-1
 481 842 l 1,3,-1
 173 842 l 1,0,-1
97 124 m 1,4,-1
 130 429 l 1,5,-1
 438 429 l 1,6,-1
 406 124 l 1,7,-1
 97 124 l 1,4,-1
EndSplineSet
EndChar

StartChar: semicolon
Encoding: 59 59 30
Width: 571
GlyphClass: 2
Flags: W
LayerCount: 2
UndoRedoHistory
Layer: 1
Undoes
EndUndoes
Redoes
EndRedoes
EndUndoRedoHistory
Fore
SplineSet
175 868 m 1,0,-1
 207 1178 l 1,1,-1
 516 1178 l 1,2,-1
 484 868 l 1,3,-1
 175 868 l 1,0,-1
109 -231 m 1,4,-1
 99 -122 l 1,5,6
 246 -103 246 -103 261 43 c 1,7,-1
 90 43 l 1,8,-1
 122 351 l 1,9,-1
 434 351 l 1,10,-1
 405 81 l 2,11,12
 372 -228 372 -228 109 -231 c 1,4,-1
EndSplineSet
EndChar

StartChar: less
Encoding: 60 60 31
Width: 813
GlyphClass: 2
Flags: W
LayerCount: 2
UndoRedoHistory
Layer: 1
Undoes
EndUndoes
Redoes
EndRedoes
EndUndoRedoHistory
Fore
SplineSet
665 191 m 1,0,-1
 80 631 l 1,1,-1
 107 891 l 1,2,-1
 785 1332 l 1,3,-1
 755 1043 l 1,4,-1
 330 762 l 1,5,-1
 695 478 l 1,6,-1
 665 191 l 1,0,-1
EndSplineSet
EndChar

StartChar: equal
Encoding: 61 61 32
Width: 905
GlyphClass: 2
Flags: W
LayerCount: 2
UndoRedoHistory
Layer: 1
Undoes
EndUndoes
Redoes
EndRedoes
EndUndoRedoHistory
Fore
SplineSet
172 899 m 1,0,-1
 193 1101 l 1,1,-1
 843 1101 l 1,2,-1
 822 899 l 1,3,-1
 172 899 l 1,0,-1
131 511 m 1,4,-1
 152 714 l 1,5,-1
 803 714 l 1,6,-1
 782 511 l 1,7,-1
 131 511 l 1,4,-1
EndSplineSet
EndChar

StartChar: greater
Encoding: 62 62 33
Width: 813
GlyphClass: 2
Flags: W
LayerCount: 2
UndoRedoHistory
Layer: 1
Undoes
EndUndoes
Redoes
EndRedoes
EndUndoRedoHistory
Fore
SplineSet
81 191 m 1,0,-1
 112 478 l 1,1,-1
 537 762 l 1,2,-1
 171 1043 l 1,3,-1
 202 1332 l 1,4,-1
 788 891 l 1,5,-1
 761 631 l 1,6,-1
 81 191 l 1,0,-1
EndSplineSet
EndChar

StartChar: question
Encoding: 63 63 34
Width: 993
GlyphClass: 2
Flags: W
LayerCount: 2
UndoRedoHistory
Layer: 1
Undoes
EndUndoes
Redoes
EndRedoes
EndUndoRedoHistory
Fore
SplineSet
209 0 m 1,0,-1
 242 312 l 1,1,-1
 563 312 l 1,2,-1
 530 0 l 1,3,-1
 209 0 l 1,0,-1
265 434 m 1,4,-1
 292 698 l 1,5,6
 456 824 456 824 564.5 972.5 c 128,-1,7
 673 1121 673 1121 681 1277 c 0,8,9
 681 1283 681 1283 681 1289 c 0,10,11
 681 1345 681 1345 654 1372 c 0,12,13
 624 1402 624 1402 575 1402 c 0,14,15
 528 1402 528 1402 496.5 1369 c 128,-1,16
 465 1336 465 1336 463 1282 c 1,17,18
 462 1273 462 1273 462 1263 c 0,19,20
 462 1227 462 1227 473 1178 c 1,21,-1
 169 1111 l 1,22,23
 156 1196 156 1196 156 1248 c 0,24,25
 156 1266 156 1266 157 1280 c 1,26,27
 160 1367 160 1367 187 1439 c 128,-1,28
 214 1511 214 1511 266.5 1567 c 128,-1,29
 319 1623 319 1623 403.5 1654 c 128,-1,30
 488 1685 488 1685 598 1685 c 0,31,32
 814 1684 814 1684 920 1574 c 0,33,34
 1008 1482 1008 1482 1008 1328 c 0,35,36
 1008 1297 1008 1297 1005 1264 c 0,37,38
 986 1086 986 1086 866 914 c 128,-1,39
 746 742 746 742 584 634 c 1,40,-1
 563 434 l 1,41,-1
 265 434 l 1,4,-1
EndSplineSet
EndChar

StartChar: at
Encoding: 64 64 35
Width: 1947
GlyphClass: 2
Flags: W
LayerCount: 2
UndoRedoHistory
Layer: 1
Undoes
EndUndoes
Redoes
EndRedoes
EndUndoRedoHistory
Fore
SplineSet
967 438 m 1,0,1
 1057 452 1057 452 1083 508 c 1,2,-1
 1196 987 l 1,3,4
 1197 1000 1197 1000 1178.5 1007 c 128,-1,5
 1160 1014 1160 1014 1143 1014 c 0,6,7
 1066 1014 1066 1014 1000.5 954.5 c 128,-1,8
 935 895 935 895 898 810 c 128,-1,9
 861 725 861 725 851 633 c 0,10,11
 848 610 848 610 848 588 c 0,12,13
 848 530 848 530 868 489 c 0,14,15
 893 438 893 438 956 438 c 0,16,17
 961 438 961 438 967 438 c 1,0,1
891 -263 m 0,18,19
 439 -263 439 -263 243 -7 c 0,20,21
 111 165 111 165 111 427 c 0,22,23
 111 554 111 554 142 701 c 1,24,25
 198 992 198 992 345 1207 c 128,-1,26
 492 1422 492 1422 721.5 1540.5 c 128,-1,27
 951 1659 951 1659 1237 1659 c 0,28,29
 1377 1659 1377 1659 1491.5 1628.5 c 128,-1,30
 1606 1598 1606 1598 1686.5 1542.5 c 128,-1,31
 1767 1487 1767 1487 1824 1408.5 c 128,-1,32
 1881 1330 1881 1330 1906 1233.5 c 0,33,34
 1930 1138 1930 1138 1934 1026 c 0,35,36
 1934 1013 1934 1013 1935 999 c 0,37,38
 1935 900 1935 900 1912 793 c 1,39,40
 1898 712 1898 712 1867.5 631.5 c 128,-1,41
 1837 551 1837 551 1786 472.5 c 128,-1,42
 1735 394 1735 394 1671 334.5 c 128,-1,43
 1607 275 1607 275 1517.5 238 c 128,-1,44
 1428 201 1428 201 1328 201 c 0,45,46
 1236 201 1236 201 1166.5 241 c 128,-1,47
 1097 281 1097 281 1082 356 c 1,48,49
 1052 299 1052 299 996.5 261 c 128,-1,50
 941 223 941 223 874 217 c 0,51,52
 857 215 857 215 841 215 c 0,53,54
 751 214 751 214 685 262 c 0,55,56
 608 318 608 318 579 416 c 0,57,58
 561 477 561 477 561 548 c 0,59,60
 561 590 561 590 567 635 c 0,61,62
 578 711 578 711 604 792 c 128,-1,63
 630 873 630 873 676.5 956.5 c 128,-1,64
 723 1040 723 1040 782 1105.5 c 128,-1,65
 841 1171 841 1171 924 1212.5 c 128,-1,66
 1007 1254 1007 1254 1100 1254 c 0,67,68
 1132 1254 1132 1254 1155.5 1242.5 c 128,-1,69
 1179 1231 1179 1231 1196 1203.5 c 128,-1,70
 1213 1176 1213 1176 1217.5 1166.5 c 128,-1,71
 1222 1157 1222 1157 1232 1126 c 0,72,73
 1234 1121 1234 1121 1235 1119 c 1,74,-1
 1269 1241 l 1,75,-1
 1529 1241 l 1,76,-1
 1365 561 l 1,77,78
 1345 472 1345 472 1345 432 c 0,79,80
 1345 422 1345 422 1346 415 c 1,81,82
 1352 390 1352 390 1369 385 c 1,83,84
 1382 382 1382 382 1394 382 c 0,85,86
 1472 382 1472 382 1556 487 c 0,87,88
 1654 609 1654 609 1686 789 c 0,89,90
 1707 907 1707 907 1707 1008.5 c 128,-1,91
 1707 1110 1707 1110 1674 1193 c 128,-1,92
 1641 1276 1641 1276 1581 1335 c 128,-1,93
 1521 1394 1521 1394 1422.5 1426 c 128,-1,94
 1324 1458 1324 1458 1193 1458 c 0,95,96
 1056 1458 1056 1458 937 1419.5 c 128,-1,97
 818 1381 818 1381 729 1313 c 128,-1,98
 640 1245 640 1245 569.5 1149.5 c 128,-1,99
 499 1054 499 1054 454 943.5 c 128,-1,100
 409 833 409 833 384 706 c 1,101,102
 353 573 353 573 353 460 c 0,103,104
 352 424 352 424 356 388 c 0,105,106
 370 246 370 246 433.5 147 c 128,-1,107
 497 48 497 48 625.5 -5.5 c 128,-1,108
 754 -59 754 -59 943 -59 c 0,109,110
 1025 -59 1025 -59 1143.5 -40.5 c 128,-1,111
 1262 -22 1262 -22 1353 7 c 1,112,-1
 1369 -197 l 1,113,114
 1091 -263 1091 -263 891 -263 c 0,18,19
EndSplineSet
EndChar

StartChar: A
Encoding: 65 65 36
Width: 1120
GlyphClass: 2
Flags: W
AnchorPoint: "Anchor-0" 880 0 basechar 0
LayerCount: 2
UndoRedoHistory
Layer: 1
Undoes
EndUndoes
Redoes
EndRedoes
EndUndoRedoHistory
Fore
SplineSet
482 572 m 1,0,-1
 664 572 l 1,1,-1
 641 1218 l 1,2,-1
 482 572 l 1,0,-1
-7 0 m 1,3,-1
 483 1658 l 1,4,-1
 887 1658 l 1,5,-1
 1028 0 l 1,6,-1
 695 0 l 1,7,-1
 674 355 l 1,8,-1
 427 355 l 1,9,-1
 333 0 l 1,10,-1
 -7 0 l 1,3,-1
EndSplineSet
EndChar

StartChar: B
Encoding: 66 66 37
Width: 1198
GlyphClass: 2
Flags: W
LayerCount: 2
UndoRedoHistory
Layer: 1
Undoes
EndUndoes
Redoes
EndRedoes
EndUndoRedoHistory
Fore
SplineSet
537 993 m 1,0,-1
 609 993 l 2,1,2
 729 993 729 993 777.5 1046.5 c 128,-1,3
 826 1100 826 1100 839 1218 c 1,4,5
 841 1235 841 1235 841 1251 c 0,6,7
 840 1328 840 1328 798 1368 c 0,8,9
 748 1416 748 1416 637 1416 c 2,10,-1
 581 1416 l 1,11,-1
 537 993 l 1,0,-1
459 252 m 1,12,-1
 538 252 l 2,13,14
 659 252 659 252 713.5 310 c 128,-1,15
 768 368 768 368 782 495 c 1,16,17
 785 530 785 530 785 559 c 0,18,19
 784 651 784 651 752 696 c 0,20,21
 708 755 708 755 585 755 c 2,22,-1
 511 755 l 1,23,-1
 459 252 l 1,12,-1
72 0 m 1,24,-1
 246 1658 l 1,25,-1
 676 1658 l 2,26,27
 769 1658 769 1658 840.5 1648.5 c 128,-1,28
 912 1639 912 1639 979.5 1610.5 c 128,-1,29
 1047 1582 1047 1582 1088 1535.5 c 128,-1,30
 1129 1489 1129 1489 1148 1410 c 0,31,32
 1159 1363 1159 1363 1159 1307 c 0,33,34
 1159 1268 1159 1268 1154 1225 c 0,35,36
 1118 932 1118 932 876 891 c 1,37,38
 1016 871 1016 871 1080 770 c 0,39,40
 1131 689 1131 689 1131 560 c 0,41,42
 1131 527 1131 527 1128 491 c 0,43,44
 1105 241 1105 241 963.5 120.5 c 128,-1,45
 822 0 822 0 579 0 c 2,46,-1
 72 0 l 1,24,-1
EndSplineSet
EndChar

StartChar: C
Encoding: 67 67 38
Width: 1146
GlyphClass: 2
Flags: W
AnchorPoint: "Anchor-1" 480 0 basechar 0
LayerCount: 2
UndoRedoHistory
Layer: 1
Undoes
EndUndoes
Redoes
EndRedoes
EndUndoRedoHistory
Fore
SplineSet
541 -23 m 0,0,1
 430 -23 430 -23 347.5 2.5 c 128,-1,2
 265 28 265 28 214.5 75.5 c 128,-1,3
 164 123 164 123 134.5 191.5 c 0,4,5
 104 260 104 260 100 346 c 0,6,7
 98 374 98 374 99 404 c 0,8,9
 99 465 99 465 105 533 c 1,10,-1
 167 1123 l 2,11,12
 181 1258 181 1258 216.5 1357 c 128,-1,13
 252 1456 252 1456 316 1531 c 128,-1,14
 380 1606 380 1606 481 1643.5 c 128,-1,15
 582 1681 582 1681 721 1681 c 0,16,17
 828 1681 828 1681 907.5 1658.5 c 128,-1,18
 987 1636 987 1636 1036 1594 c 128,-1,19
 1085 1552 1085 1552 1113.5 1493 c 128,-1,20
 1142 1434 1142 1434 1147 1360 c 0,21,22
 1149 1329 1149 1329 1149 1297 c 0,23,24
 1149 1251 1149 1251 1145 1202 c 1,25,-1
 1130 1056 l 1,26,-1
 778 1056 l 1,27,-1
 795 1221 l 2,28,29
 797 1245 797 1245 798 1255 c 128,-1,30
 799 1265 799 1265 800.5 1287 c 128,-1,31
 802 1309 802 1309 801 1319 c 128,-1,32
 800 1329 800 1329 797.5 1347 c 128,-1,33
 795 1365 795 1365 790 1374 c 128,-1,34
 785 1383 785 1383 777 1395 c 128,-1,35
 769 1407 769 1407 757.5 1412.5 c 128,-1,36
 746 1418 746 1418 730 1422 c 128,-1,37
 714 1426 714 1426 694 1426 c 0,38,39
 659 1426 659 1426 633 1413.5 c 128,-1,40
 607 1401 607 1401 591.5 1382.5 c 128,-1,41
 576 1364 576 1364 565.5 1332.5 c 128,-1,42
 555 1301 555 1301 550.5 1275.5 c 128,-1,43
 546 1250 546 1250 542 1210 c 2,44,-1
 462 445 l 1,45,46
 458 408 458 408 458 377 c 0,47,48
 458 321 458 321 472 286 c 0,49,50
 494 232 494 232 569 232 c 0,51,52
 603 232 603 232 628.5 245 c 128,-1,53
 654 258 654 258 668 275 c 128,-1,54
 682 292 682 292 692 325 c 128,-1,55
 702 358 702 358 705.5 381 c 128,-1,56
 709 404 709 404 714 445 c 2,57,-1
 731 615 l 1,58,-1
 1083 615 l 1,59,-1
 1069 473 l 2,60,61
 1057 360 1057 360 1025 274 c 128,-1,62
 993 188 993 188 933 119 c 128,-1,63
 873 50 873 50 774.5 13.5 c 128,-1,64
 676 -23 676 -23 541 -23 c 0,0,1
EndSplineSet
EndChar

StartChar: D
Encoding: 68 68 39
Width: 1189
GlyphClass: 2
Flags: W
LayerCount: 2
UndoRedoHistory
Layer: 1
Undoes
EndUndoes
Redoes
EndRedoes
EndUndoRedoHistory
Fore
SplineSet
72 0 m 1,0,-1
 246 1658 l 1,1,-1
 660 1658 l 2,2,3
 822 1658 822 1658 925.5 1629 c 128,-1,4
 1029 1600 1029 1600 1086 1534.5 c 0,5,6
 1143 1470 1143 1470 1159 1374 c 0,7,8
 1167 1325 1167 1325 1167 1262 c 0,9,10
 1167 1204 1167 1204 1160 1134 c 2,11,-1
 1097 536 l 2,12,13
 1082 391 1082 391 1045.5 293.5 c 128,-1,14
 1009 196 1009 196 938.5 128.5 c 128,-1,15
 868 61 868 61 759.5 30.5 c 128,-1,16
 651 0 651 0 492 0 c 2,17,-1
 72 0 l 1,0,-1
459 250 m 1,18,-1
 518 250 l 2,19,20
 569 250 569 250 603.5 260 c 128,-1,21
 638 270 638 270 659 286 c 128,-1,22
 680 302 680 302 693 335 c 128,-1,23
 706 368 706 368 711.5 399.5 c 128,-1,24
 717 431 717 431 723 487 c 2,25,-1
 797 1190 l 2,26,27
 802 1235 802 1235 802 1270 c 0,28,29
 802 1295 802 1295 800 1315 c 0,30,31
 794 1363 794 1363 756.5 1384.5 c 128,-1,32
 719 1406 719 1406 637 1406 c 2,33,-1
 580 1406 l 1,34,-1
 459 250 l 1,18,-1
EndSplineSet
EndChar

StartChar: E
Encoding: 69 69 40
Width: 911
GlyphClass: 2
Flags: W
AnchorPoint: "Anchor-0" 511 0 basechar 0
LayerCount: 2
UndoRedoHistory
Layer: 1
Undoes
EndUndoes
Redoes
EndRedoes
EndUndoRedoHistory
Fore
SplineSet
72 0 m 1,0,-1
 246 1658 l 1,1,-1
 986 1658 l 1,2,-1
 960 1411 l 1,3,-1
 580 1411 l 1,4,-1
 537 995 l 1,5,-1
 827 995 l 1,6,-1
 801 744 l 1,7,-1
 510 744 l 1,8,-1
 458 244 l 1,9,-1
 842 244 l 1,10,-1
 816 0 l 1,11,-1
 72 0 l 1,0,-1
EndSplineSet
EndChar

StartChar: F
Encoding: 70 70 41
Width: 882
GlyphClass: 2
Flags: W
LayerCount: 2
UndoRedoHistory
Layer: 1
Undoes
EndUndoes
Redoes
EndRedoes
EndUndoRedoHistory
Fore
SplineSet
72 0 m 1,0,-1
 246 1658 l 1,1,-1
 961 1658 l 1,2,-1
 935 1413 l 1,3,-1
 581 1413 l 1,4,-1
 536 989 l 1,5,-1
 839 989 l 1,6,-1
 812 738 l 1,7,-1
 510 738 l 1,8,-1
 432 0 l 1,9,-1
 72 0 l 1,0,-1
EndSplineSet
EndChar

StartChar: G
Encoding: 71 71 42
Width: 1181
GlyphClass: 2
Flags: W
LayerCount: 2
UndoRedoHistory
Layer: 1
Undoes
EndUndoes
Redoes
EndRedoes
EndUndoRedoHistory
Fore
SplineSet
498 -24 m 0,0,1
 373 -24 373 -24 288 17 c 128,-1,2
 203 58 203 58 160.5 133.5 c 128,-1,3
 118 209 118 209 103 315 c 0,4,5
 96 365 96 365 96 420 c 0,6,7
 96 482 96 482 105 551 c 1,8,-1
 163 1101 l 2,9,10
 177 1240 177 1240 213 1343 c 128,-1,11
 249 1446 249 1446 313 1524 c 128,-1,12
 377 1602 377 1602 478.5 1641.5 c 128,-1,13
 580 1681 580 1681 719 1681 c 0,14,15
 853 1681 853 1681 944 1647 c 128,-1,16
 1035 1613 1035 1613 1083 1547.5 c 0,17,18
 1130 1482 1130 1482 1146 1396 c 0,19,20
 1155 1347 1155 1347 1155 1289 c 0,21,22
 1155 1244 1155 1244 1150 1194 c 2,23,-1
 1139 1092 l 1,24,-1
 788 1092 l 1,25,-1
 801 1220 l 2,26,27
 806 1277 806 1277 806 1323 c 128,-1,28
 806 1369 806 1369 779.5 1397.5 c 128,-1,29
 753 1426 753 1426 697 1426 c 0,30,31
 661 1426 661 1426 634 1412.5 c 128,-1,32
 607 1399 607 1399 591.5 1380 c 128,-1,33
 576 1361 576 1361 565 1328.5 c 128,-1,34
 554 1296 554 1296 549.5 1270 c 128,-1,35
 545 1244 545 1244 541 1204 c 2,36,-1
 463 454 l 1,37,38
 460 420 460 420 460 389 c 0,39,40
 460 365 460 365 462 343 c 0,41,42
 466 294 466 294 495.5 263.5 c 128,-1,43
 525 233 525 233 581 233 c 0,44,45
 729 233 729 233 753 463 c 2,46,-1
 772 644 l 1,47,-1
 619 644 l 1,48,-1
 642 860 l 1,49,-1
 1119 860 l 1,50,-1
 1029 0 l 1,51,-1
 791 0 l 1,52,-1
 785 142 l 1,53,54
 694 -24 694 -24 498 -24 c 0,0,1
EndSplineSet
EndChar

StartChar: H
Encoding: 72 72 43
Width: 1230
GlyphClass: 2
Flags: W
LayerCount: 2
UndoRedoHistory
Layer: 1
Undoes
EndUndoes
Redoes
EndRedoes
EndUndoRedoHistory
Fore
SplineSet
72 0 m 1,0,-1
 246 1658 l 1,1,-1
 606 1658 l 1,2,-1
 536 986 l 1,3,-1
 802 986 l 1,4,-1
 872 1658 l 1,5,-1
 1232 1658 l 1,6,-1
 1058 0 l 1,7,-1
 698 0 l 1,8,-1
 775 728 l 1,9,-1
 509 728 l 1,10,-1
 432 0 l 1,11,-1
 72 0 l 1,0,-1
EndSplineSet
EndChar

StartChar: I
Encoding: 73 73 44
Width: 610
GlyphClass: 2
Flags: W
AnchorPoint: "Anchor-0" 220 0 basechar 0
LayerCount: 2
UndoRedoHistory
Layer: 1
Undoes
EndUndoes
Redoes
EndRedoes
EndUndoRedoHistory
Fore
SplineSet
76 0 m 1,0,-1
 250 1658 l 1,1,-1
 609 1658 l 1,2,-1
 435 0 l 1,3,-1
 76 0 l 1,0,-1
EndSplineSet
EndChar

StartChar: J
Encoding: 74 74 45
Width: 710
GlyphClass: 2
Flags: W
AnchorPoint: "Anchor-2" 338 1800 basechar 0
LayerCount: 2
UndoRedoHistory
Layer: 1
Undoes
EndUndoes
Redoes
EndRedoes
EndUndoRedoHistory
Fore
SplineSet
-29 -40 m 1,0,-1
 -3 212 l 1,1,2
 3 212 3 212 10 212 c 0,3,4
 117 212 117 212 160 244 c 0,5,6
 206 278 206 278 217 384 c 2,7,-1
 351 1658 l 1,8,-1
 711 1658 l 1,9,-1
 576 370 l 1,10,11
 563 263 563 263 536.5 190 c 128,-1,12
 510 117 510 117 460.5 63.5 c 128,-1,13
 411 10 411 10 333.5 -15 c 128,-1,14
 256 -40 256 -40 145 -40 c 2,15,-1
 -29 -40 l 1,0,-1
EndSplineSet
EndChar

StartChar: K
Encoding: 75 75 46
Width: 1150
GlyphClass: 2
Flags: W
LayerCount: 2
UndoRedoHistory
Layer: 1
Undoes
EndUndoes
Redoes
EndRedoes
EndUndoRedoHistory
Fore
SplineSet
72 0 m 1,0,-1
 246 1658 l 1,1,-1
 606 1658 l 1,2,-1
 535 980 l 1,3,-1
 891 1658 l 1,4,-1
 1241 1658 l 1,5,-1
 854 910 l 1,6,-1
 1084 0 l 1,7,-1
 717 0 l 1,8,-1
 548 745 l 1,9,-1
 504 683 l 1,10,-1
 432 0 l 1,11,-1
 72 0 l 1,0,-1
EndSplineSet
EndChar

StartChar: L
Encoding: 76 76 47
Width: 894
GlyphClass: 2
Flags: W
LayerCount: 2
UndoRedoHistory
Layer: 1
Undoes
EndUndoes
Redoes
EndRedoes
EndUndoRedoHistory
Fore
SplineSet
72 0 m 1,0,-1
 246 1658 l 1,1,-1
 606 1658 l 1,2,-1
 458 244 l 1,3,-1
 839 244 l 1,4,-1
 813 0 l 1,5,-1
 72 0 l 1,0,-1
EndSplineSet
EndChar

StartChar: M
Encoding: 77 77 48
Width: 1432
GlyphClass: 2
Flags: W
LayerCount: 2
UndoRedoHistory
Layer: 1
Undoes
EndUndoes
Redoes
EndRedoes
EndUndoRedoHistory
Fore
SplineSet
65 0 m 1,0,-1
 266 1658 l 1,1,-1
 651 1658 l 1,2,-1
 736 668 l 1,3,-1
 1042 1658 l 1,4,-1
 1414 1658 l 1,5,-1
 1267 0 l 1,6,-1
 1008 0 l 1,7,-1
 1099 1105 l 1,8,-1
 783 0 l 1,9,-1
 559 0 l 1,10,-1
 468 1111 l 1,11,-1
 327 0 l 1,12,-1
 65 0 l 1,0,-1
EndSplineSet
EndChar

StartChar: N
Encoding: 78 78 49
Width: 1143
GlyphClass: 2
Flags: W
LayerCount: 2
UndoRedoHistory
Layer: 1
Undoes
EndUndoes
Redoes
EndRedoes
EndUndoRedoHistory
Fore
SplineSet
72 0 m 1,0,-1
 246 1658 l 1,1,-1
 499 1658 l 1,2,-1
 761 847 l 1,3,-1
 846 1658 l 1,4,-1
 1145 1658 l 1,5,-1
 971 0 l 1,6,-1
 729 0 l 1,7,-1
 472 871 l 1,8,-1
 380 0 l 1,9,-1
 72 0 l 1,0,-1
EndSplineSet
EndChar

StartChar: O
Encoding: 79 79 50
Width: 1194
GlyphClass: 2
Flags: W
AnchorPoint: "Anchor-0" 581 0 basechar 0
LayerCount: 2
UndoRedoHistory
Layer: 1
Undoes
EndUndoes
Redoes
EndRedoes
EndUndoRedoHistory
Fore
SplineSet
543 -23 m 0,0,1
 406 -23 406 -23 312.5 13.5 c 128,-1,2
 219 50 219 50 169.5 122.5 c 128,-1,3
 120 195 120 195 105 293 c 0,4,5
 97 344 97 344 97 404 c 0,6,7
 97 460 97 460 104 524 c 2,8,-1
 168 1137 l 2,9,10
 196 1407 196 1407 325 1544 c 128,-1,11
 454 1681 454 1681 722 1681 c 0,12,13
 990 1682 990 1682 1092 1544 c 0,14,15
 1171 1437 1171 1437 1170 1250 c 0,16,17
 1170 1197 1170 1197 1164 1137 c 2,18,-1
 1100 524 l 2,19,20
 1072 255 1072 255 941.5 116 c 128,-1,21
 811 -23 811 -23 543 -23 c 0,0,1
570 232 m 0,22,23
 612 232 612 232 641.5 248.5 c 128,-1,24
 671 265 671 265 686.5 297 c 128,-1,25
 702 329 702 329 709.5 360 c 128,-1,26
 717 391 717 391 722 436 c 2,27,-1
 804 1226 l 1,28,29
 807 1268 807 1268 807 1304 c 0,30,31
 807 1312 807 1312 807 1322 c 0,32,33
 806 1366 806 1366 778 1396 c 128,-1,34
 750 1426 750 1426 695 1426 c 0,35,36
 653 1426 653 1426 624 1410 c 128,-1,37
 595 1394 595 1394 580 1362.5 c 128,-1,38
 565 1331 565 1331 558 1301 c 128,-1,39
 551 1271 551 1271 546 1226 c 2,40,-1
 464 436 l 1,41,42
 460 389 460 389 460 348 c 0,43,44
 460 344 460 344 460 338 c 0,45,46
 460 292 460 292 487.5 262 c 128,-1,47
 515 232 515 232 570 232 c 0,22,23
EndSplineSet
EndChar

StartChar: P
Encoding: 80 80 51
Width: 1147
GlyphClass: 2
Flags: W
LayerCount: 2
UndoRedoHistory
Layer: 1
Undoes
EndUndoes
Redoes
EndRedoes
EndUndoRedoHistory
Fore
SplineSet
533 961 m 1,0,-1
 648 961 l 2,1,2
 750 961 750 961 788.5 1011 c 128,-1,3
 827 1061 827 1061 840 1184 c 1,4,5
 844 1229 844 1229 844 1266 c 0,6,7
 844 1284 844 1284 843 1300 c 0,8,9
 840 1350 840 1350 804 1377.5 c 128,-1,10
 768 1405 768 1405 693 1405 c 2,11,-1
 580 1405 l 1,12,-1
 533 961 l 1,0,-1
72 0 m 1,13,-1
 246 1658 l 1,14,-1
 791 1658 l 2,15,16
 1010 1658 1010 1658 1106 1536 c 0,17,18
 1182 1438 1182 1438 1183 1268 c 0,19,20
 1183 1225 1183 1225 1178 1178 c 0,21,22
 1166 1068 1166 1068 1133 985.5 c 128,-1,23
 1100 903 1100 903 1053.5 851 c 128,-1,24
 1007 799 1007 799 941.5 767 c 128,-1,25
 876 735 876 735 806.5 722.5 c 128,-1,26
 737 710 737 710 652 710 c 2,27,-1
 507 710 l 1,28,-1
 432 0 l 1,29,-1
 72 0 l 1,13,-1
EndSplineSet
EndChar

StartChar: Q
Encoding: 81 81 52
Width: 1194
GlyphClass: 2
Flags: W
LayerCount: 2
UndoRedoHistory
Layer: 1
Undoes
EndUndoes
Redoes
EndRedoes
EndUndoRedoHistory
Fore
SplineSet
570 232 m 0,0,1
 612 232 612 232 641.5 248.5 c 128,-1,2
 671 265 671 265 686.5 297 c 128,-1,3
 702 329 702 329 709.5 360 c 128,-1,4
 717 391 717 391 722 436 c 2,5,-1
 804 1226 l 1,6,7
 807 1268 807 1268 807 1304 c 0,8,9
 807 1312 807 1312 807 1322 c 0,10,11
 806 1366 806 1366 778 1396 c 128,-1,12
 750 1426 750 1426 695 1426 c 0,13,14
 653 1426 653 1426 624 1410 c 128,-1,15
 595 1394 595 1394 580 1362.5 c 128,-1,16
 565 1331 565 1331 558 1301 c 128,-1,17
 551 1271 551 1271 546 1226 c 2,18,-1
 464 436 l 1,19,20
 460 389 460 389 460 348 c 0,21,22
 460 344 460 344 460 338 c 0,23,24
 460 292 460 292 487.5 262 c 128,-1,25
 515 232 515 232 570 232 c 0,0,1
875 -342 m 1,26,27
 810 -309 810 -309 719.5 -212.5 c 128,-1,28
 629 -116 629 -116 577 -22 c 1,29,30
 566 -23 566 -23 543 -23 c 0,31,32
 406 -23 406 -23 312.5 13.5 c 128,-1,33
 219 50 219 50 169.5 122.5 c 128,-1,34
 120 195 120 195 105 293 c 0,35,36
 97 344 97 344 97 404 c 0,37,38
 97 460 97 460 104 524 c 2,39,-1
 168 1137 l 2,40,41
 196 1407 196 1407 325 1544 c 128,-1,42
 454 1681 454 1681 722 1681 c 0,43,44
 990 1682 990 1682 1092 1544 c 0,45,46
 1171 1437 1171 1437 1170 1250 c 0,47,48
 1170 1197 1170 1197 1164 1137 c 2,49,-1
 1100 524 l 2,50,51
 1060 150 1060 150 829 35 c 1,52,53
 864 -18 864 -18 923 -80 c 128,-1,54
 982 -142 982 -142 1025 -174 c 1,55,-1
 875 -342 l 1,26,27
EndSplineSet
EndChar

StartChar: R
Encoding: 82 82 53
Width: 1201
GlyphClass: 2
Flags: W
LayerCount: 2
UndoRedoHistory
Layer: 1
Undoes
EndUndoes
Redoes
EndRedoes
EndUndoRedoHistory
Fore
SplineSet
532 953 m 1,0,-1
 623 953 l 2,1,2
 737 953 737 953 790.5 1010.5 c 128,-1,3
 844 1068 844 1068 856 1187 c 1,4,5
 859 1218 859 1218 859 1245 c 0,6,7
 859 1319 859 1319 833 1360 c 0,8,9
 797 1416 797 1416 692 1416 c 2,10,-1
 581 1416 l 1,11,-1
 532 953 l 1,0,-1
72 0 m 1,12,-1
 246 1658 l 1,13,-1
 691 1658 l 2,14,15
 796 1658 796 1658 876 1646 c 128,-1,16
 956 1634 956 1634 1023 1604 c 128,-1,17
 1090 1574 1090 1574 1130.5 1524.5 c 0,18,19
 1171 1474 1171 1474 1189 1398 c 0,20,21
 1200 1351 1200 1351 1200 1293 c 0,22,23
 1200 1258 1200 1258 1196 1219 c 0,24,25
 1180 1062 1180 1062 1119 960 c 128,-1,26
 1058 858 1058 858 936 803 c 1,27,-1
 1101 0 l 1,28,-1
 740 0 l 1,29,-1
 616 743 l 1,30,-1
 510 743 l 1,31,-1
 432 0 l 1,32,-1
 72 0 l 1,12,-1
EndSplineSet
EndChar

StartChar: S
Encoding: 83 83 54
Width: 1042
GlyphClass: 2
Flags: W
AnchorPoint: "Anchor-1" 470 0 basechar 0
LayerCount: 2
UndoRedoHistory
Layer: 1
Undoes
EndUndoes
Redoes
EndRedoes
EndUndoRedoHistory
Fore
SplineSet
504 -23 m 0,0,1
 268 -23 268 -23 166 103 c 0,2,3
 81 209 81 209 81 419 c 0,4,5
 81 458 81 458 84 501 c 1,6,-1
 399 550 l 1,7,8
 394 499 394 499 394 456 c 0,9,10
 394 370 394 370 414 322 c 0,11,12
 442 250 442 250 515 250 c 0,13,14
 612 250 612 250 626 374 c 0,15,16
 628 395 628 395 628 415 c 0,17,18
 628 486 628 486 600 538 c 0,19,20
 564 605 564 605 478 687 c 2,21,-1
 339 820 l 2,22,23
 291 865 291 865 260 903.5 c 128,-1,24
 229 942 229 942 202 993.5 c 0,25,26
 175 1044 175 1044 166 1108 c 0,27,28
 161 1142 161 1142 161 1180 c 0,29,30
 161 1213 161 1213 165 1249 c 0,31,32
 186 1455 186 1455 320.5 1567.5 c 128,-1,33
 455 1680 455 1680 670 1681 c 0,34,35
 743 1681 743 1681 801 1666 c 128,-1,36
 859 1651 859 1651 897.5 1624 c 128,-1,37
 936 1597 936 1597 964.5 1560.5 c 128,-1,38
 993 1524 993 1524 1007 1481.5 c 128,-1,39
 1021 1439 1021 1439 1030 1393 c 0,40,41
 1038 1354 1038 1354 1038 1315 c 0,42,43
 1038 1308 1038 1308 1038 1302 c 0,44,45
 1036 1256 1036 1256 1035 1212 c 1,46,-1
 719 1170 l 1,47,48
 725 1239 725 1239 725 1292 c 0,49,50
 724 1296 724 1296 724 1300 c 0,51,52
 724 1356 724 1356 702 1388 c 0,53,54
 681 1418 681 1418 638 1417 c 0,55,56
 635 1417 635 1417 632 1417 c 0,57,58
 582 1415 582 1415 551 1375.5 c 128,-1,59
 520 1336 520 1336 514 1285 c 0,60,61
 512 1270 512 1270 512 1255 c 0,62,63
 512 1233 512 1233 516 1213 c 0,64,65
 522 1179 522 1179 531.5 1155.5 c 128,-1,66
 541 1132 541 1132 563 1104 c 128,-1,67
 585 1076 585 1076 599 1061 c 128,-1,68
 613 1046 613 1046 642 1018 c 2,69,-1
 777 888 l 2,70,71
 830 837 830 837 866.5 789 c 128,-1,72
 903 741 903 741 934 680.5 c 128,-1,73
 965 620 965 620 977 548 c 0,74,75
 984 507 984 507 984 462 c 0,76,77
 984 429 984 429 980 393 c 0,78,79
 961 212 961 212 829.5 94.5 c 128,-1,80
 698 -23 698 -23 504 -23 c 0,0,1
EndSplineSet
EndChar

StartChar: T
Encoding: 84 84 55
Width: 909
GlyphClass: 2
Flags: W
AnchorPoint: "Anchor-1" 380 0 basechar 0
LayerCount: 2
UndoRedoHistory
Layer: 1
Undoes
EndUndoes
Redoes
EndRedoes
EndUndoRedoHistory
Fore
SplineSet
226 0 m 1,0,-1
 372 1392 l 1,1,-1
 115 1392 l 1,2,-1
 143 1658 l 1,3,-1
 1015 1658 l 1,4,-1
 987 1392 l 1,5,-1
 733 1392 l 1,6,-1
 586 0 l 1,7,-1
 226 0 l 1,0,-1
EndSplineSet
EndChar

StartChar: U
Encoding: 85 85 56
Width: 1197
GlyphClass: 2
Flags: W
AnchorPoint: "Anchor-0" 631 0 basechar 0
LayerCount: 2
UndoRedoHistory
Layer: 1
Undoes
EndUndoes
Redoes
EndRedoes
EndUndoRedoHistory
Fore
SplineSet
546 -23 m 128,-1,1
 405 -23 405 -23 313 13 c 128,-1,2
 221 49 221 49 174.5 118.5 c 128,-1,3
 128 188 128 188 114 290 c 0,4,5
 107 338 107 338 107 393 c 0,6,7
 107 455 107 455 116 525 c 1,8,-1
 235 1658 l 1,9,-1
 590 1658 l 1,10,-1
 466 474 l 1,11,12
 460 439 460 439 460 404 c 0,13,14
 460 397 460 397 460 389 c 0,15,16
 462 347 462 347 470 313.5 c 128,-1,17
 478 280 478 280 504 259.5 c 128,-1,18
 530 239 530 239 574 239 c 0,19,20
 609 239 609 239 635.5 253 c 128,-1,21
 662 267 662 267 678 288 c 128,-1,22
 694 309 694 309 705 342.5 c 128,-1,23
 716 376 716 376 721 405 c 128,-1,24
 726 434 726 434 730 474 c 2,25,-1
 854 1658 l 1,26,-1
 1210 1658 l 1,27,-1
 1091 525 l 2,28,29
 1077 387 1077 387 1044 289.5 c 128,-1,30
 1011 192 1011 192 948.5 119.5 c 128,-1,31
 886 47 886 47 786.5 12 c 128,-1,0
 687 -23 687 -23 546 -23 c 128,-1,1
EndSplineSet
EndChar

StartChar: V
Encoding: 86 86 57
Width: 1068
GlyphClass: 2
Flags: W
LayerCount: 2
UndoRedoHistory
Layer: 1
Undoes
EndUndoes
Redoes
EndRedoes
EndUndoRedoHistory
Fore
SplineSet
296 0 m 1,0,-1
 166 1658 l 1,1,-1
 475 1658 l 1,2,-1
 539 536 l 1,3,-1
 826 1658 l 1,4,-1
 1152 1658 l 1,5,-1
 671 0 l 1,6,-1
 296 0 l 1,0,-1
EndSplineSet
EndChar

StartChar: W
Encoding: 87 87 58
Width: 1435
GlyphClass: 2
Flags: W
LayerCount: 2
UndoRedoHistory
Layer: 1
Undoes
EndUndoes
Redoes
EndRedoes
EndUndoRedoHistory
Fore
SplineSet
211 0 m 1,0,-1
 182 1658 l 1,1,-1
 487 1658 l 1,2,-1
 487 684 l 1,3,-1
 720 1658 l 1,4,-1
 959 1658 l 1,5,-1
 995 689 l 1,6,-1
 1200 1658 l 1,7,-1
 1501 1658 l 1,8,-1
 1123 0 l 1,9,-1
 812 0 l 1,10,-1
 772 1011 l 1,11,-1
 526 0 l 1,12,-1
 211 0 l 1,0,-1
EndSplineSet
EndChar

StartChar: X
Encoding: 88 88 59
Width: 1048
GlyphClass: 2
Flags: W
LayerCount: 2
UndoRedoHistory
Layer: 1
Undoes
EndUndoes
Redoes
EndRedoes
EndUndoRedoHistory
Fore
SplineSet
-36 0 m 1,0,-1
 382 892 l 1,1,-1
 152 1658 l 1,2,-1
 493 1658 l 1,3,-1
 630 1203 l 1,4,-1
 827 1658 l 1,5,-1
 1131 1658 l 1,6,-1
 747 802 l 1,7,-1
 987 0 l 1,8,-1
 650 0 l 1,9,-1
 499 500 l 1,10,-1
 265 0 l 1,11,-1
 -36 0 l 1,0,-1
EndSplineSet
EndChar

StartChar: Y
Encoding: 89 89 60
AltUni2: 0004ae.ffffffff.0
Width: 1008
GlyphClass: 2
Flags: W
LayerCount: 2
UndoRedoHistory
Layer: 1
Undoes
EndUndoes
Redoes
EndRedoes
EndUndoRedoHistory
Fore
SplineSet
284 0 m 1,0,-1
 355 673 l 1,1,-1
 141 1658 l 1,2,-1
 479 1658 l 1,3,-1
 586 1119 l 1,4,-1
 790 1658 l 1,5,-1
 1118 1658 l 1,6,-1
 700 673 l 1,7,-1
 630 0 l 1,8,-1
 284 0 l 1,0,-1
EndSplineSet
EndChar

StartChar: Z
Encoding: 90 90 61
Width: 885
GlyphClass: 2
Flags: W
LayerCount: 2
UndoRedoHistory
Layer: 1
Undoes
EndUndoes
Redoes
EndRedoes
EndUndoRedoHistory
Fore
SplineSet
17 0 m 1,0,-1
 40 219 l 1,1,-1
 572 1413 l 1,2,-1
 182 1413 l 1,3,-1
 208 1658 l 1,4,-1
 954 1658 l 1,5,-1
 934 1461 l 1,6,-1
 388 244 l 1,7,-1
 809 244 l 1,8,-1
 784 0 l 1,9,-1
 17 0 l 1,0,-1
EndSplineSet
EndChar

StartChar: bracketleft
Encoding: 91 91 62
Width: 687
GlyphClass: 2
Flags: W
LayerCount: 2
UndoRedoHistory
Layer: 1
Undoes
EndUndoes
Redoes
EndRedoes
EndUndoRedoHistory
Fore
SplineSet
17 -382 m 1,0,-1
 232 1658 l 1,1,-1
 746 1658 l 1,2,-1
 733 1529 l 1,3,-1
 480 1529 l 1,4,-1
 291 -252 l 1,5,-1
 544 -252 l 1,6,-1
 531 -382 l 1,7,-1
 17 -382 l 1,0,-1
EndSplineSet
EndChar

StartChar: backslash
Encoding: 92 92 63
Width: 859
GlyphClass: 2
Flags: W
LayerCount: 2
UndoRedoHistory
Layer: 1
Undoes
EndUndoes
Redoes
EndRedoes
EndUndoRedoHistory
Fore
SplineSet
538 0 m 1,0,-1
 211 1658 l 1,1,-1
 395 1658 l 1,2,-1
 722 0 l 1,3,-1
 538 0 l 1,0,-1
EndSplineSet
EndChar

StartChar: bracketright
Encoding: 93 93 64
Width: 665
GlyphClass: 2
Flags: W
LayerCount: 2
UndoRedoHistory
Layer: 1
Undoes
EndUndoes
Redoes
EndRedoes
EndUndoRedoHistory
Fore
SplineSet
-47 -382 m 1,0,-1
 -33 -253 l 1,1,-1
 220 -253 l 1,2,-1
 406 1528 l 1,3,-1
 153 1528 l 1,4,-1
 166 1658 l 1,5,-1
 680 1658 l 1,6,-1
 467 -382 l 1,7,-1
 -47 -382 l 1,0,-1
EndSplineSet
EndChar

StartChar: asciicircum
Encoding: 94 94 65
Width: 976
GlyphClass: 2
Flags: W
LayerCount: 2
UndoRedoHistory
Layer: 1
Undoes
EndUndoes
Redoes
EndRedoes
EndUndoRedoHistory
Fore
SplineSet
114 972 m 1,0,-1
 479 1658 l 1,1,-1
 744 1658 l 1,2,-1
 965 972 l 1,3,-1
 684 972 l 1,4,-1
 582 1379 l 1,5,-1
 394 972 l 1,6,-1
 114 972 l 1,0,-1
EndSplineSet
EndChar

StartChar: underscore
Encoding: 95 95 66
Width: 750
GlyphClass: 2
Flags: W
LayerCount: 2
UndoRedoHistory
Layer: 1
Undoes
EndUndoes
Redoes
EndRedoes
EndUndoRedoHistory
Fore
SplineSet
-85 -339 m 1,0,-1
 -63 -117 l 1,1,-1
 688 -117 l 1,2,-1
 665 -339 l 1,3,-1
 -85 -339 l 1,0,-1
EndSplineSet
EndChar

StartChar: grave
Encoding: 96 96 67
Width: 631
GlyphClass: 2
Flags: W
LayerCount: 2
UndoRedoHistory
Layer: 1
Undoes
EndUndoes
Redoes
EndRedoes
EndUndoRedoHistory
Fore
SplineSet
425 1246 m 1,0,-1
 210 1658 l 1,1,-1
 547 1658 l 1,2,-1
 628 1246 l 1,3,-1
 425 1246 l 1,0,-1
EndSplineSet
EndChar

StartChar: a
Encoding: 97 97 68
Width: 971
GlyphClass: 2
Flags: W
AnchorPoint: "Anchor-0" 714 0 basechar 0
LayerCount: 2
UndoRedoHistory
Layer: 1
Undoes
EndUndoes
Redoes
EndRedoes
EndUndoRedoHistory
Fore
SplineSet
438 208 m 0,0,1
 489 208 489 208 537 266 c 1,2,-1
 571 589 l 1,3,4
 488 549 488 549 427.5 477 c 128,-1,5
 367 405 367 405 359 335 c 0,6,7
 358 323 358 323 358 312 c 0,8,9
 358 270 358 270 376 242 c 0,10,11
 398 208 398 208 438 208 c 0,0,1
295 -20 m 1,12,13
 211 -19 211 -19 151.5 24.5 c 128,-1,14
 92 68 92 68 68 132 c 0,15,16
 49 182 49 182 49 236 c 0,17,18
 49 252 49 252 51 268 c 0,19,20
 57 326 57 326 77 376.5 c 128,-1,21
 97 427 97 427 121 464 c 128,-1,22
 145 501 145 501 186 536 c 128,-1,23
 227 571 227 571 258.5 592 c 128,-1,24
 290 613 290 613 343 638 c 128,-1,25
 396 663 396 663 425.5 674.5 c 128,-1,26
 455 686 455 686 511 706.5 c 128,-1,27
 567 727 567 727 587 735 c 1,28,-1
 599 851 l 2,29,30
 600 867 600 867 600 880 c 0,31,32
 600 912 600 912 592 932 c 0,33,34
 580 960 580 960 539 960 c 0,35,36
 468 960 468 960 453 862 c 1,37,-1
 437 776 l 1,38,-1
 130 789 l 1,39,40
 130 792 130 792 133 809 c 128,-1,41
 136 826 136 826 137 828 c 0,42,43
 172 1021 172 1021 286 1112.5 c 128,-1,44
 400 1204 400 1204 595 1204 c 0,45,46
 770 1204 770 1204 850 1107 c 0,47,48
 916 1027 916 1027 917 902 c 0,49,50
 917 876 917 876 914 847 c 2,51,-1
 856 297 l 2,52,53
 845 195 845 195 845 63 c 0,54,55
 845 32 845 32 846 0 c 1,56,-1
 554 0 l 1,57,58
 543 141 543 141 543 168 c 1,59,60
 511 87 511 87 447 33.5 c 128,-1,61
 383 -20 383 -20 295 -20 c 1,12,13
EndSplineSet
EndChar

StartChar: b
Encoding: 98 98 69
Width: 1031
GlyphClass: 2
Flags: W
LayerCount: 2
UndoRedoHistory
Layer: 1
Undoes
EndUndoes
Redoes
EndRedoes
EndUndoRedoHistory
Fore
SplineSet
501 195 m 0,0,1
 502 195 502 195 503 195 c 0,2,3
 546 195 546 195 570 234 c 0,4,5
 594 274 594 274 600 339 c 2,6,-1
 656 873 l 1,7,8
 658 889 658 889 658 904 c 0,9,10
 658 942 658 942 646 968 c 0,11,12
 630 1003 630 1003 590 1002 c 0,13,14
 587 1002 587 1002 583 1002 c 0,15,16
 541 999 541 999 485 962 c 1,17,-1
 408 226 l 1,18,19
 452 196 452 196 501 195 c 0,0,1
630 -20 m 0,20,21
 507 -20 507 -20 393 89 c 1,22,-1
 384 0 l 1,23,-1
 56 0 l 1,24,-1
 230 1658 l 1,25,-1
 558 1658 l 1,26,-1
 500 1096 l 1,27,28
 630 1204 630 1204 756 1204 c 0,29,30
 762 1204 762 1204 767 1204 c 1,31,32
 855 1202 855 1202 908 1149.5 c 128,-1,33
 961 1097 961 1097 977 1021 c 0,34,35
 987 974 987 974 987 920 c 0,36,37
 987 886 987 886 983 849 c 2,38,-1
 931 355 l 2,39,40
 913 185 913 185 835 82.5 c 128,-1,41
 757 -20 757 -20 630 -20 c 0,20,21
EndSplineSet
EndChar

StartChar: c
Encoding: 99 99 70
Width: 953
GlyphClass: 2
Flags: W
AnchorPoint: "Anchor-1" 380 0 basechar 0
LayerCount: 2
UndoRedoHistory
Layer: 1
Undoes
EndUndoes
Redoes
EndRedoes
EndUndoRedoHistory
Fore
SplineSet
435 -20 m 0,0,1
 240 -20 240 -20 146 86 c 0,2,3
 69 173 69 173 68 318 c 0,4,5
 68 349 68 349 72 383 c 2,6,-1
 116 802 l 2,7,8
 136 993 136 993 252 1098.5 c 128,-1,9
 368 1204 368 1204 564 1204 c 0,10,11
 755 1204 755 1204 847 1114 c 0,12,13
 924 1039 924 1039 924 903 c 0,14,15
 924 876 924 876 921 847 c 2,16,-1
 908 724 l 1,17,-1
 592 724 l 1,18,-1
 606 855 l 2,19,20
 608 876 608 876 608 894 c 0,21,22
 608 934 608 934 597 952 c 0,23,24
 581 978 581 978 541 978 c 0,25,26
 500 978 500 978 478.5 946 c 128,-1,27
 457 914 457 914 448 833 c 2,28,-1
 398 349 l 2,29,30
 395 320 395 320 395 298 c 0,31,32
 395 258 395 258 405 238 c 0,33,34
 421 208 421 208 460 208 c 0,35,36
 501 208 501 208 522.5 235.5 c 128,-1,37
 544 263 544 263 551 327 c 2,38,-1
 563 427 l 1,39,-1
 878 427 l 1,40,-1
 868 340 l 1,41,42
 849 163 849 163 737 71.5 c 128,-1,43
 625 -20 625 -20 435 -20 c 0,0,1
EndSplineSet
EndChar

StartChar: d
Encoding: 100 100 71
Width: 1025
GlyphClass: 2
Flags: W
LayerCount: 2
UndoRedoHistory
Layer: 1
Undoes
EndUndoes
Redoes
EndRedoes
EndUndoRedoHistory
Fore
SplineSet
473 193 m 0,0,1
 513 193 513 193 565 222 c 1,2,-1
 644 969 l 1,3,4
 599 995 599 995 559 995 c 0,5,6
 472 995 472 995 457 862 c 1,7,-1
 402 332 l 2,8,9
 400 313 400 313 400 296 c 0,10,11
 400 258 400 258 411 232 c 0,12,13
 427 194 427 194 473 193 c 0,0,1
312 -20 m 0,14,15
 311 -20 311 -20 309 -20 c 0,16,17
 175 -20 175 -20 115 73 c 0,18,19
 69 144 69 144 69 267 c 0,20,21
 69 308 69 308 74 354 c 2,22,-1
 123 821 l 2,23,24
 141 994 141 994 222 1099 c 128,-1,25
 303 1204 303 1204 440 1204 c 0,26,27
 561 1204 561 1204 659 1111 c 1,28,-1
 716 1658 l 1,29,-1
 1044 1658 l 1,30,-1
 870 0 l 1,31,-1
 542 0 l 1,32,-1
 551 89 l 1,33,34
 430 -20 430 -20 312 -20 c 0,14,15
EndSplineSet
EndChar

StartChar: e
Encoding: 101 101 72
Width: 957
GlyphClass: 2
Flags: W
AnchorPoint: "Anchor-0" 518 0 basechar 0
LayerCount: 2
UndoRedoHistory
Layer: 1
Undoes
EndUndoes
Redoes
EndRedoes
EndUndoRedoHistory
Fore
SplineSet
433 726 m 1,0,-1
 601 726 l 1,1,-1
 613 844 l 2,2,3
 615 862 615 862 615 878 c 0,4,5
 615 920 615 920 601 941 c 0,6,7
 582 970 582 970 539 970 c 0,8,9
 498 970 498 970 475 936.5 c 128,-1,10
 452 903 452 903 443 822 c 2,11,-1
 433 726 l 1,0,-1
437 -20 m 0,12,13
 240 -20 240 -20 146 86 c 0,14,15
 68 173 68 173 69 319 c 0,16,17
 69 350 69 350 72 384 c 2,18,-1
 115 799 l 2,19,20
 136 993 136 993 253 1098.5 c 128,-1,21
 370 1204 370 1204 565 1204 c 0,22,23
 918 1204 918 1204 918 873 c 0,24,25
 918 837 918 837 914 797 c 1,26,-1
 889 571 l 1,27,-1
 417 571 l 1,28,-1
 395 367 l 1,29,30
 393 342 393 342 393 320 c 0,31,32
 393 278 393 278 402 252 c 0,33,34
 416 214 416 214 461 214 c 0,35,36
 546 214 546 214 560 334 c 1,37,-1
 568 411 l 1,38,-1
 873 411 l 1,39,-1
 865 344 l 2,40,41
 844 167 844 167 733.5 73.5 c 128,-1,42
 623 -20 623 -20 437 -20 c 0,12,13
EndSplineSet
EndChar

StartChar: f
Encoding: 102 102 73
Width: 653
GlyphClass: 2
Flags: W
LayerCount: 2
UndoRedoHistory
Layer: 1
Undoes
EndUndoes
Redoes
EndRedoes
EndUndoRedoHistory
Fore
SplineSet
100 0 m 1,0,-1
 201 960 l 1,1,-1
 86 960 l 1,2,-1
 109 1184 l 1,3,-1
 224 1184 l 1,4,-1
 233 1265 l 2,5,6
 239 1323 239 1323 247.5 1365 c 128,-1,7
 256 1407 256 1407 272 1449.5 c 128,-1,8
 288 1492 288 1492 314 1520.5 c 128,-1,9
 340 1549 340 1549 377 1571.5 c 128,-1,10
 414 1594 414 1594 468 1605 c 128,-1,11
 522 1616 522 1616 592 1616 c 128,-1,12
 662 1616 662 1616 749 1606 c 1,13,-1
 723 1362 l 1,14,15
 666 1371 666 1371 653 1371 c 0,16,17
 572 1371 572 1371 562 1276 c 2,18,-1
 552 1184 l 1,19,-1
 704 1184 l 1,20,-1
 681 960 l 1,21,-1
 529 960 l 1,22,-1
 428 0 l 1,23,-1
 100 0 l 1,0,-1
EndSplineSet
EndChar

StartChar: g
Encoding: 103 103 74
Width: 1015
GlyphClass: 2
Flags: W
LayerCount: 2
UndoRedoHistory
Layer: 1
Undoes
EndUndoes
Redoes
EndRedoes
EndUndoRedoHistory
Fore
SplineSet
510 564 m 0,0,1
 569 564 569 564 591.5 611.5 c 128,-1,2
 614 659 614 659 628 783 c 1,3,4
 636 848 636 848 636 893 c 0,5,6
 636 930 636 930 630 954 c 0,7,8
 618 1006 618 1006 557 1006 c 0,9,10
 535 1006 535 1006 519 1000.5 c 128,-1,11
 503 995 503 995 491.5 980 c 128,-1,12
 480 965 480 965 472.5 950 c 128,-1,13
 465 935 465 935 459.5 905 c 128,-1,14
 454 875 454 875 450.5 851 c 128,-1,15
 447 827 447 827 443 783 c 1,16,17
 434 725 434 725 434 682 c 0,18,19
 434 647 434 647 440 621 c 0,20,21
 453 564 453 564 510 564 c 0,0,1
481 -148 m 0,22,23
 563 -148 563 -148 603 -130.5 c 128,-1,24
 643 -113 643 -113 650 -72 c 1,25,26
 654 -55 654 -55 654 -42 c 0,27,28
 654 -12 654 -12 636 4 c 0,29,30
 610 28 610 28 537 36 c 2,31,-1
 360 57 l 1,32,33
 303 -15 303 -15 299 -61 c 1,34,35
 298 -66 298 -66 298 -71 c 0,36,37
 298 -109 298 -109 334 -127 c 0,38,39
 374 -148 374 -148 481 -148 c 0,22,23
459 -355 m 0,40,41
 410 -355 410 -355 371 -353.5 c 128,-1,42
 332 -352 332 -352 279 -347 c 128,-1,43
 226 -342 226 -342 186 -333 c 128,-1,44
 146 -324 146 -324 104.5 -307.5 c 128,-1,45
 63 -291 63 -291 37 -268 c 0,46,47
 10 -244 10 -244 -4 -210 c 0,48,49
 -15 -183 -15 -183 -15 -151 c 0,50,51
 -15 -142 -15 -142 -14 -133 c 0,52,53
 0 -10 0 -10 180 103 c 1,54,55
 110 131 110 131 80 163 c 128,-1,56
 50 195 50 195 48 237 c 0,57,58
 48 243 48 243 48 249 c 0,59,60
 48 310 48 310 86 356 c 0,61,62
 128 408 128 408 216 471 c 1,63,64
 158 517 158 517 132 587 c 0,65,66
 114 636 114 636 115 705 c 0,67,68
 115 735 115 735 118 769 c 0,69,70
 141 989 141 989 259 1096.5 c 128,-1,71
 377 1204 377 1204 572 1204 c 0,72,73
 759 1204 759 1204 829 1100 c 1,74,75
 915 1188 915 1188 1003 1231 c 2,76,-1
 1049 1253 l 1,77,-1
 1107 1090 l 1,78,79
 1076 1081 1076 1081 1007 1052 c 128,-1,80
 938 1023 938 1023 899 1001 c 1,81,82
 936 934 936 934 936 832 c 0,83,84
 936 802 936 802 933 770 c 1,85,86
 913 578 913 578 807 471.5 c 128,-1,87
 701 365 701 365 506 365 c 0,88,89
 460 365 460 365 406.5 375 c 128,-1,90
 353 385 353 385 324 399 c 1,91,92
 280 349 280 349 280 319 c 0,93,94
 280 287 280 287 385 272 c 0,95,96
 409 268 409 268 502 256.5 c 128,-1,97
 595 245 595 245 634 239 c 0,98,99
 801 218 801 218 863 150 c 0,100,101
 914 94 914 94 914 -3 c 0,102,103
 914 -23 914 -23 912 -46 c 0,104,105
 896 -195 896 -195 791.5 -275 c 128,-1,106
 687 -355 687 -355 459 -355 c 0,40,41
EndSplineSet
EndChar

StartChar: h
Encoding: 104 104 75
Width: 1036
GlyphClass: 2
Flags: W
LayerCount: 2
UndoRedoHistory
Layer: 1
Undoes
EndUndoes
Redoes
EndRedoes
EndUndoRedoHistory
Fore
SplineSet
56 0 m 1,0,-1
 230 1658 l 1,1,-1
 559 1658 l 1,2,-1
 498 1078 l 1,3,4
 642 1204 642 1204 801 1204 c 0,5,6
 904 1204 904 1204 952 1127 c 0,7,8
 989 1067 989 1067 990 980 c 0,9,10
 990 956 990 956 987 931 c 2,11,-1
 890 0 l 1,12,-1
 561 0 l 1,13,-1
 653 880 l 2,14,15
 654 894 654 894 654 905 c 0,16,17
 654 932 654 932 646 948 c 0,18,19
 634 970 634 970 596 969 c 0,20,21
 550 968 550 968 482 925 c 1,22,-1
 385 0 l 1,23,-1
 56 0 l 1,0,-1
EndSplineSet
EndChar

StartChar: i
Encoding: 105 105 76
Width: 541
GlyphClass: 2
Flags: W
AnchorPoint: "Anchor-0" 196 0 basechar 0
LayerCount: 2
UndoRedoHistory
Layer: 1
Undoes
EndUndoes
Redoes
EndRedoes
EndUndoRedoHistory
Fore
SplineSet
201 1382 m 1,0,-1
 226 1617 l 1,1,-1
 557 1617 l 1,2,-1
 532 1382 l 1,3,-1
 201 1382 l 1,0,-1
58 0 m 1,4,-1
 182 1184 l 1,5,-1
 510 1184 l 1,6,-1
 386 0 l 1,7,-1
 58 0 l 1,4,-1
EndSplineSet
EndChar

StartChar: j
Encoding: 106 106 77
Width: 560
GlyphClass: 2
Flags: W
LayerCount: 2
UndoRedoHistory
Layer: 1
Undoes
EndUndoes
Redoes
EndRedoes
EndUndoRedoHistory
Fore
SplineSet
225 1382 m 1,0,-1
 250 1617 l 1,1,-1
 580 1617 l 1,2,-1
 555 1382 l 1,3,-1
 225 1382 l 1,0,-1
-105 -336 m 1,4,-1
 -81 -100 l 1,5,6
 -45 -108 -45 -108 -22 -108 c 0,7,8
 70 -108 70 -108 80 -7 c 2,9,-1
 205 1184 l 1,10,-1
 534 1184 l 1,11,-1
 405 -46 l 2,12,13
 390 -190 390 -190 301.5 -276 c 128,-1,14
 213 -362 213 -362 66 -362 c 0,15,16
 -17 -362 -17 -362 -105 -336 c 1,4,-1
EndSplineSet
EndChar

StartChar: k
Encoding: 107 107 78
Width: 1093
GlyphClass: 2
Flags: W
LayerCount: 2
UndoRedoHistory
Layer: 1
Undoes
EndUndoes
Redoes
EndRedoes
EndUndoRedoHistory
Fore
SplineSet
56 1 m 1,0,-1
 230 1659 l 1,1,-1
 556 1659 l 1,2,-1
 459 737 l 1,3,-1
 793 1184 l 1,4,-1
 1161 1184 l 1,5,-1
 801 700 l 1,6,-1
 1034 0 l 1,7,-1
 676 0 l 1,8,-1
 529 564 l 1,9,-1
 429 451 l 1,10,-1
 382 1 l 1,11,-1
 56 1 l 1,0,-1
EndSplineSet
EndChar

StartChar: l
Encoding: 108 108 79
Width: 557
GlyphClass: 2
Flags: W
LayerCount: 2
UndoRedoHistory
Layer: 1
Undoes
EndUndoes
Redoes
EndRedoes
EndUndoRedoHistory
Fore
SplineSet
68 0 m 1,0,-1
 242 1658 l 1,1,-1
 571 1658 l 1,2,-1
 397 0 l 1,3,-1
 68 0 l 1,0,-1
EndSplineSet
EndChar

StartChar: m
Encoding: 109 109 80
Width: 1525
GlyphClass: 2
Flags: W
LayerCount: 2
UndoRedoHistory
Layer: 1
Undoes
EndUndoes
Redoes
EndRedoes
EndUndoRedoHistory
Fore
SplineSet
55 0 m 1,0,-1
 179 1184 l 1,1,-1
 506 1184 l 1,2,-1
 496 1087 l 1,3,4
 633 1204 633 1204 793 1204 c 0,5,6
 933 1204 933 1204 970 1065 c 1,7,8
 1118 1204 1118 1204 1290 1204 c 0,9,10
 1394 1204 1394 1204 1442 1128 c 0,11,12
 1479 1068 1479 1068 1479 981 c 0,13,14
 1479 957 1479 957 1476 931 c 2,15,-1
 1378 0 l 1,16,-1
 1051 0 l 1,17,-1
 1143 880 l 2,18,19
 1144 892 1144 892 1144 903 c 0,20,21
 1144 932 1144 932 1135 948 c 0,22,23
 1122 970 1122 970 1084 969 c 0,24,25
 1037 967 1037 967 978 932 c 0,26,27
 978 931 978 931 978 927 c 2,28,-1
 977 923 l 1,29,-1
 880 0 l 1,30,-1
 555 0 l 1,31,-1
 647 880 l 2,32,33
 648 892 648 892 648 903 c 0,34,35
 648 932 648 932 639 948 c 0,36,37
 626 970 626 970 587 969 c 0,38,39
 542 967 542 967 480 931 c 1,40,-1
 382 0 l 1,41,-1
 55 0 l 1,0,-1
EndSplineSet
EndChar

StartChar: n
Encoding: 110 110 81
Width: 1032
GlyphClass: 2
Flags: W
LayerCount: 2
UndoRedoHistory
Layer: 1
Undoes
EndUndoes
Redoes
EndRedoes
EndUndoRedoHistory
Fore
SplineSet
55 0 m 1,0,-1
 179 1184 l 1,1,-1
 507 1184 l 1,2,-1
 495 1066 l 1,3,4
 651 1204 651 1204 797 1204 c 0,5,6
 867 1204 867 1204 913 1166.5 c 0,7,8
 960 1128 960 1128 976 1068 c 0,9,10
 987 1029 987 1029 986 983 c 0,11,12
 986 958 986 958 983 931 c 2,13,-1
 885 0 l 1,14,-1
 557 0 l 1,15,-1
 649 880 l 2,16,17
 650 893 650 893 650 905 c 0,18,19
 650 932 650 932 642 948 c 0,20,21
 630 970 630 970 592 969 c 0,22,23
 547 967 547 967 480 927 c 1,24,-1
 383 0 l 1,25,-1
 55 0 l 1,0,-1
EndSplineSet
EndChar

StartChar: o
Encoding: 111 111 82
Width: 983
GlyphClass: 2
Flags: W
AnchorPoint: "Anchor-0" 421 0 basechar 0
LayerCount: 2
UndoRedoHistory
Layer: 1
Undoes
EndUndoes
Redoes
EndRedoes
EndUndoRedoHistory
Fore
SplineSet
438 -20 m 0,0,1
 246 -20 246 -20 148 80 c 0,2,3
 67 163 67 163 67 309 c 0,4,5
 67 339 67 339 70 371 c 2,6,-1
 117 813 l 1,7,8
 136 1003 136 1003 254.5 1103.5 c 128,-1,9
 373 1204 373 1204 566 1204 c 0,10,11
 760 1204 760 1204 859 1104 c 0,12,13
 941 1021 941 1021 941 877 c 0,14,15
 941 846 941 846 937 813 c 1,16,-1
 891 371 l 2,17,18
 871 181 871 181 751.5 80.5 c 128,-1,19
 632 -20 632 -20 438 -20 c 0,0,1
461 201 m 0,20,21
 510 201 510 201 533 237.5 c 128,-1,22
 556 274 556 274 564 348 c 2,23,-1
 615 835 l 2,24,25
 617 859 617 859 617 879 c 0,26,27
 618 921 618 921 608 946 c 0,28,29
 594 983 594 983 544 983 c 0,30,31
 496 983 496 983 473 945 c 128,-1,32
 450 907 450 907 443 835 c 2,33,-1
 392 348 l 2,34,35
 390 325 390 325 390 305 c 0,36,37
 390 264 390 264 400 238 c 0,38,39
 414 200 414 200 461 201 c 0,20,21
EndSplineSet
EndChar

StartChar: p
Encoding: 112 112 83
Width: 1028
GlyphClass: 2
Flags: W
LayerCount: 2
UndoRedoHistory
Layer: 1
Undoes
EndUndoes
Redoes
EndRedoes
EndUndoRedoHistory
Fore
SplineSet
497 195 m 0,0,1
 498 195 498 195 499 195 c 0,2,3
 542 194 542 194 566 234 c 0,4,5
 590 274 590 274 598 339 c 2,6,-1
 654 873 l 1,7,8
 656 888 656 888 656 902 c 0,9,10
 656 940 656 940 642 968 c 0,11,12
 625 1003 625 1003 586 1002 c 0,13,14
 582 1002 582 1002 578 1002 c 0,15,16
 540 999 540 999 484 962 c 1,17,-1
 406 226 l 1,18,19
 452 196 452 196 497 195 c 0,0,1
14 -390 m 1,20,-1
 179 1184 l 1,21,-1
 507 1184 l 1,22,-1
 499 1097 l 1,23,24
 630 1204 630 1204 754 1204 c 0,25,26
 760 1204 760 1204 765 1204 c 1,27,28
 853 1202 853 1202 906 1149.5 c 128,-1,29
 959 1097 959 1097 975 1021 c 0,30,31
 985 974 985 974 985 920 c 0,32,33
 985 886 985 886 981 849 c 2,34,-1
 929 355 l 2,35,36
 911 185 911 185 833 82.5 c 128,-1,37
 755 -20 755 -20 628 -20 c 0,38,39
 504 -20 504 -20 392 89 c 1,40,-1
 342 -390 l 1,41,-1
 14 -390 l 1,20,-1
EndSplineSet
EndChar

StartChar: q
Encoding: 113 113 84
Width: 1027
GlyphClass: 2
Flags: W
LayerCount: 2
UndoRedoHistory
Layer: 1
Undoes
EndUndoes
Redoes
EndRedoes
EndUndoRedoHistory
Fore
SplineSet
474 193 m 0,0,1
 511 193 511 193 570 225 c 1,2,-1
 647 966 l 1,3,4
 599 995 599 995 560 995 c 0,5,6
 515 995 515 995 488.5 958 c 128,-1,7
 462 921 462 921 456 862 c 2,8,-1
 401 332 l 2,9,10
 399 314 399 314 399 298 c 0,11,12
 399 260 399 260 411 232 c 0,13,14
 428 194 428 194 474 193 c 0,0,1
505 -390 m 1,15,-1
 556 95 l 1,16,17
 430 -20 430 -20 311 -20 c 0,18,19
 310 -20 310 -20 308 -20 c 0,20,21
 175 -20 175 -20 115 73 c 0,22,23
 68 145 68 145 68 270 c 0,24,25
 68 309 68 309 73 354 c 1,26,-1
 123 821 l 1,27,28
 140 994 140 994 221 1099 c 128,-1,29
 302 1204 302 1204 439 1204 c 0,30,31
 562 1204 562 1204 662 1106 c 1,32,-1
 670 1184 l 1,33,-1
 998 1184 l 1,34,-1
 833 -390 l 1,35,-1
 505 -390 l 1,15,-1
EndSplineSet
EndChar

StartChar: r
Encoding: 114 114 85
Width: 755
GlyphClass: 2
Flags: W
LayerCount: 2
UndoRedoHistory
Layer: 1
Undoes
EndUndoes
Redoes
EndRedoes
EndUndoRedoHistory
Fore
SplineSet
59 0 m 1,0,-1
 183 1184 l 1,1,-1
 511 1184 l 1,2,-1
 491 989 l 1,3,4
 622 1199 622 1199 751 1199 c 0,5,6
 770 1199 770 1199 797 1191 c 1,7,-1
 766 898 l 1,8,9
 733 906 733 906 708 905 c 0,10,11
 572 898 572 898 468 765 c 1,12,-1
 387 0 l 1,13,-1
 59 0 l 1,0,-1
EndSplineSet
EndChar

StartChar: s
Encoding: 115 115 86
Width: 860
GlyphClass: 2
Flags: W
AnchorPoint: "Anchor-1" 370 0 basechar 0
LayerCount: 2
UndoRedoHistory
Layer: 1
Undoes
EndUndoes
Redoes
EndRedoes
EndUndoRedoHistory
Fore
SplineSet
396 -20 m 0,0,1
 245 -20 245 -20 153 52 c 128,-1,2
 61 124 61 124 19 279 c 1,3,-1
 258 378 l 1,4,5
 282 293 282 293 322 246 c 0,6,7
 359 203 359 203 407 203 c 0,8,9
 411 203 411 203 415 203 c 0,10,11
 448 205 448 205 472 228 c 128,-1,12
 496 251 496 251 498 286 c 0,13,14
 499 307 499 307 479.5 337 c 128,-1,15
 460 367 460 367 436 391.5 c 128,-1,16
 412 416 412 416 375 451 c 0,17,18
 367 458 367 458 363 462 c 2,19,-1
 273 546 l 1,20,21
 108 698 108 698 108 846 c 0,22,23
 108 862 108 862 110 878 c 0,24,25
 127 1021 127 1021 242 1112.5 c 128,-1,26
 357 1204 357 1204 506 1204 c 0,27,28
 650 1204 650 1204 737.5 1124.5 c 128,-1,29
 825 1045 825 1045 849 900 c 1,30,-1
 626 801 l 1,31,32
 614 869 614 869 581 920 c 128,-1,33
 548 971 548 971 500 974 c 1,34,35
 498 974 498 974 497 974 c 0,36,37
 462 974 462 974 438 954 c 0,38,39
 414 933 414 933 409 903 c 1,40,41
 405 881 405 881 424 850 c 128,-1,42
 443 819 443 819 464 797.5 c 128,-1,43
 485 776 485 776 528 736 c 0,44,45
 533 731 533 731 536.5 727.5 c 128,-1,46
 540 724 540 724 544 721 c 2,47,-1
 631 634 l 1,48,49
 676 591 676 591 700.5 564.5 c 128,-1,50
 725 538 725 538 756 494 c 0,51,52
 786 450 786 450 798 402 c 0,53,54
 806 369 806 369 807 333 c 0,55,56
 807 317 807 317 805 301 c 0,57,58
 789 152 789 152 670.5 66 c 128,-1,59
 552 -20 552 -20 396 -20 c 0,0,1
EndSplineSet
EndChar

StartChar: t
Encoding: 116 116 87
Width: 720
GlyphClass: 2
Flags: W
AnchorPoint: "Anchor-1" 340 0 basechar 0
LayerCount: 2
UndoRedoHistory
Layer: 1
Undoes
EndUndoes
Redoes
EndRedoes
EndUndoRedoHistory
Fore
SplineSet
389 -14 m 0,0,1
 314 -11 314 -11 261 12 c 128,-1,2
 208 35 208 35 180.5 74 c 0,3,4
 153 114 153 114 139 166 c 0,5,6
 126 213 126 213 126 267 c 0,7,8
 126 272 126 272 126 278 c 0,9,10
 128 338 128 338 133 406 c 1,11,-1
 192 969 l 1,12,-1
 79 969 l 1,13,-1
 102 1184 l 1,14,-1
 214 1184 l 1,15,-1
 253 1542 l 1,16,-1
 584 1542 l 1,17,-1
 546 1184 l 1,18,-1
 717 1184 l 1,19,-1
 695 969 l 1,20,-1
 524 969 l 1,21,-1
 459 351 l 2,22,23
 458 343 458 343 458 335 c 0,24,25
 458 255 458 255 555 252 c 0,26,27
 572 251 572 251 591.5 253 c 128,-1,28
 611 255 611 255 628 258 c 2,29,-1
 645 261 l 1,30,-1
 618 2 l 1,31,32
 494 -14 494 -14 413 -14 c 0,33,34
 401 -14 401 -14 389 -14 c 0,0,1
EndSplineSet
EndChar

StartChar: u
Encoding: 117 117 88
Width: 1024
GlyphClass: 2
Flags: W
AnchorPoint: "Anchor-0" 712 0 basechar 0
LayerCount: 2
UndoRedoHistory
Layer: 1
Undoes
EndUndoes
Redoes
EndRedoes
EndUndoRedoHistory
Fore
SplineSet
257 -20 m 0,0,1
 154 -20 154 -20 106 56 c 0,2,3
 69 116 69 116 68 203 c 0,4,5
 68 227 68 227 71 253 c 2,6,-1
 168 1184 l 1,7,-1
 497 1184 l 1,8,-1
 404 295 l 2,9,10
 403 282 403 282 403 271 c 0,11,12
 403 242 403 242 412 226 c 0,13,14
 425 204 425 204 464 205 c 0,15,16
 505 206 505 206 565 243 c 1,17,-1
 664 1184 l 1,18,-1
 993 1184 l 1,19,-1
 869 0 l 1,20,-1
 540 0 l 1,21,-1
 551 109 l 1,22,23
 401 -20 401 -20 257 -20 c 0,0,1
EndSplineSet
EndChar

StartChar: v
Encoding: 118 118 89
Width: 859
GlyphClass: 2
Flags: W
LayerCount: 2
UndoRedoHistory
Layer: 1
Undoes
EndUndoes
Redoes
EndRedoes
EndUndoRedoHistory
Fore
SplineSet
207 0 m 1,0,-1
 96 1184 l 1,1,-1
 411 1184 l 1,2,-1
 429 416 l 1,3,-1
 603 1184 l 1,4,-1
 916 1184 l 1,5,-1
 553 0 l 1,6,-1
 207 0 l 1,0,-1
EndSplineSet
EndChar

StartChar: w
Encoding: 119 119 90
Width: 1224
GlyphClass: 2
Flags: W
LayerCount: 2
UndoRedoHistory
Layer: 1
Undoes
EndUndoes
Redoes
EndRedoes
EndUndoRedoHistory
Fore
SplineSet
169 0 m 1,0,-1
 118 1184 l 1,1,-1
 392 1184 l 1,2,-1
 408 502 l 1,3,-1
 576 1184 l 1,4,-1
 814 1184 l 1,5,-1
 826 489 l 1,6,-1
 998 1184 l 1,7,-1
 1254 1184 l 1,8,-1
 949 0 l 1,9,-1
 670 0 l 1,10,-1
 635 670 l 1,11,-1
 449 0 l 1,12,-1
 169 0 l 1,0,-1
EndSplineSet
EndChar

StartChar: x
Encoding: 120 120 91
Width: 899
GlyphClass: 2
Flags: W
LayerCount: 2
UndoRedoHistory
Layer: 1
Undoes
EndUndoes
Redoes
EndRedoes
EndUndoRedoHistory
Fore
SplineSet
-30 0 m 1,0,-1
 290 647 l 1,1,-1
 106 1184 l 1,2,-1
 436 1184 l 1,3,-1
 536 895 l 1,4,-1
 678 1184 l 1,5,-1
 936 1184 l 1,6,-1
 637 598 l 1,7,-1
 842 0 l 1,8,-1
 511 0 l 1,9,-1
 399 328 l 1,10,-1
 246 0 l 1,11,-1
 -30 0 l 1,0,-1
EndSplineSet
EndChar

StartChar: y
Encoding: 121 121 92
Width: 909
GlyphClass: 2
Flags: W
LayerCount: 2
UndoRedoHistory
Layer: 1
Undoes
EndUndoes
Redoes
EndRedoes
EndUndoRedoHistory
Fore
SplineSet
48 -340 m 1,0,-1
 72 -112 l 1,1,2
 183 -112 183 -112 227.5 -90 c 128,-1,3
 272 -68 272 -68 273 4 c 0,4,5
 273 50 273 50 250 188 c 2,6,-1
 80 1184 l 1,7,-1
 391 1184 l 1,8,-1
 466 492 l 1,9,-1
 651 1184 l 1,10,-1
 963 1184 l 1,11,-1
 552 -63 l 1,12,13
 462 -340 462 -340 103 -340 c 0,14,15
 98 -340 98 -340 93 -340 c 1,16,-1
 48 -340 l 1,0,-1
EndSplineSet
EndChar

StartChar: z
Encoding: 122 122 93
Width: 797
GlyphClass: 2
Flags: W
LayerCount: 2
UndoRedoHistory
Layer: 1
Undoes
EndUndoes
Redoes
EndRedoes
EndUndoRedoHistory
Fore
SplineSet
20 0 m 1,0,-1
 43 212 l 1,1,-1
 447 944 l 1,2,-1
 145 944 l 1,3,-1
 170 1184 l 1,4,-1
 813 1184 l 1,5,-1
 793 986 l 1,6,-1
 388 241 l 1,7,-1
 719 241 l 1,8,-1
 694 0 l 1,9,-1
 20 0 l 1,0,-1
EndSplineSet
EndChar

StartChar: braceleft
Encoding: 123 123 94
Width: 759
GlyphClass: 2
Flags: W
LayerCount: 2
UndoRedoHistory
Layer: 1
Undoes
EndUndoes
Redoes
EndRedoes
EndUndoRedoHistory
Fore
SplineSet
604 -399 m 1,0,1
 391 -399 391 -399 296.5 -358.5 c 128,-1,2
 202 -318 202 -318 181 -221 c 0,3,4
 171 -174 171 -174 171 -111 c 0,5,6
 171 -45 171 -45 182 38 c 1,7,-1
 201 213 l 2,8,9
 207 274 207 274 210.5 309.5 c 128,-1,10
 214 345 214 345 215.5 383 c 128,-1,11
 217 421 217 421 215.5 440 c 128,-1,12
 214 459 214 459 209 479 c 128,-1,13
 204 499 204 499 196 506 c 128,-1,14
 188 513 188 513 174 520 c 128,-1,15
 160 527 160 527 143.5 528.5 c 128,-1,16
 127 530 127 530 102 530 c 1,17,-1
 127 764 l 1,18,19
 161 764 161 764 181 766.5 c 128,-1,20
 201 769 201 769 218.5 783 c 128,-1,21
 236 797 236 797 245 813.5 c 128,-1,22
 254 830 254 830 263.5 872 c 128,-1,23
 273 914 273 914 278.5 957 c 128,-1,24
 284 1000 284 1000 292 1081 c 2,25,-1
 311 1256 l 2,26,27
 318 1323 318 1323 325 1369 c 128,-1,28
 332 1415 332 1415 345 1462 c 128,-1,29
 358 1509 358 1509 375 1539 c 128,-1,30
 392 1569 392 1569 419.5 1597.5 c 128,-1,31
 447 1626 447 1626 482.5 1642 c 128,-1,32
 518 1658 518 1658 568 1670.5 c 128,-1,33
 618 1683 618 1683 681 1688 c 128,-1,34
 744 1693 744 1693 825 1693 c 1,35,-1
 801 1472 l 1,36,37
 763 1472 763 1472 739 1469.5 c 128,-1,38
 715 1467 715 1467 694.5 1457 c 128,-1,39
 674 1447 674 1447 662.5 1433 c 128,-1,40
 651 1419 651 1419 641.5 1390.5 c 128,-1,41
 632 1362 632 1362 627 1328 c 128,-1,42
 622 1294 622 1294 616 1239 c 2,43,-1
 595 1042 l 2,44,45
 575 859 575 859 527 764.5 c 128,-1,46
 479 670 479 670 378 647 c 1,47,48
 474 624 474 624 502 529 c 0,49,50
 519 473 519 473 519 387 c 0,51,52
 519 327 519 327 511 252 c 1,53,-1
 491 55 l 2,54,55
 485 0 485 0 483 -34 c 128,-1,56
 481 -68 481 -68 485 -96.5 c 128,-1,57
 489 -125 489 -125 497.5 -139 c 128,-1,58
 506 -153 506 -153 524.5 -163 c 128,-1,59
 543 -173 543 -173 566.5 -175.5 c 128,-1,60
 590 -178 590 -178 628 -178 c 1,61,-1
 604 -399 l 1,0,1
EndSplineSet
EndChar

StartChar: bar
Encoding: 124 124 95
Width: 536
GlyphClass: 2
Flags: W
LayerCount: 2
UndoRedoHistory
Layer: 1
Undoes
EndUndoes
Redoes
EndRedoes
EndUndoRedoHistory
Fore
SplineSet
44 -363 m 1,0,-1
 256 1658 l 1,1,-1
 529 1658 l 1,2,-1
 316 -363 l 1,3,-1
 44 -363 l 1,0,-1
EndSplineSet
EndChar

StartChar: braceright
Encoding: 125 125 96
Width: 775
GlyphClass: 2
Flags: W
LayerCount: 2
UndoRedoHistory
Layer: 1
Undoes
EndUndoes
Redoes
EndRedoes
EndUndoRedoHistory
Fore
SplineSet
-14 -399 m 1,0,-1
 10 -178 l 1,1,2
 56 -178 56 -178 82.5 -173 c 128,-1,3
 109 -168 109 -168 130 -156 c 128,-1,4
 151 -144 151 -144 162.5 -115 c 128,-1,5
 174 -86 174 -86 181.5 -48.5 c 128,-1,6
 189 -11 189 -11 196 55 c 2,7,-1
 216 252 l 1,8,9
 236 434 236 434 284.5 529 c 128,-1,10
 333 624 333 624 434 647 c 1,11,12
 338 670 338 670 309 765 c 0,13,14
 291 822 291 822 291 912 c 0,15,16
 291 970 291 970 299 1042 c 2,17,-1
 320 1239 l 2,18,19
 326 1294 326 1294 327.5 1328 c 128,-1,20
 329 1362 329 1362 325.5 1390.5 c 128,-1,21
 322 1419 322 1419 313.5 1433 c 128,-1,22
 305 1447 305 1447 286.5 1457 c 128,-1,23
 268 1467 268 1467 244.5 1469.5 c 128,-1,24
 221 1472 221 1472 183 1472 c 1,25,-1
 206 1693 l 1,26,27
 419 1693 419 1693 514 1652.5 c 128,-1,28
 609 1612 609 1612 630 1515 c 0,29,30
 640 1468 640 1468 640 1405 c 0,31,32
 640 1339 640 1339 629 1256 c 1,33,-1
 610 1081 l 2,34,35
 602 1000 602 1000 598 957 c 0,36,37
 595 923 595 923 595 889 c 0,38,39
 595 881 595 881 595 872 c 0,40,41
 596 830 596 830 601 813.5 c 128,-1,42
 606 797 606 797 621.5 783 c 128,-1,43
 637 769 637 769 656 766.5 c 128,-1,44
 675 764 675 764 709 764 c 1,45,-1
 684 530 l 1,46,47
 650 530 650 530 630 527.5 c 128,-1,48
 610 525 610 525 592.5 511 c 128,-1,49
 575 497 575 497 566 480.5 c 128,-1,50
 557 464 557 464 547.5 422 c 128,-1,51
 538 380 538 380 532.5 337 c 128,-1,52
 527 294 527 294 519 213 c 2,53,-1
 501 38 l 2,54,55
 494 -30 494 -30 486.5 -75.5 c 128,-1,56
 479 -121 479 -121 466 -168 c 128,-1,57
 453 -215 453 -215 436 -244.5 c 128,-1,58
 419 -274 419 -274 391.5 -303 c 128,-1,59
 364 -332 364 -332 328.5 -348 c 128,-1,60
 293 -364 293 -364 242.5 -376.5 c 128,-1,61
 192 -389 192 -389 129.5 -394 c 128,-1,62
 67 -399 67 -399 -14 -399 c 1,0,-1
EndSplineSet
EndChar

StartChar: asciitilde
Encoding: 126 126 97
Width: 986
GlyphClass: 2
Flags: W
LayerCount: 2
UndoRedoHistory
Layer: 1
Undoes
EndUndoes
Redoes
EndRedoes
EndUndoRedoHistory
Fore
SplineSet
690 685 m 0,0,1
 641 685 641 685 575.5 715.5 c 128,-1,2
 510 746 510 746 451.5 776 c 128,-1,3
 393 806 393 806 361 806 c 0,4,5
 335 806 335 806 291 779.5 c 128,-1,6
 247 753 247 753 210 709 c 1,7,-1
 120 847 l 1,8,9
 172 919 172 919 247 977.5 c 128,-1,10
 322 1036 322 1036 383 1036 c 0,11,12
 432 1036 432 1036 497.5 1006 c 128,-1,13
 563 976 563 976 620.5 946.5 c 128,-1,14
 678 917 678 917 709 917 c 0,15,16
 760 917 760 917 859 1014 c 1,17,-1
 961 895 l 1,18,19
 916 816 916 816 836.5 750.5 c 128,-1,20
 757 685 757 685 690 685 c 0,0,1
EndSplineSet
EndChar

StartChar: exclamdown
Encoding: 161 161 99
Width: 482
GlyphClass: 2
Flags: W
LayerCount: 2
UndoRedoHistory
Layer: 1
Undoes
EndUndoes
Redoes
EndRedoes
EndUndoRedoHistory
Fore
SplineSet
155 1027 m 1,0,-1
 188 1334 l 1,1,-1
 499 1334 l 1,2,-1
 466 1027 l 1,3,-1
 155 1027 l 1,0,-1
-7 -320 m 1,4,-1
 240 917 l 1,5,-1
 354 917 l 1,6,-1
 319 -320 l 1,7,-1
 -7 -320 l 1,4,-1
EndSplineSet
EndChar

StartChar: cent
Encoding: 162 162 100
Width: 924
GlyphClass: 2
Flags: W
LayerCount: 2
UndoRedoHistory
Layer: 1
Undoes
EndUndoes
Redoes
EndRedoes
EndUndoRedoHistory
Fore
SplineSet
352 -258 m 1,0,-1
 378 -18 l 1,1,2
 208 -2 208 -2 128 102 c 0,3,4
 64 186 64 186 64 315 c 0,5,6
 64 347 64 347 68 383 c 1,7,-1
 112 802 l 2,8,9
 130 979 130 979 232 1083 c 128,-1,10
 334 1187 334 1187 506 1202 c 1,11,-1
 530 1438 l 1,12,-1
 615 1438 l 1,13,-1
 591 1203 l 1,14,15
 768 1196 768 1196 852 1107 c 0,16,17
 921 1034 921 1034 920 905 c 0,18,19
 920 877 920 877 917 847 c 2,20,-1
 904 724 l 1,21,-1
 588 724 l 1,22,-1
 601 848 l 2,23,24
 603 869 603 869 603 887 c 0,25,26
 603 926 603 926 592 944 c 0,27,28
 576 970 576 970 536 971 c 0,29,30
 495 971 495 971 473.5 939 c 128,-1,31
 452 907 452 907 444 827 c 2,32,-1
 394 356 l 2,33,34
 391 328 391 328 391 307 c 0,35,36
 392 264 392 264 402 244 c 0,37,38
 418 214 418 214 457 214 c 0,39,40
 498 214 498 214 519 242 c 128,-1,41
 540 270 540 270 547 334 c 2,42,-1
 563 480 l 1,43,-1
 878 480 l 1,44,-1
 864 340 l 1,45,46
 845 170 845 170 742 79 c 128,-1,47
 639 -12 639 -12 462 -20 c 1,48,-1
 437 -258 l 1,49,-1
 352 -258 l 1,0,-1
EndSplineSet
EndChar

StartChar: sterling
Encoding: 163 163 101
Width: 991
GlyphClass: 2
Flags: W
LayerCount: 2
UndoRedoHistory
Layer: 1
Undoes
EndUndoes
Redoes
EndRedoes
EndUndoRedoHistory
Fore
SplineSet
-11 0 m 1,0,-1
 8 184 l 1,1,-1
 137 242 l 1,2,-1
 180 659 l 1,3,-1
 58 659 l 1,4,-1
 85 915 l 1,5,-1
 207 915 l 1,6,-1
 226 1099 l 2,7,8
 234 1175 234 1175 243 1232.5 c 128,-1,9
 252 1290 252 1290 269 1353.5 c 128,-1,10
 286 1417 286 1417 308 1463 c 128,-1,11
 330 1509 330 1509 364.5 1552.5 c 128,-1,12
 399 1596 399 1596 443 1622.5 c 128,-1,13
 487 1649 487 1649 548.5 1665 c 128,-1,14
 610 1681 610 1681 685 1681 c 0,15,16
 774 1681 774 1681 838 1659.5 c 128,-1,17
 902 1638 902 1638 938 1598.5 c 128,-1,18
 974 1559 974 1559 994 1504 c 0,19,20
 1014 1450 1014 1450 1015 1382 c 0,21,22
 1015 1372 1015 1372 1015 1362 c 0,23,24
 1015 1303 1015 1303 1010 1237 c 1,25,-1
 1005 1186 l 1,26,-1
 720 1186 l 1,27,28
 724 1222 724 1222 725.5 1244 c 128,-1,29
 727 1266 727 1266 727.5 1295 c 128,-1,30
 728 1324 728 1324 724 1341 c 128,-1,31
 720 1358 720 1358 713 1374.5 c 128,-1,32
 706 1391 706 1391 692 1398.5 c 128,-1,33
 678 1406 678 1406 659 1406 c 128,-1,34
 640 1406 640 1406 625 1398.5 c 128,-1,35
 610 1391 610 1391 599 1372 c 128,-1,36
 588 1353 588 1353 580.5 1334 c 128,-1,37
 573 1315 573 1315 567 1279.5 c 128,-1,38
 561 1244 561 1244 557.5 1217 c 128,-1,39
 554 1190 554 1190 548 1142 c 2,40,-1
 524 913 l 1,41,-1
 765 913 l 1,42,-1
 739 659 l 1,43,-1
 498 659 l 1,44,-1
 457 276 l 1,45,-1
 901 276 l 1,46,-1
 871 0 l 1,47,-1
 -11 0 l 1,0,-1
EndSplineSet
EndChar

StartChar: currency
Encoding: 164 164 102
Width: 1138
GlyphClass: 2
Flags: W
LayerCount: 2
UndoRedoHistory
Layer: 1
Undoes
EndUndoes
Redoes
EndRedoes
EndUndoRedoHistory
Fore
SplineSet
574 521 m 128,-1,1
 715 521 715 521 822.5 622 c 128,-1,2
 930 723 930 723 945 866 c 0,3,4
 947 887 947 887 947 908 c 0,5,6
 947 1024 947 1024 874 1110 c 0,7,8
 788 1211 788 1211 646 1211 c 0,9,10
 505 1211 505 1211 398 1110 c 128,-1,11
 291 1009 291 1009 276 866 c 0,12,13
 274 845 274 845 274 824 c 0,14,15
 274 708 274 708 347 622 c 0,16,0
 433 521 433 521 574 521 c 128,-1,1
104 381 m 1,17,-1
 77 411 l 1,18,-1
 257 573 l 1,19,20
 174 678 174 678 174 815 c 0,21,22
 174 840 174 840 177 866 c 0,23,24
 195 1035 195 1035 319 1159 c 1,25,-1
 173 1321 l 1,26,-1
 206 1351 l 1,27,-1
 351 1189 l 1,28,29
 486 1304 486 1304 653 1304 c 0,30,31
 654 1304 654 1304 655.5 1304 c 129,-1,32
 657 1304 657 1304 659 1304 c 0,33,34
 828 1304 828 1304 937 1189 c 1,35,-1
 1116 1351 l 1,36,-1
 1143 1321 l 1,37,-1
 964 1159 l 1,38,39
 1046 1054 1046 1054 1046 918 c 0,40,41
 1046 893 1046 893 1043 866 c 0,42,43
 1025 697 1025 697 901 573 c 1,44,-1
 1047 411 l 1,45,-1
 1014 381 l 1,46,-1
 869 543 l 1,47,48
 736 428 736 428 567 428 c 0,49,50
 566 428 566 428 564.5 428 c 129,-1,51
 563 428 563 428 561 428 c 0,52,53
 394 428 394 428 283 543 c 1,54,-1
 104 381 l 1,17,-1
EndSplineSet
EndChar

StartChar: yen
Encoding: 165 165 103
Width: 974
GlyphClass: 2
Flags: W
LayerCount: 2
UndoRedoHistory
Layer: 1
Undoes
EndUndoes
Redoes
EndRedoes
EndUndoRedoHistory
Fore
SplineSet
271 0 m 1,0,-1
 297 244 l 1,1,-1
 127 244 l 1,2,-1
 145 410 l 1,3,-1
 314 410 l 1,4,-1
 329 543 l 1,5,-1
 159 543 l 1,6,-1
 176 714 l 1,7,-1
 306 714 l 1,8,-1
 128 1658 l 1,9,-1
 466 1658 l 1,10,-1
 562 1017 l 1,11,-1
 777 1658 l 1,12,-1
 1105 1658 l 1,13,-1
 732 714 l 1,14,-1
 862 714 l 1,15,-1
 845 543 l 1,16,-1
 674 543 l 1,17,-1
 660 410 l 1,18,-1
 830 410 l 1,19,-1
 813 244 l 1,20,-1
 642 244 l 1,21,-1
 617 0 l 1,22,-1
 271 0 l 1,0,-1
EndSplineSet
EndChar

StartChar: brokenbar
Encoding: 166 166 104
Width: 445
GlyphClass: 2
Flags: W
LayerCount: 2
UndoRedoHistory
Layer: 1
Undoes
EndUndoes
Redoes
EndRedoes
EndUndoRedoHistory
Fore
SplineSet
144 824 m 1,0,-1
 231 1658 l 1,1,-1
 462 1658 l 1,2,-1
 375 824 l 1,3,-1
 144 824 l 1,0,-1
19 -363 m 1,4,-1
 107 471 l 1,5,-1
 338 471 l 1,6,-1
 250 -363 l 1,7,-1
 19 -363 l 1,4,-1
EndSplineSet
EndChar

StartChar: section
Encoding: 167 167 105
Width: 965
GlyphClass: 2
Flags: W
LayerCount: 2
UndoRedoHistory
Layer: 1
Undoes
EndUndoes
Redoes
EndRedoes
EndUndoRedoHistory
Fore
SplineSet
550 738 m 1,0,1
 635 782 635 782 641 836 c 0,2,3
 643 858 643 858 631 883 c 128,-1,4
 619 908 619 908 588 928 c 2,5,-1
 498 987 l 1,6,7
 456 973 456 973 429.5 946 c 128,-1,8
 403 919 403 919 399 885 c 0,9,10
 397 863 397 863 405 841 c 128,-1,11
 413 819 413 819 432 808 c 2,12,-1
 550 738 l 1,0,1
425 -14 m 0,13,14
 271 -14 271 -14 186.5 77.5 c 128,-1,15
 102 169 102 169 80 321 c 1,16,-1
 307 380 l 1,17,18
 323 318 323 318 360.5 268.5 c 128,-1,19
 398 219 398 219 454 219 c 0,20,21
 507 219 507 219 540.5 244.5 c 128,-1,22
 574 270 574 270 580 315 c 0,23,24
 582 326 582 326 582 337 c 0,25,26
 582 377 582 377 558 409 c 0,27,28
 528 450 528 450 449 501 c 2,29,-1
 275 615 l 2,30,31
 138 705 138 705 138 837 c 0,32,33
 138 859 138 859 142 881 c 0,34,35
 156 970 156 970 212.5 1033 c 128,-1,36
 269 1096 269 1096 343 1120 c 1,37,38
 275 1160 275 1160 227 1232 c 0,39,40
 184 1298 184 1298 184 1369 c 0,41,42
 184 1376 184 1376 184 1384 c 1,43,44
 189 1485 189 1485 250 1561 c 128,-1,45
 311 1637 311 1637 404 1674.5 c 128,-1,46
 497 1712 497 1712 607 1712 c 0,47,48
 763 1712 763 1712 852 1618.5 c 128,-1,49
 941 1525 941 1525 961 1372 c 1,50,-1
 740 1318 l 1,51,52
 726 1392 726 1392 692 1438 c 0,53,54
 659 1484 659 1484 595 1483 c 0,55,56
 594 1483 594 1483 592 1483 c 0,57,58
 543 1482 543 1482 511.5 1458 c 128,-1,59
 480 1434 480 1434 475 1388 c 0,60,61
 473 1372 473 1372 475.5 1357 c 128,-1,62
 478 1342 478 1342 486.5 1329 c 128,-1,63
 495 1316 495 1316 501.5 1306.5 c 128,-1,64
 508 1297 508 1297 522.5 1285.5 c 128,-1,65
 537 1274 537 1274 543 1269 c 128,-1,66
 549 1264 549 1264 565.5 1254 c 128,-1,67
 582 1244 582 1244 584 1242 c 2,68,-1
 740 1140 l 2,69,70
 895 1038 895 1038 895 887 c 0,71,72
 895 871 895 871 893 855 c 0,73,74
 884 774 884 774 837 717.5 c 128,-1,75
 790 661 790 661 706 610 c 1,76,77
 785 542 785 542 820 476 c 0,78,79
 848 424 848 424 848 358 c 0,80,81
 848 341 848 341 846 324 c 0,82,83
 830 171 830 171 717.5 78.5 c 128,-1,84
 605 -14 605 -14 425 -14 c 0,13,14
EndSplineSet
EndChar

StartChar: dieresis
Encoding: 168 168 106
Width: 867
GlyphClass: 2
Flags: W
LayerCount: 2
UndoRedoHistory
Layer: 1
Undoes
EndUndoes
Redoes
EndRedoes
EndUndoRedoHistory
Fore
SplineSet
611 1359 m 1,0,-1
 643 1658 l 1,1,-1
 910 1658 l 1,2,-1
 879 1359 l 1,3,-1
 611 1359 l 1,0,-1
175 1359 m 1,4,-1
 206 1658 l 1,5,-1
 473 1658 l 1,6,-1
 442 1359 l 1,7,-1
 175 1359 l 1,4,-1
EndSplineSet
EndChar

StartChar: copyright
Encoding: 169 169 107
Width: 1805
GlyphClass: 2
Flags: W
LayerCount: 2
UndoRedoHistory
Layer: 1
Undoes
EndUndoes
Redoes
EndRedoes
EndUndoRedoHistory
Fore
SplineSet
851 -26 m 128,-1,1
 682 -26 682 -26 548.5 24 c 128,-1,2
 415 74 415 74 330.5 157.5 c 128,-1,3
 246 241 246 241 194 352.5 c 128,-1,4
 142 464 142 464 126 584 c 0,5,6
 117 650 117 650 117 720 c 0,7,8
 117 776 117 776 123 833 c 0,9,10
 136 961 136 961 177.5 1081.5 c 128,-1,11
 219 1202 219 1202 294.5 1314 c 128,-1,12
 370 1426 370 1426 472 1509 c 128,-1,13
 574 1592 574 1592 718 1642 c 128,-1,14
 862 1692 862 1692 1031 1692 c 0,15,16
 1199 1692 1199 1692 1332.5 1642 c 128,-1,17
 1466 1592 1466 1592 1550 1509 c 128,-1,18
 1634 1426 1634 1426 1686 1314 c 128,-1,19
 1738 1202 1738 1202 1754 1082 c 0,20,21
 1763 1016 1763 1016 1763 946 c 0,22,23
 1763 890 1763 890 1757 833 c 0,24,25
 1744 705 1744 705 1703 584.5 c 128,-1,26
 1662 464 1662 464 1586.5 352 c 128,-1,27
 1511 240 1511 240 1409.5 157 c 128,-1,28
 1308 74 1308 74 1164 24 c 128,-1,0
 1020 -26 1020 -26 851 -26 c 128,-1,1
862 57 m 0,29,30
 1007 57 1007 57 1132.5 100.5 c 128,-1,31
 1258 144 1258 144 1349 217.5 c 128,-1,32
 1440 291 1440 291 1507.5 391 c 128,-1,33
 1575 491 1575 491 1613 602 c 128,-1,34
 1651 713 1651 713 1664 832 c 0,35,36
 1670 888 1670 888 1670 941 c 0,37,38
 1670 1002 1670 1002 1662 1062 c 0,39,40
 1647 1172 1647 1172 1600 1271.5 c 128,-1,41
 1553 1371 1553 1371 1478 1444 c 128,-1,42
 1403 1517 1403 1517 1287 1559.5 c 128,-1,43
 1171 1602 1171 1602 1025 1602 c 128,-1,44
 879 1602 879 1602 753.5 1559.5 c 128,-1,45
 628 1517 628 1517 537 1444 c 128,-1,46
 446 1371 446 1371 378.5 1272 c 128,-1,47
 311 1173 311 1173 273 1062.5 c 128,-1,48
 235 952 235 952 223 832 c 0,49,50
 217 776 217 776 217 723 c 0,51,52
 217 662 217 662 225 602 c 0,53,54
 240 492 240 492 286.5 391.5 c 128,-1,55
 333 291 333 291 408 217.5 c 128,-1,56
 483 144 483 144 599.5 100.5 c 128,-1,57
 716 57 716 57 862 57 c 0,29,30
879 253 m 0,58,59
 667 253 667 253 564 357 c 0,60,61
 478 444 478 444 478 589 c 0,62,63
 478 617 478 617 481 648 c 2,64,-1
 521 1030 l 2,65,66
 541 1217 541 1217 665.5 1320.5 c 128,-1,67
 790 1424 790 1424 1003 1424 c 0,68,69
 1212 1424 1212 1424 1312 1337 c 0,70,71
 1397 1263 1397 1263 1397 1126 c 0,72,73
 1397 1101 1397 1101 1394 1075 c 1,74,-1
 1382 965 l 1,75,-1
 1042 965 l 1,76,-1
 1054 1077 l 2,77,78
 1056 1096 1056 1096 1056 1112 c 0,79,80
 1056 1154 1056 1154 1042 1172 c 0,81,82
 1024 1198 1024 1198 980 1199 c 0,83,84
 935 1199 935 1199 911 1166.5 c 128,-1,85
 887 1134 887 1134 878 1055 c 2,86,-1
 832 621 l 2,87,88
 830 597 830 597 830 577 c 0,89,90
 830 532 830 532 842 510 c 0,91,92
 860 480 860 480 905 480 c 0,93,94
 950 480 950 480 973.5 508 c 128,-1,95
 997 536 997 536 1004 599 c 2,96,-1
 1017 728 l 1,97,-1
 1357 728 l 1,98,-1
 1345 605 l 1,99,100
 1326 433 1326 433 1205.5 343 c 128,-1,101
 1085 253 1085 253 879 253 c 0,58,59
EndSplineSet
EndChar

StartChar: ordfeminine
Encoding: 170 170 108
Width: 987
GlyphClass: 2
Flags: W
LayerCount: 2
UndoRedoHistory
Layer: 1
Undoes
EndUndoes
Redoes
EndRedoes
EndUndoRedoHistory
Fore
SplineSet
519 837 m 0,0,1
 572 837 572 837 612 891 c 1,2,-1
 639 1149 l 1,3,4
 562 1116 562 1116 508 1055 c 128,-1,5
 454 994 454 994 449 937 c 0,6,7
 448 928 448 928 448 919 c 0,8,9
 448 885 448 885 464 864 c 0,10,11
 484 837 484 837 519 837 c 0,0,1
390 641 m 0,12,13
 272 642 272 642 212 714 c 0,14,15
 160 776 160 776 161 856 c 0,16,17
 161 869 161 869 162 883 c 0,18,19
 167 931 167 931 185 973 c 128,-1,20
 203 1015 203 1015 226 1046 c 128,-1,21
 249 1077 249 1077 285.5 1105 c 128,-1,22
 322 1133 322 1133 353 1151 c 128,-1,23
 384 1169 384 1169 430.5 1188 c 128,-1,24
 477 1207 477 1207 506.5 1217 c 128,-1,25
 536 1227 536 1227 583.5 1242 c 128,-1,26
 631 1257 631 1257 651 1264 c 1,27,-1
 663 1375 l 2,28,29
 664 1388 664 1388 664 1399 c 0,30,31
 664 1468 664 1468 612 1468 c 0,32,33
 574 1468 574 1468 556 1434 c 128,-1,34
 538 1400 538 1400 522 1315 c 1,35,-1
 241 1323 l 1,36,37
 261 1503 261 1503 370 1593 c 128,-1,38
 479 1683 479 1683 660 1683 c 0,39,40
 826 1684 826 1684 898 1594 c 0,41,42
 957 1521 957 1521 957 1404 c 0,43,44
 957 1378 957 1378 954 1350 c 2,45,-1
 881 657 l 1,46,-1
 621 657 l 1,47,-1
 619 794 l 1,48,49
 587 727 587 727 527 684 c 128,-1,50
 467 641 467 641 390 641 c 0,12,13
EndSplineSet
EndChar

StartChar: guillemotleft
Encoding: 171 171 109
Width: 997
GlyphClass: 2
Flags: W
LayerCount: 2
UndoRedoHistory
Layer: 1
Undoes
EndUndoes
Redoes
EndRedoes
EndUndoRedoHistory
Fore
SplineSet
871 70 m 1,0,-1
 525 550 l 1,1,-1
 537 667 l 1,2,-1
 985 1147 l 1,3,-1
 951 825 l 1,4,-1
 726 608 l 1,5,-1
 905 392 l 1,6,-1
 871 70 l 1,0,-1
427 70 m 1,7,-1
 82 550 l 1,8,-1
 94 667 l 1,9,-1
 541 1147 l 1,10,-1
 507 825 l 1,11,-1
 283 608 l 1,12,-1
 461 392 l 1,13,-1
 427 70 l 1,7,-1
EndSplineSet
EndChar

StartChar: logicalnot
Encoding: 172 172 110
Width: 1005
GlyphClass: 2
Flags: W
LayerCount: 2
UndoRedoHistory
Layer: 1
Undoes
EndUndoes
Redoes
EndRedoes
EndUndoRedoHistory
Fore
SplineSet
744 426 m 1,0,-1
 778 741 l 1,1,-1
 122 741 l 1,2,-1
 145 963 l 1,3,-1
 963 963 l 1,4,-1
 906 426 l 1,5,-1
 744 426 l 1,0,-1
EndSplineSet
EndChar

StartChar: uni00AD
Encoding: 173 173 111
Width: 758
GlyphClass: 2
Flags: W
LayerCount: 2
UndoRedoHistory
Layer: 1
Undoes
EndUndoes
Redoes
EndRedoes
EndUndoRedoHistory
Fore
SplineSet
143 582 m 1,0,-1
 165 795 l 1,1,-1
 674 795 l 1,2,-1
 652 582 l 1,3,-1
 143 582 l 1,0,-1
EndSplineSet
EndChar

StartChar: registered
Encoding: 174 174 112
Width: 1824
GlyphClass: 2
Flags: W
LayerCount: 2
UndoRedoHistory
Layer: 1
Undoes
EndUndoes
Redoes
EndRedoes
EndUndoRedoHistory
Fore
SplineSet
860 -28 m 0,0,1
 692 -28 692 -28 558.5 22 c 128,-1,2
 425 72 425 72 341 155 c 128,-1,3
 257 238 257 238 205 349.5 c 0,4,5
 154 461 154 461 138 581 c 0,6,7
 130 646 130 646 129 714 c 0,8,9
 129 770 129 770 135 828 c 0,10,11
 148 956 148 956 189 1076 c 128,-1,12
 230 1196 230 1196 305.5 1307.5 c 128,-1,13
 381 1419 381 1419 482.5 1502 c 128,-1,14
 584 1585 584 1585 728 1634.5 c 128,-1,15
 872 1684 872 1684 1040 1684 c 0,16,17
 1146 1684 1146 1684 1238.5 1664 c 128,-1,18
 1331 1644 1331 1644 1402.5 1608 c 128,-1,19
 1474 1572 1474 1572 1534 1522 c 128,-1,20
 1594 1472 1594 1472 1634.5 1411 c 128,-1,21
 1675 1350 1675 1350 1705.5 1280.5 c 128,-1,22
 1736 1211 1736 1211 1749.5 1136 c 128,-1,23
 1763 1061 1763 1061 1768 983 c 0,24,25
 1770 957 1770 957 1770 931 c 0,26,27
 1770 879 1770 879 1763 828 c 1,28,29
 1752 722 1752 722 1721 621 c 128,-1,30
 1690 520 1690 520 1639 423 c 128,-1,31
 1588 326 1588 326 1512.5 245 c 128,-1,32
 1437 164 1437 164 1343 102.5 c 128,-1,33
 1249 41 1249 41 1125 6.5 c 128,-1,34
 1001 -28 1001 -28 860 -28 c 0,0,1
871 81 m 0,35,36
 1010 81 1010 81 1130 123 c 128,-1,37
 1250 165 1250 165 1336.5 236 c 128,-1,38
 1423 307 1423 307 1487.5 403 c 128,-1,39
 1552 499 1552 499 1588.5 606 c 128,-1,40
 1625 713 1625 713 1637 827 c 0,41,42
 1643 880 1643 880 1643 931 c 0,43,44
 1643 990 1643 990 1635 1048 c 0,45,46
 1621 1154 1621 1154 1576.5 1250 c 128,-1,47
 1532 1346 1532 1346 1460 1417 c 128,-1,48
 1388 1488 1388 1488 1277 1529.5 c 128,-1,49
 1166 1571 1166 1571 1027 1571 c 0,50,51
 887 1571 887 1571 766.5 1529.5 c 128,-1,52
 646 1488 646 1488 559 1417 c 128,-1,53
 472 1346 472 1346 407 1250.5 c 128,-1,54
 342 1155 342 1155 306 1048.5 c 128,-1,55
 270 942 270 942 258 827 c 0,56,57
 252 774 252 774 252 723 c 0,58,59
 252 662 252 662 260 606 c 0,60,61
 274 500 274 500 318.5 403.5 c 128,-1,62
 363 307 363 307 435 236 c 128,-1,63
 507 165 507 165 619 123 c 128,-1,64
 731 81 731 81 871 81 c 0,35,36
879 890 m 1,65,-1
 919 890 l 2,66,67
 1005 890 1005 890 1044 929.5 c 128,-1,68
 1083 969 1083 969 1091 1048 c 0,69,70
 1093 1063 1093 1063 1093 1076 c 0,71,72
 1093 1192 1093 1192 976 1192 c 2,73,-1
 910 1192 l 1,74,-1
 879 890 l 1,65,-1
552 315 m 1,75,-1
 660 1350 l 1,76,-1
 1000 1350 l 2,77,78
 1187 1350 1187 1350 1274 1286 c 0,79,80
 1347 1232 1347 1232 1347 1114 c 0,81,82
 1347 1091 1347 1091 1344 1065 c 0,83,84
 1333 965 1333 965 1293.5 905.5 c 128,-1,85
 1254 846 1254 846 1168 807 c 1,86,-1
 1297 315 l 1,87,-1
 1017 315 l 1,88,-1
 923 755 l 1,89,-1
 865 755 l 1,90,-1
 819 315 l 1,91,-1
 552 315 l 1,75,-1
EndSplineSet
EndChar

StartChar: macron
Encoding: 175 175 113
Width: 378
GlyphClass: 2
Flags: W
LayerCount: 2
UndoRedoHistory
Layer: 1
Undoes
EndUndoes
Redoes
EndRedoes
EndUndoRedoHistory
Fore
SplineSet
50 1502 m 1,0,-1
 67 1658 l 1,1,-1
 577 1658 l 1,2,-1
 561 1502 l 1,3,-1
 50 1502 l 1,0,-1
EndSplineSet
EndChar

StartChar: degree
Encoding: 176 176 114
Width: 1097
GlyphClass: 2
Flags: W
LayerCount: 2
UndoRedoHistory
Layer: 1
Undoes
EndUndoes
Redoes
EndRedoes
EndUndoRedoHistory
Fore
SplineSet
589 874 m 0,0,1
 403 874 403 874 303 984 c 0,2,3
 220 1076 220 1076 220 1219 c 0,4,5
 220 1247 220 1247 223 1278 c 0,6,7
 242 1461 242 1461 365 1570.5 c 128,-1,8
 488 1680 488 1680 674 1680 c 128,-1,9
 860 1680 860 1680 960 1570 c 0,10,11
 1045 1478 1045 1478 1045 1334 c 0,12,13
 1045 1307 1045 1307 1042 1278 c 0,14,15
 1023 1095 1023 1095 899.5 984.5 c 128,-1,16
 776 874 776 874 589 874 c 0,0,1
608 1054 m 0,17,18
 702 1054 702 1054 761.5 1115.5 c 128,-1,19
 821 1177 821 1177 832 1277 c 0,20,21
 834 1295 834 1295 834 1311 c 0,22,23
 834 1387 834 1387 796 1437 c 0,24,25
 750 1498 750 1498 655 1498 c 0,26,27
 561 1498 561 1498 502 1438 c 128,-1,28
 443 1378 443 1378 432 1278 c 0,29,30
 430 1260 430 1260 430 1244 c 0,31,32
 430 1168 430 1168 468 1116 c 0,33,34
 514 1054 514 1054 608 1054 c 0,17,18
EndSplineSet
EndChar

StartChar: plusminus
Encoding: 177 177 115
Width: 972
GlyphClass: 2
Flags: W
LayerCount: 2
UndoRedoHistory
Layer: 1
Undoes
EndUndoes
Redoes
EndRedoes
EndUndoRedoHistory
Fore
SplineSet
82 0 m 1,0,-1
 103 202 l 1,1,-1
 812 202 l 1,2,-1
 791 0 l 1,3,-1
 82 0 l 1,0,-1
372 376 m 1,4,-1
 399 635 l 1,5,-1
 148 635 l 1,6,-1
 169 831 l 1,7,-1
 420 831 l 1,8,-1
 446 1089 l 1,9,-1
 655 1089 l 1,10,-1
 628 831 l 1,11,-1
 878 831 l 1,12,-1
 858 635 l 1,13,-1
 608 635 l 1,14,-1
 580 376 l 1,15,-1
 372 376 l 1,4,-1
EndSplineSet
EndChar

StartChar: twosuperior
Encoding: 178 178 116
Width: 864
GlyphClass: 2
Flags: W
LayerCount: 2
UndoRedoHistory
Layer: 1
Undoes
EndUndoes
Redoes
EndRedoes
EndUndoRedoHistory
Fore
SplineSet
155 646 m 1,0,-1
 174 838 l 1,1,-1
 493 1256 l 2,2,3
 501 1267 501 1267 538.5 1314.5 c 128,-1,4
 576 1362 576 1362 591 1384 c 128,-1,5
 606 1406 606 1406 624.5 1445.5 c 128,-1,6
 643 1485 643 1485 647 1520 c 0,7,8
 648 1531 648 1531 648 1540 c 0,9,10
 648 1579 648 1579 628 1599 c 0,11,12
 609 1618 609 1618 581 1618 c 0,13,14
 572 1618 572 1618 562 1616 c 0,15,16
 517 1608 517 1608 497 1564.5 c 128,-1,17
 477 1521 477 1521 464 1405 c 1,18,-1
 229 1405 l 1,19,-1
 235 1465 l 1,20,21
 253 1629 253 1629 342.5 1727 c 128,-1,22
 432 1825 432 1825 595 1825 c 0,23,24
 744 1826 744 1826 822 1744 c 0,25,26
 887 1676 887 1676 887 1565 c 0,27,28
 887 1542 887 1542 884 1518 c 0,29,30
 880 1483 880 1483 868 1446 c 128,-1,31
 856 1409 856 1409 846 1384.5 c 128,-1,32
 836 1360 836 1360 808.5 1318 c 128,-1,33
 781 1276 781 1276 771 1262 c 128,-1,34
 761 1248 761 1248 723.5 1198.5 c 128,-1,35
 686 1149 686 1149 680 1141 c 2,36,-1
 453 838 l 1,37,-1
 778 838 l 1,38,-1
 759 646 l 1,39,-1
 155 646 l 1,0,-1
EndSplineSet
EndChar

StartChar: threesuperior
Encoding: 179 179 117
Width: 864
GlyphClass: 2
Flags: W
LayerCount: 2
UndoRedoHistory
Layer: 1
Undoes
EndUndoes
Redoes
EndRedoes
EndUndoRedoHistory
Fore
SplineSet
458 625 m 0,0,1
 367 625 367 625 306 652 c 128,-1,2
 245 679 245 679 215.5 728 c 128,-1,3
 186 777 186 777 176 845 c 0,4,5
 171 877 171 877 171 913 c 0,6,7
 171 952 171 952 177 994 c 1,8,-1
 180 1032 l 1,9,-1
 422 1032 l 1,10,-1
 418 989 l 1,11,12
 414 953 414 953 414 926 c 0,13,14
 414 884 414 884 423 864 c 0,15,16
 438 828 438 828 484 829 c 0,17,18
 526 829 526 829 547.5 863.5 c 128,-1,19
 569 898 569 898 577 980 c 0,20,21
 580 1010 580 1010 580 1035 c 0,22,23
 580 1087 580 1087 566 1116 c 0,24,25
 545 1158 545 1158 476 1158 c 2,26,-1
 420 1158 l 1,27,-1
 437 1312 l 1,28,-1
 488 1312 l 2,29,30
 560 1312 560 1312 590 1354 c 128,-1,31
 620 1396 620 1396 629 1493 c 1,32,33
 632 1518 632 1518 632 1538 c 0,34,35
 632 1576 632 1576 622 1598 c 0,36,37
 607 1632 607 1632 564 1631.5 c 128,-1,38
 521 1631 521 1631 500.5 1597.5 c 128,-1,39
 480 1564 480 1564 472 1496 c 2,40,-1
 465 1431 l 1,41,-1
 223 1431 l 1,42,-1
 231 1502 l 1,43,44
 247 1657 247 1657 340 1741 c 128,-1,45
 433 1825 433 1825 583 1825 c 0,46,47
 734 1825 734 1825 810 1744 c 0,48,49
 872 1677 872 1677 873 1562 c 0,50,51
 873 1538 873 1538 870 1511 c 0,52,53
 859 1408 859 1408 812 1336.5 c 128,-1,54
 765 1265 765 1265 707 1251 c 1,55,56
 819 1206 819 1206 819 1045 c 0,57,58
 819 1018 819 1018 816 988 c 0,59,60
 798 820 798 820 711 722.5 c 128,-1,61
 624 625 624 625 458 625 c 0,0,1
EndSplineSet
EndChar

StartChar: acute
Encoding: 180 180 118
Width: 631
GlyphClass: 2
Flags: W
LayerCount: 2
UndoRedoHistory
Layer: 1
Undoes
EndUndoes
Redoes
EndRedoes
EndUndoRedoHistory
Fore
SplineSet
193 1246 m 1,0,-1
 360 1658 l 1,1,-1
 696 1658 l 1,2,-1
 396 1246 l 1,3,-1
 193 1246 l 1,0,-1
EndSplineSet
EndChar

StartChar: mu
Encoding: 181 181 119
Width: 1001
GlyphClass: 2
Flags: W
LayerCount: 2
UndoRedoHistory
Layer: 1
Undoes
EndUndoes
Redoes
EndRedoes
EndUndoRedoHistory
Fore
SplineSet
-3 -381 m 1,0,-1
 160 1184 l 1,1,-1
 488 1184 l 1,2,-1
 396 304 l 2,3,4
 395 291 395 291 395 280 c 0,5,6
 396 252 396 252 404 236 c 0,7,8
 416 214 416 214 454 215 c 0,9,10
 496 217 496 217 555 252 c 1,11,-1
 653 1184 l 1,12,-1
 982 1184 l 1,13,-1
 858 0 l 1,14,-1
 529 0 l 1,15,-1
 539 96 l 1,16,17
 464 32 464 32 391 7 c 0,18,19
 389 6 389 6 365 -3 c 1,20,-1
 326 -381 l 1,21,-1
 -3 -381 l 1,0,-1
EndSplineSet
EndChar

StartChar: paragraph
Encoding: 182 182 120
Width: 1064
GlyphClass: 2
Flags: W
LayerCount: 2
UndoRedoHistory
Layer: 1
Undoes
EndUndoes
Redoes
EndRedoes
EndUndoRedoHistory
Fore
SplineSet
316 -196 m 1,0,-1
 443 1007 l 1,1,2
 300 1010 300 1010 223 1095 c 0,3,4
 159 1166 159 1166 159 1284 c 0,5,6
 159 1307 159 1307 161 1331 c 0,7,8
 171 1422 171 1422 209.5 1487.5 c 128,-1,9
 248 1553 248 1553 308.5 1589 c 128,-1,10
 369 1625 369 1625 439 1641.5 c 128,-1,11
 509 1658 509 1658 593 1658 c 2,12,-1
 1050 1658 l 1,13,-1
 855 -196 l 1,14,-1
 673 -196 l 1,15,-1
 848 1474 l 1,16,-1
 685 1474 l 1,17,-1
 509 -196 l 1,18,-1
 316 -196 l 1,0,-1
EndSplineSet
EndChar

StartChar: periodcentered
Encoding: 183 183 121
Width: 451
GlyphClass: 2
Flags: W
LayerCount: 2
UndoRedoHistory
Layer: 1
Undoes
EndUndoes
Redoes
EndRedoes
EndUndoRedoHistory
Fore
SplineSet
86 618 m 1,0,-1
 118 923 l 1,1,-1
 429 923 l 1,2,-1
 397 618 l 1,3,-1
 86 618 l 1,0,-1
EndSplineSet
EndChar

StartChar: cedilla
Encoding: 184 184 122
Width: 565
GlyphClass: 4
Flags: W
AnchorPoint: "Anchor-1" 120 0 mark 0
LayerCount: 2
UndoRedoHistory
Layer: 1
Undoes
EndUndoes
Redoes
EndRedoes
EndUndoRedoHistory
Fore
SplineSet
-1 -540 m 1,0,-1
 14 -396 l 1,1,2
 54 -408 54 -408 108 -412 c 0,3,4
 119 -413 119 -413 130 -413 c 0,5,6
 173 -413 173 -413 211 -402 c 0,7,8
 259 -388 259 -388 263 -353 c 0,9,10
 267 -323 267 -323 252 -300 c 128,-1,11
 237 -277 237 -277 208.5 -264 c 128,-1,12
 180 -251 180 -251 150.5 -244 c 128,-1,13
 121 -237 121 -237 88 -234 c 1,14,-1
 112 0 l 1,15,-1
 236 0 l 1,16,-1
 222 -134 l 1,17,18
 338 -138 338 -138 412 -194 c 0,19,20
 479 -244 479 -244 480 -322 c 0,21,22
 480 -330 480 -330 479 -339 c 0,23,24
 472 -416 472 -416 424 -469 c 128,-1,25
 376 -522 376 -522 306 -544 c 0,26,27
 239 -565 239 -565 162 -564 c 0,28,29
 158 -564 158 -564 154 -564 c 0,30,31
 74 -563 74 -563 -1 -540 c 1,0,-1
EndSplineSet
EndChar

StartChar: onesuperior
Encoding: 185 185 123
Width: 861
GlyphClass: 2
Flags: W
LayerCount: 2
UndoRedoHistory
Layer: 1
Undoes
EndUndoes
Redoes
EndRedoes
EndUndoRedoHistory
Fore
SplineSet
375 646 m 1,0,-1
 470 1553 l 1,1,2
 461 1541 461 1541 268 1488 c 1,3,-1
 287 1672 l 1,4,5
 292 1674 292 1674 325 1686.5 c 128,-1,6
 358 1699 358 1699 384.5 1710.5 c 128,-1,7
 411 1722 411 1722 445 1738 c 128,-1,8
 479 1754 479 1754 505.5 1772 c 128,-1,9
 532 1790 532 1790 547 1808 c 1,10,-1
 743 1808 l 1,11,-1
 622 646 l 1,12,-1
 375 646 l 1,0,-1
EndSplineSet
EndChar

StartChar: ordmasculine
Encoding: 186 186 124
Width: 987
GlyphClass: 2
Flags: W
LayerCount: 2
UndoRedoHistory
Layer: 1
Undoes
EndUndoes
Redoes
EndRedoes
EndUndoRedoHistory
Fore
SplineSet
509 640 m 0,0,1
 344 640 344 640 260 724 c 0,2,3
 190 794 190 794 190 918 c 0,4,5
 190 943 190 943 193 970 c 2,6,-1
 233 1353 l 2,7,8
 250 1514 250 1514 352 1598.5 c 128,-1,9
 454 1683 454 1683 619 1683 c 0,10,11
 781 1683 781 1683 868 1597 c 0,12,13
 941 1525 941 1525 941 1403 c 0,14,15
 941 1379 941 1379 938 1353 c 2,16,-1
 898 970 l 2,17,18
 881 812 881 812 776 726 c 128,-1,19
 671 640 671 640 509 640 c 0,0,1
529 841 m 0,20,21
 576 841 576 841 599 875 c 128,-1,22
 622 909 622 909 628 975 c 2,23,-1
 667 1348 l 2,24,25
 669 1369 669 1369 669 1387 c 0,26,27
 669 1426 669 1426 659 1448 c 0,28,29
 644 1482 644 1482 597 1481 c 0,30,31
 513 1481 513 1481 500 1348 c 1,32,-1
 460 975 l 2,33,34
 458 956 458 956 458 940 c 0,35,36
 458 900 458 900 469 876 c 0,37,38
 484 842 484 842 529 841 c 0,20,21
EndSplineSet
EndChar

StartChar: guillemotright
Encoding: 187 187 125
Width: 1016
GlyphClass: 2
Flags: W
LayerCount: 2
UndoRedoHistory
Layer: 1
Undoes
EndUndoes
Redoes
EndRedoes
EndUndoRedoHistory
Fore
SplineSet
495 70 m 1,0,-1
 529 392 l 1,1,-1
 759 609 l 1,2,-1
 575 825 l 1,3,-1
 609 1147 l 1,4,-1
 961 667 l 1,5,-1
 949 550 l 1,6,-1
 495 70 l 1,0,-1
51 70 m 1,7,-1
 85 392 l 1,8,-1
 316 609 l 1,9,-1
 131 825 l 1,10,-1
 165 1147 l 1,11,-1
 518 667 l 1,12,-1
 506 550 l 1,13,-1
 51 70 l 1,7,-1
EndSplineSet
EndChar

StartChar: onequarter
Encoding: 188 188 126
Width: 1421
GlyphClass: 2
Flags: W
LayerCount: 2
UndoRedoHistory
Layer: 1
Undoes
EndUndoes
Redoes
EndRedoes
EndUndoRedoHistory
Fore
SplineSet
881 380 m 1,0,-1
 1030 380 l 1,1,-1
 1058 644 l 1,2,-1
 881 380 l 1,0,-1
178 0 m 1,3,-1
 1104 1658 l 1,4,-1
 1274 1658 l 1,5,-1
 347 0 l 1,6,-1
 178 0 l 1,3,-1
264 828 m 1,7,-1
 324 1391 l 1,8,-1
 196 1338 l 1,9,-1
 212 1491 l 1,10,11
 352 1560 352 1560 442 1658 c 1,12,-1
 548 1658 l 1,13,-1
 461 828 l 1,14,-1
 264 828 l 1,7,-1
990 1 m 1,15,-1
 1014 230 l 1,16,-1
 740 230 l 1,17,-1
 755 373 l 1,18,-1
 1097 860 l 1,19,-1
 1250 860 l 1,20,-1
 1200 380 l 1,21,-1
 1308 380 l 1,22,-1
 1292 230 l 1,23,-1
 1184 230 l 1,24,-1
 1160 1 l 1,25,-1
 990 1 l 1,15,-1
EndSplineSet
EndChar

StartChar: onehalf
Encoding: 189 189 127
Width: 1421
GlyphClass: 2
Flags: W
LayerCount: 2
UndoRedoHistory
Layer: 1
Undoes
EndUndoes
Redoes
EndRedoes
EndUndoRedoHistory
Fore
SplineSet
136 0 m 1,0,-1
 1062 1658 l 1,1,-1
 1232 1658 l 1,2,-1
 305 0 l 1,3,-1
 136 0 l 1,0,-1
215 828 m 1,4,-1
 274 1391 l 1,5,-1
 146 1338 l 1,6,-1
 163 1491 l 1,7,8
 306 1562 306 1562 392 1658 c 1,9,-1
 499 1658 l 1,10,-1
 412 828 l 1,11,-1
 215 828 l 1,4,-1
801 1 m 1,12,-1
 816 148 l 1,13,-1
 1035 419 l 2,14,15
 1039 424 1039 424 1055.5 444.5 c 128,-1,16
 1072 465 1072 465 1077.5 472 c 128,-1,17
 1083 479 1083 479 1097 497.5 c 128,-1,18
 1111 516 1111 516 1117 525.5 c 128,-1,19
 1123 535 1123 535 1133 552 c 128,-1,20
 1143 569 1143 569 1147.5 581.5 c 128,-1,21
 1152 594 1152 594 1156.5 609.5 c 128,-1,22
 1161 625 1161 625 1163 639 c 0,23,24
 1164 648 1164 648 1164 657 c 0,25,26
 1164 724 1164 724 1106 724 c 0,27,28
 1066 724 1066 724 1044 679 c 0,29,30
 1025 640 1025 640 1025 588 c 0,31,32
 1025 581 1025 581 1025 573 c 1,33,-1
 847 573 l 1,34,35
 848 629 848 629 850 638 c 0,36,37
 862 744 862 744 932 807.5 c 128,-1,38
 1002 871 1002 871 1118 871 c 0,39,40
 1235 871 1235 871 1295 811 c 0,41,42
 1346 760 1346 760 1346 674 c 0,43,44
 1346 658 1346 658 1344 641 c 0,45,46
 1336 563 1336 563 1294.5 494.5 c 128,-1,47
 1253 426 1253 426 1167 323 c 0,48,49
 1161 317 1161 317 1138 290 c 128,-1,50
 1115 263 1115 263 1091.5 234.5 c 128,-1,51
 1068 206 1068 206 1044.5 178 c 128,-1,52
 1021 150 1021 150 1019 148 c 1,53,-1
 1277 148 l 1,54,-1
 1262 1 l 1,55,-1
 801 1 l 1,12,-1
EndSplineSet
EndChar

StartChar: threequarters
Encoding: 190 190 128
Width: 1421
GlyphClass: 2
Flags: W
LayerCount: 2
UndoRedoHistory
Layer: 1
Undoes
EndUndoes
Redoes
EndRedoes
EndUndoRedoHistory
Fore
SplineSet
905 380 m 1,0,-1
 1054 380 l 1,1,-1
 1082 644 l 1,2,-1
 905 380 l 1,0,-1
199 0 m 1,3,-1
 1125 1658 l 1,4,-1
 1295 1658 l 1,5,-1
 368 0 l 1,6,-1
 199 0 l 1,3,-1
1014 1 m 1,7,-1
 1039 230 l 1,8,-1
 764 230 l 1,9,-1
 779 373 l 1,10,-1
 1122 860 l 1,11,-1
 1274 860 l 1,12,-1
 1224 380 l 1,13,-1
 1332 380 l 1,14,-1
 1316 230 l 1,15,-1
 1208 230 l 1,16,-1
 1184 1 l 1,17,-1
 1014 1 l 1,7,-1
365 887 m 0,18,19
 258 886 258 886 206 948 c 0,20,21
 163 999 163 999 163 1081 c 0,22,23
 163 1098 163 1098 165 1116 c 1,24,-1
 317 1116 l 1,25,26
 316 1105 316 1105 316 1095 c 0,27,28
 316 1066 316 1066 326 1048 c 0,29,30
 340 1024 340 1024 373 1023 c 0,31,32
 429 1023 429 1023 438 1115 c 0,33,34
 439 1126 439 1126 439 1136 c 0,35,36
 439 1178 439 1178 419 1194 c 0,37,38
 394 1214 394 1214 323 1213 c 1,39,-1
 335 1334 l 1,40,41
 406 1334 406 1334 436.5 1354 c 128,-1,42
 467 1374 467 1374 473 1430 c 0,43,44
 475 1446 475 1446 475 1460 c 0,45,46
 475 1488 475 1488 468 1504 c 0,47,48
 458 1528 458 1528 424 1528 c 0,49,50
 387 1528 387 1528 371 1503.5 c 128,-1,51
 355 1479 355 1479 351 1435 c 1,52,-1
 199 1435 l 1,53,54
 224 1664 224 1664 450 1664 c 0,55,56
 634 1664 634 1664 634 1486 c 0,57,58
 634 1467 634 1467 632 1445 c 0,59,60
 625 1377 625 1377 582 1332.5 c 128,-1,61
 539 1288 539 1288 485 1283 c 1,62,63
 604 1264 604 1264 604 1145 c 0,64,65
 604 1131 604 1131 602 1117 c 0,66,67
 590 1006 590 1006 529.5 946.5 c 128,-1,68
 469 887 469 887 365 887 c 0,18,19
EndSplineSet
EndChar

StartChar: questiondown
Encoding: 191 191 129
Width: 1067
GlyphClass: 2
Flags: W
LayerCount: 2
UndoRedoHistory
Layer: 1
Undoes
EndUndoes
Redoes
EndRedoes
EndUndoRedoHistory
Fore
SplineSet
504 1002 m 1,0,-1
 537 1315 l 1,1,-1
 858 1315 l 1,2,-1
 825 1002 l 1,3,-1
 504 1002 l 1,0,-1
469 -370 m 0,4,5
 251 -370 251 -370 146 -260 c 0,6,7
 58 -168 58 -168 58 -13 c 0,8,9
 58 18 58 18 62 51 c 0,10,11
 81 229 81 229 200.5 400.5 c 128,-1,12
 320 572 320 572 483 681 c 1,13,-1
 504 880 l 1,14,-1
 803 880 l 1,15,-1
 774 617 l 1,16,17
 697 557 697 557 633 494 c 128,-1,18
 569 431 569 431 512.5 357 c 128,-1,19
 456 283 456 283 423 200.5 c 128,-1,20
 390 118 390 118 386 37 c 0,21,22
 386 29 386 29 386 22 c 0,23,24
 386 -32 386 -32 412 -58 c 0,25,26
 442 -88 442 -88 492 -87 c 0,27,28
 539 -87 539 -87 570.5 -54 c 128,-1,29
 602 -21 602 -21 603 33 c 1,30,31
 604 41 604 41 604 51 c 0,32,33
 604 84 604 84 594 137 c 1,34,-1
 898 203 l 1,35,36
 912 118 912 118 912 66 c 0,37,38
 912 48 912 48 910 35 c 1,39,40
 907 -52 907 -52 880 -124 c 128,-1,41
 853 -196 853 -196 800.5 -252 c 128,-1,42
 748 -308 748 -308 663.5 -339 c 128,-1,43
 579 -370 579 -370 469 -370 c 0,4,5
EndSplineSet
EndChar

StartChar: AE
Encoding: 198 198 136
Width: 1437
GlyphClass: 2
Flags: W
LayerCount: 2
UndoRedoHistory
Layer: 1
Undoes
EndUndoes
Redoes
EndRedoes
EndUndoRedoHistory
Fore
SplineSet
552 578 m 1,0,-1
 744 578 l 1,1,-1
 799 1094 l 1,2,-1
 552 578 l 1,0,-1
-87 0 m 1,3,-1
 807 1636 l 1,4,-1
 1519 1636 l 1,5,-1
 1494 1391 l 1,6,-1
 1141 1391 l 1,7,-1
 1098 982 l 1,8,-1
 1348 982 l 1,9,-1
 1321 731 l 1,10,-1
 1071 731 l 1,11,-1
 1020 244 l 1,12,-1
 1373 244 l 1,13,-1
 1347 0 l 1,14,-1
 683 0 l 1,15,-1
 721 351 l 1,16,-1
 453 351 l 1,17,-1
 272 0 l 1,18,-1
 -87 0 l 1,3,-1
EndSplineSet
EndChar

StartChar: Eth
Encoding: 208 208 146
Width: 1141
GlyphClass: 2
Flags: W
LayerCount: 2
UndoRedoHistory
Layer: 1
Undoes
EndUndoes
Redoes
EndRedoes
EndUndoRedoHistory
Fore
SplineSet
57 0 m 1,0,-1
 137 759 l 1,1,-1
 46 759 l 1,2,-1
 65 941 l 1,3,-1
 156 941 l 1,4,-1
 231 1658 l 1,5,-1
 645 1658 l 2,6,7
 807 1658 807 1658 910.5 1629 c 128,-1,8
 1014 1600 1014 1600 1071 1534.5 c 0,9,10
 1128 1470 1128 1470 1144 1374 c 0,11,12
 1152 1325 1152 1325 1152 1262 c 0,13,14
 1152 1204 1152 1204 1145 1134 c 2,15,-1
 1082 536 l 2,16,17
 1067 391 1067 391 1030.5 293.5 c 128,-1,18
 994 196 994 196 923.5 128.5 c 128,-1,19
 853 61 853 61 744.5 30.5 c 128,-1,20
 636 0 636 0 477 0 c 2,21,-1
 57 0 l 1,0,-1
444 250 m 1,22,-1
 503 250 l 2,23,24
 554 250 554 250 588.5 260 c 128,-1,25
 623 270 623 270 644 286 c 128,-1,26
 665 302 665 302 678 335 c 128,-1,27
 691 368 691 368 696.5 399.5 c 128,-1,28
 702 431 702 431 708 487 c 2,29,-1
 782 1190 l 2,30,31
 787 1235 787 1235 787 1270 c 0,32,33
 786 1295 786 1295 784 1315 c 0,34,35
 778 1363 778 1363 741 1384.5 c 128,-1,36
 704 1406 704 1406 622 1406 c 2,37,-1
 565 1406 l 1,38,-1
 516 941 l 1,39,-1
 600 941 l 1,40,-1
 581 759 l 1,41,-1
 497 759 l 1,42,-1
 444 250 l 1,22,-1
EndSplineSet
EndChar

StartChar: multiply
Encoding: 215 215 153
Width: 982
GlyphClass: 2
Flags: W
LayerCount: 2
UndoRedoHistory
Layer: 1
Undoes
EndUndoes
Redoes
EndRedoes
EndUndoRedoHistory
Fore
SplineSet
261 469 m 1,0,-1
 126 619 l 1,1,-1
 381 850 l 1,2,-1
 174 1079 l 1,3,-1
 340 1230 l 1,4,-1
 546 1000 l 1,5,-1
 801 1230 l 1,6,-1
 935 1081 l 1,7,-1
 680 850 l 1,8,-1
 887 619 l 1,9,-1
 723 469 l 1,10,-1
 515 700 l 1,11,-1
 261 469 l 1,0,-1
EndSplineSet
EndChar

StartChar: Oslash
Encoding: 216 216 154
Width: 1166
GlyphClass: 2
Flags: W
LayerCount: 2
UndoRedoHistory
Layer: 1
Undoes
EndUndoes
Redoes
EndRedoes
EndUndoRedoHistory
Fore
SplineSet
491 699 m 1,0,-1
 800 1357 l 1,1,2
 778 1426 778 1426 695 1426 c 0,3,4
 653 1426 653 1426 624 1410 c 128,-1,5
 595 1394 595 1394 580 1362.5 c 128,-1,6
 565 1331 565 1331 558 1301 c 128,-1,7
 551 1271 551 1271 546 1226 c 2,8,-1
 491 699 l 1,0,-1
570 232 m 0,9,10
 612 232 612 232 641.5 248.5 c 128,-1,11
 671 265 671 265 686.5 297 c 128,-1,12
 702 329 702 329 709.5 360 c 128,-1,13
 717 391 717 391 722 436 c 2,14,-1
 796 1153 l 1,15,-1
 465 448 l 1,16,-1
 464 436 l 2,17,18
 460 389 460 389 460 348 c 0,19,20
 460 344 460 344 460 338 c 0,21,22
 460 292 460 292 487.5 262 c 128,-1,23
 515 232 515 232 570 232 c 0,9,10
170 -180 m 1,24,-1
 93 -148 l 1,25,-1
 202 84 l 1,26,27
 97 188 97 188 97 407 c 0,28,29
 97 462 97 462 104 524 c 2,30,-1
 168 1137 l 2,31,32
 196 1407 196 1407 325 1544 c 128,-1,33
 454 1681 454 1681 722 1681 c 0,34,35
 851 1681 851 1681 938 1650 c 1,36,-1
 1013 1809 l 1,37,-1
 1090 1778 l 1,38,-1
 1013 1614 l 1,39,40
 1170 1515 1170 1515 1170 1250 c 0,41,42
 1170 1197 1170 1197 1164 1137 c 2,43,-1
 1100 524 l 2,44,45
 1072 255 1072 255 941.5 116 c 128,-1,46
 811 -23 811 -23 543 -23 c 0,47,48
 375 -23 375 -23 270 34 c 1,49,-1
 170 -180 l 1,24,-1
EndSplineSet
EndChar

StartChar: Thorn
Encoding: 222 222 160
Width: 1140
GlyphClass: 2
Flags: W
LayerCount: 2
UndoRedoHistory
Layer: 1
Undoes
EndUndoes
Redoes
EndRedoes
EndUndoRedoHistory
Fore
SplineSet
494 735 m 1,0,-1
 607 735 l 2,1,2
 717 735 717 735 768 785 c 128,-1,3
 819 835 819 835 832 958 c 1,4,5
 835 985 835 985 835 1008 c 0,6,7
 835 1086 835 1086 806 1125 c 0,8,9
 769 1176 769 1176 666 1176 c 2,10,-1
 541 1176 l 1,11,-1
 494 735 l 1,0,-1
57 0 m 1,12,-1
 231 1658 l 1,13,-1
 591 1658 l 1,14,-1
 568 1437 l 1,15,-1
 730 1437 l 2,16,17
 977 1437 977 1437 1083 1327 c 0,18,19
 1168 1239 1168 1239 1168 1064 c 0,20,21
 1168 1021 1168 1021 1163 973 c 0,22,23
 1148 828 1148 828 1108 732 c 128,-1,24
 1068 636 1068 636 997 580 c 128,-1,25
 926 524 926 524 834 501 c 128,-1,26
 742 478 742 478 609 477 c 1,27,-1
 467 477 l 1,28,-1
 417 0 l 1,29,-1
 57 0 l 1,12,-1
EndSplineSet
EndChar

StartChar: germandbls
Encoding: 223 223 161
Width: 1109
GlyphClass: 2
Flags: W
LayerCount: 2
UndoRedoHistory
Layer: 1
Undoes
EndUndoes
Redoes
EndRedoes
EndUndoRedoHistory
Fore
SplineSet
466 -29 m 1,0,-1
 493 222 l 1,1,2
 604 222 604 222 662 286 c 128,-1,3
 720 350 720 350 727 501 c 0,4,5
 727 510 727 510 727 519 c 0,6,7
 727 603 727 603 685 658 c 0,8,9
 638 719 638 719 560 719 c 1,10,-1
 585 974 l 1,11,12
 659 974 659 974 703.5 1040 c 128,-1,13
 748 1106 748 1106 762 1230 c 1,14,15
 765 1259 765 1259 765 1284 c 0,16,17
 765 1352 765 1352 743 1394 c 0,18,19
 713 1450 713 1450 648 1451 c 0,20,21
 522 1451 522 1451 503 1229 c 1,22,-1
 374 0 l 1,23,-1
 46 0 l 1,24,-1
 175 1228 l 2,25,26
 182 1299 182 1299 202.5 1363.5 c 128,-1,27
 223 1428 223 1428 261 1486.5 c 128,-1,28
 299 1545 299 1545 351 1588 c 128,-1,29
 403 1631 403 1631 477.5 1656.5 c 128,-1,30
 552 1682 552 1682 642 1682 c 0,31,32
 870 1682 870 1682 968 1567 c 0,33,34
 1048 1473 1048 1473 1048 1312 c 0,35,36
 1048 1276 1048 1276 1044 1236 c 0,37,38
 1017 979 1017 979 768 878 c 1,39,40
 916 836 916 836 991 724 c 0,41,42
 1053 632 1053 632 1053 514 c 0,43,44
 1053 489 1053 489 1050 463 c 0,45,46
 1024 206 1024 206 875 88.5 c 128,-1,47
 726 -29 726 -29 466 -29 c 1,0,-1
EndSplineSet
EndChar

StartChar: ae
Encoding: 230 230 168
Width: 1368
GlyphClass: 2
Flags: W
LayerCount: 2
UndoRedoHistory
Layer: 1
Undoes
EndUndoes
Redoes
EndRedoes
EndUndoRedoHistory
Fore
SplineSet
879 743 m 1,0,1
 904 746 904 746 937 756.5 c 128,-1,2
 970 767 970 767 983 778 c 1,3,4
 1020 795 1020 795 1040 822 c 128,-1,5
 1060 849 1060 849 1065 898 c 0,6,7
 1067 912 1067 912 1067 925 c 0,8,9
 1067 961 1067 961 1054 983 c 0,10,11
 1037 1013 1037 1013 1000 1013 c 0,12,13
 959 1013 959 1013 929.5 975 c 128,-1,14
 900 937 900 937 894 875 c 1,15,-1
 879 743 l 1,0,1
412 202 m 0,16,17
 457 202 457 202 489 238 c 128,-1,18
 521 274 521 274 529 353 c 2,19,-1
 547 543 l 1,20,21
 507 531 507 531 480 516 c 0,22,23
 415 480 415 480 379 423.5 c 128,-1,24
 343 367 343 367 338 317 c 0,25,26
 337 309 337 309 337 302 c 0,27,28
 337 268 337 268 352 238 c 0,29,30
 370 202 370 202 412 202 c 0,16,17
311 -24 m 0,31,32
 184 -20 184 -20 106 60 c 0,33,34
 40 128 40 128 40 236 c 0,35,36
 40 256 40 256 42 276 c 0,37,38
 50 349 50 349 74 408.5 c 128,-1,39
 98 468 98 468 131.5 507.5 c 128,-1,40
 165 547 165 547 211.5 577.5 c 128,-1,41
 258 608 258 608 303.5 626 c 128,-1,42
 349 644 349 644 404 657 c 0,43,44
 460 670 460 670 562 690 c 1,45,-1
 578 839 l 2,46,47
 580 856 580 856 580 870 c 0,48,49
 580 955 580 955 514 955 c 0,50,51
 474 955 474 955 451 920.5 c 128,-1,52
 428 886 428 886 419 800 c 1,53,-1
 100 800 l 1,54,55
 119 1006 119 1006 225.5 1118.5 c 128,-1,56
 332 1231 332 1231 520 1231 c 0,57,58
 613 1231 613 1231 675.5 1188 c 128,-1,59
 738 1145 738 1145 749 1076 c 1,60,61
 783 1143 783 1143 859.5 1187 c 128,-1,62
 936 1231 936 1231 1027 1231 c 0,63,64
 1112 1231 1112 1231 1177.5 1204 c 128,-1,65
 1243 1177 1243 1177 1280 1131 c 0,66,67
 1317 1084 1317 1084 1333 1028 c 0,68,69
 1344 989 1344 989 1344 947 c 0,70,71
 1344 929 1344 929 1342 910 c 0,72,73
 1336 854 1336 854 1312 809 c 128,-1,74
 1288 764 1288 764 1255 734 c 128,-1,75
 1222 704 1222 704 1174 679.5 c 128,-1,76
 1126 655 1126 655 1081 641 c 128,-1,77
 1036 627 1036 627 979 615 c 1,78,79
 949 607 949 607 864 593 c 1,80,-1
 845 406 l 2,81,82
 838 340 838 340 838 300 c 0,83,84
 838 270 838 270 842 255 c 0,85,86
 853 212 853 212 893 212 c 0,87,88
 911 212 911 212 924 220 c 128,-1,89
 937 228 937 228 944.5 238.5 c 128,-1,90
 952 249 952 249 957.5 270.5 c 128,-1,91
 963 292 963 292 965 307 c 128,-1,92
 967 322 967 322 970 352 c 2,93,-1
 977 414 l 1,94,-1
 1282 414 l 1,95,-1
 1272 323 l 2,96,97
 1254 157 1254 157 1156.5 67 c 128,-1,98
 1059 -23 1059 -23 892 -24 c 0,99,100
 801 -24 801 -24 725 27 c 128,-1,101
 649 78 649 78 639 164 c 1,102,103
 591 76 591 76 500 24 c 0,104,105
 414 -25 414 -25 322 -24 c 0,106,107
 316 -24 316 -24 311 -24 c 0,31,32
EndSplineSet
EndChar

StartChar: eth
Encoding: 240 240 178
Width: 1060
GlyphClass: 2
Flags: W
LayerCount: 2
UndoRedoHistory
Layer: 1
Undoes
EndUndoes
Redoes
EndRedoes
EndUndoRedoHistory
Fore
SplineSet
497 193 m 0,0,1
 555 193 555 193 581 234.5 c 128,-1,2
 607 276 607 276 615 357 c 2,3,-1
 676 943 l 1,4,5
 675 944 675 944 664 950.5 c 128,-1,6
 653 957 653 957 646 960 c 128,-1,7
 639 963 639 963 626 966.5 c 128,-1,8
 613 970 613 970 599 970 c 0,9,10
 528 970 528 970 497.5 893 c 128,-1,11
 467 816 467 816 443 593 c 0,12,13
 440 563 440 563 434 508 c 1,14,15
 417 396 417 396 417 324 c 0,16,17
 417 294 417 294 420 271 c 0,18,19
 430 193 430 193 497 193 c 0,0,1
472 -29 m 0,20,21
 276 -30 276 -30 178 84 c 0,22,23
 99 175 99 175 99 344 c 0,24,25
 99 387 99 387 104 435 c 2,26,-1
 138 762 l 1,27,28
 159 953 159 953 272.5 1070 c 128,-1,29
 386 1187 386 1187 542 1187 c 0,30,31
 630 1187 630 1187 697 1146 c 1,32,33
 700 1184 700 1184 700 1217 c 0,34,35
 700 1326 700 1326 669 1373 c 1,36,-1
 476 1280 l 1,37,-1
 450 1368 l 1,38,-1
 624 1452 l 1,39,40
 576 1517 576 1517 376 1517 c 1,41,-1
 413 1722 l 1,42,43
 759 1722 759 1722 874 1582 c 1,44,-1
 1069 1678 l 1,45,-1
 1094 1588 l 1,46,-1
 926 1506 l 1,47,48
 945 1468 945 1468 961 1418.5 c 128,-1,49
 977 1369 977 1369 992.5 1288.5 c 128,-1,50
 1008 1208 1008 1208 1009 1116 c 0,51,52
 1009 1108 1009 1108 1009 1099 c 0,53,54
 1009 1013 1009 1013 1000 901 c 1,55,-1
 953 445 l 1,56,57
 903 -29 903 -29 472 -29 c 0,20,21
EndSplineSet
EndChar

StartChar: divide
Encoding: 247 247 185
Width: 917
GlyphClass: 2
Flags: W
LayerCount: 2
UndoRedoHistory
Layer: 1
Undoes
EndUndoes
Redoes
EndRedoes
EndUndoRedoHistory
Fore
SplineSet
429 1086 m 1,0,-1
 455 1340 l 1,1,-1
 661 1340 l 1,2,-1
 635 1086 l 1,3,-1
 429 1086 l 1,0,-1
98 766 m 1,4,-1
 117 946 l 1,5,-1
 898 946 l 1,6,-1
 879 766 l 1,7,-1
 98 766 l 1,4,-1
352 357 m 1,8,-1
 379 611 l 1,9,-1
 585 611 l 1,10,-1
 558 357 l 1,11,-1
 352 357 l 1,8,-1
EndSplineSet
EndChar

StartChar: oslash
Encoding: 248 248 186
Width: 972
GlyphClass: 2
Flags: W
LayerCount: 2
UndoRedoHistory
Layer: 1
Undoes
EndUndoes
Redoes
EndRedoes
EndUndoRedoHistory
Fore
SplineSet
414 560 m 1,0,-1
 608 945 l 1,1,2
 591 983 591 983 544 983 c 0,3,4
 496 983 496 983 473 945 c 128,-1,5
 450 907 450 907 443 835 c 2,6,-1
 414 560 l 1,0,-1
461 201 m 0,7,8
 510 201 510 201 533 237.5 c 128,-1,9
 556 274 556 274 564 348 c 2,10,-1
 608 765 l 1,11,-1
 391 335 l 1,12,13
 389 317 389 317 389 301 c 0,14,15
 388 260 388 260 400 235 c 0,16,17
 416 201 416 201 461 201 c 0,7,8
128 -186 m 1,18,-1
 55 -155 l 1,19,-1
 165 64 l 1,20,21
 67 150 67 150 67 309 c 0,22,23
 67 339 67 339 70 371 c 2,24,-1
 117 813 l 1,25,26
 136 1003 136 1003 254.5 1103.5 c 128,-1,27
 373 1204 373 1204 566 1204 c 0,28,29
 657 1204 657 1204 726 1182 c 1,30,-1
 826 1380 l 1,31,-1
 902 1348 l 1,32,-1
 801 1149 l 1,33,34
 941 1065 941 1065 941 878 c 0,35,36
 941 847 941 847 937 813 c 1,37,-1
 891 371 l 2,38,39
 871 181 871 181 751.5 80.5 c 128,-1,40
 632 -20 632 -20 438 -20 c 0,41,42
 315 -20 315 -20 232 20 c 1,43,-1
 128 -186 l 1,18,-1
EndSplineSet
EndChar

StartChar: thorn
Encoding: 254 254 192
Width: 1008
GlyphClass: 2
Flags: W
LayerCount: 2
UndoRedoHistory
Layer: 1
Undoes
EndUndoes
Redoes
EndRedoes
EndUndoRedoHistory
Fore
SplineSet
488 195 m 0,0,1
 489 195 489 195 490 195 c 0,2,3
 532 195 532 195 556 234 c 0,4,5
 580 274 580 274 587 339 c 2,6,-1
 643 873 l 1,7,8
 645 889 645 889 645 903 c 0,9,10
 645 940 645 940 632 968 c 0,11,12
 615 1003 615 1003 576 1002 c 0,13,14
 573 1002 573 1002 569 1002 c 0,15,16
 531 999 531 999 475 962 c 1,17,-1
 398 226 l 1,18,19
 442 196 442 196 488 195 c 0,0,1
5 -390 m 1,20,-1
 220 1658 l 1,21,-1
 548 1658 l 1,22,-1
 490 1097 l 1,23,24
 622 1204 622 1204 745 1204 c 0,25,26
 749 1204 749 1204 754 1204 c 0,27,28
 842 1202 842 1202 895 1149.5 c 128,-1,29
 948 1097 948 1097 964 1021 c 0,30,31
 974 974 974 974 974 920 c 0,32,33
 974 886 974 886 970 849 c 2,34,-1
 918 355 l 2,35,36
 900 185 900 185 822 82.5 c 128,-1,37
 744 -20 744 -20 617 -20 c 0,38,39
 495 -20 495 -20 383 89 c 1,40,-1
 333 -390 l 1,41,-1
 5 -390 l 1,20,-1
EndSplineSet
EndChar

StartChar: Dcroat
Encoding: 272 272 202
Width: 1199
GlyphClass: 2
Flags: W
LayerCount: 2
UndoRedoHistory
Layer: 1
Undoes
EndUndoes
Redoes
EndRedoes
EndUndoRedoHistory
Fore
SplineSet
81 0 m 1,0,-1
 161 766 l 1,1,-1
 57 766 l 1,2,-1
 75 934 l 1,3,-1
 179 934 l 1,4,-1
 255 1658 l 1,5,-1
 669 1658 l 2,6,7
 831 1658 831 1658 934.5 1629 c 128,-1,8
 1038 1600 1038 1600 1095 1534.5 c 0,9,10
 1152 1470 1152 1470 1168 1374 c 0,11,12
 1176 1325 1176 1325 1176 1262 c 0,13,14
 1176 1204 1176 1204 1169 1134 c 2,15,-1
 1106 536 l 2,16,17
 1091 391 1091 391 1054.5 293.5 c 128,-1,18
 1018 196 1018 196 947.5 128.5 c 128,-1,19
 877 61 877 61 768.5 30.5 c 128,-1,20
 660 0 660 0 501 0 c 2,21,-1
 81 0 l 1,0,-1
459 250 m 1,22,-1
 533 250 l 2,23,24
 576 250 576 250 607 255.5 c 128,-1,25
 638 261 638 261 659.5 276 c 128,-1,26
 681 291 681 291 694 307.5 c 128,-1,27
 707 324 707 324 716 355 c 128,-1,28
 725 386 725 386 729.5 413 c 128,-1,29
 734 440 734 440 739 487 c 2,30,-1
 813 1190 l 2,31,32
 818 1235 818 1235 818 1270 c 0,33,34
 818 1295 818 1295 816 1315 c 0,35,36
 810 1363 810 1363 772.5 1384.5 c 128,-1,37
 735 1406 735 1406 653 1406 c 2,38,-1
 581 1406 l 1,39,-1
 531 934 l 1,40,-1
 630 934 l 1,41,-1
 613 766 l 1,42,-1
 513 766 l 1,43,-1
 459 250 l 1,22,-1
EndSplineSet
EndChar

StartChar: Eng
Encoding: 330 330 207
Width: 1156
GlyphClass: 2
Flags: W
LayerCount: 2
UndoRedoHistory
Layer: 1
Undoes
EndUndoes
Redoes
EndRedoes
EndUndoRedoHistory
Fore
SplineSet
409 -426 m 1,0,-1
 432 -211 l 1,1,2
 435 -211 435 -211 439 -211 c 0,3,4
 572 -211 572 -211 626 -171 c 0,5,6
 682 -130 682 -130 695 -24 c 1,7,-1
 713 153 l 1,8,-1
 474 871 l 1,9,-1
 382 0 l 1,10,-1
 79 0 l 1,11,-1
 253 1658 l 1,12,-1
 506 1658 l 1,13,-1
 772 847 l 1,14,-1
 857 1658 l 1,15,-1
 1152 1658 l 1,16,-1
 978 0 l 2,17,18
 966 -111 966 -111 941.5 -185.5 c 128,-1,19
 917 -260 917 -260 870 -316.5 c 128,-1,20
 823 -373 823 -373 745.5 -399.5 c 128,-1,21
 668 -426 668 -426 555 -426 c 2,22,-1
 409 -426 l 1,0,-1
EndSplineSet
EndChar

StartChar: Euro
Encoding: 8364 8364 209
Width: 1137
GlyphClass: 2
Flags: W
LayerCount: 2
UndoRedoHistory
Layer: 1
Undoes
EndUndoes
Redoes
EndRedoes
EndUndoRedoHistory
Fore
SplineSet
559 -23 m 0,0,1
 448 -23 448 -23 365.5 2.5 c 128,-1,2
 283 28 283 28 232.5 75.5 c 128,-1,3
 182 123 182 123 152.5 191.5 c 0,4,5
 122 260 122 260 118 346 c 0,6,7
 116 374 116 374 117 404 c 0,8,9
 117 465 117 465 123 533 c 1,10,-1
 134 643 l 1,11,-1
 30 643 l 1,12,-1
 42 762 l 1,13,-1
 146 762 l 1,14,-1
 160 887 l 1,15,-1
 56 887 l 1,16,-1
 68 1006 l 1,17,-1
 172 1006 l 1,18,-1
 185 1123 l 2,19,20
 199 1258 199 1258 234 1357 c 128,-1,21
 269 1456 269 1456 333 1531 c 128,-1,22
 397 1606 397 1606 498 1643.5 c 128,-1,23
 599 1681 599 1681 738 1681 c 0,24,25
 871 1681 871 1681 961.5 1647 c 128,-1,26
 1052 1613 1052 1613 1098.5 1547 c 128,-1,27
 1145 1481 1145 1481 1160 1397 c 0,28,29
 1168 1350 1168 1350 1168 1295 c 0,30,31
 1168 1251 1168 1251 1163 1202 c 2,32,-1
 1152 1101 l 1,33,-1
 800 1101 l 1,34,-1
 812 1221 l 1,35,36
 816 1272 816 1272 818 1318 c 0,37,38
 818 1321 818 1321 818 1325 c 0,39,40
 818 1366 818 1366 794 1395 c 0,41,42
 768 1426 768 1426 712 1426 c 0,43,44
 669 1426 669 1426 639.5 1409 c 128,-1,45
 610 1392 610 1392 594 1357.5 c 128,-1,46
 578 1323 578 1323 571 1291.5 c 128,-1,47
 564 1260 564 1260 559 1210 c 2,48,-1
 539 1006 l 1,49,-1
 747 1006 l 1,50,-1
 734 887 l 1,51,-1
 526 887 l 1,52,-1
 513 762 l 1,53,-1
 721 762 l 1,54,-1
 708 643 l 1,55,-1
 500 643 l 1,56,-1
 480 445 l 2,57,58
 476 405 476 405 476 372 c 0,59,60
 476 352 476 352 478 334 c 0,61,62
 482 286 482 286 508.5 259 c 128,-1,63
 535 232 535 232 587 232 c 0,64,65
 621 232 621 232 646.5 245 c 128,-1,66
 672 258 672 258 686 275.5 c 128,-1,67
 700 293 700 293 710 325 c 128,-1,68
 720 357 720 357 723.5 380.5 c 128,-1,69
 727 404 727 404 731 445 c 2,70,-1
 740 529 l 1,71,-1
 1092 529 l 1,72,-1
 1086 473 l 2,73,74
 1074 360 1074 360 1042 274 c 128,-1,75
 1010 188 1010 188 950.5 119 c 128,-1,76
 891 50 891 50 792 13.5 c 128,-1,77
 693 -23 693 -23 559 -23 c 0,0,1
EndSplineSet
EndChar

StartChar: Hbar
Encoding: 294 294 214
Width: 1112
GlyphClass: 2
Flags: W
LayerCount: 2
UndoRedoHistory
Layer: 1
Undoes
EndUndoes
Redoes
EndRedoes
EndUndoRedoHistory
Fore
SplineSet
495 986 m 1,0,-1
 746 986 l 1,1,-1
 774 1258 l 1,2,-1
 523 1258 l 1,3,-1
 495 986 l 1,0,-1
31 0 m 1,4,-1
 163 1258 l 1,5,-1
 60 1258 l 1,6,-1
 72 1375 l 1,7,-1
 176 1375 l 1,8,-1
 205 1658 l 1,9,-1
 565 1658 l 1,10,-1
 536 1375 l 1,11,-1
 786 1375 l 1,12,-1
 816 1658 l 1,13,-1
 1176 1658 l 1,14,-1
 1146 1375 l 1,15,-1
 1229 1375 l 1,16,-1
 1217 1258 l 1,17,-1
 1134 1258 l 1,18,-1
 1002 0 l 1,19,-1
 642 0 l 1,20,-1
 719 728 l 1,21,-1
 468 728 l 1,22,-1
 391 0 l 1,23,-1
 31 0 l 1,4,-1
EndSplineSet
EndChar

StartChar: Lslash
Encoding: 321 321 227
Width: 916
GlyphClass: 2
Flags: W
LayerCount: 2
UndoRedoHistory
Layer: 1
Undoes
EndUndoes
Redoes
EndRedoes
EndUndoRedoHistory
Fore
SplineSet
87 0 m 1,0,-1
 164 734 l 1,1,-1
 34 673 l 1,2,-1
 55 876 l 1,3,-1
 186 937 l 1,4,-1
 261 1658 l 1,5,-1
 621 1658 l 1,6,-1
 563 1108 l 1,7,-1
 776 1207 l 1,8,-1
 755 1004 l 1,9,-1
 542 905 l 1,10,-1
 473 244 l 1,11,-1
 854 244 l 1,12,-1
 828 0 l 1,13,-1
 87 0 l 1,0,-1
EndSplineSet
EndChar

StartChar: OE
Encoding: 338 338 231
Width: 1469
GlyphClass: 2
Flags: W
LayerCount: 2
UndoRedoHistory
Layer: 1
Undoes
EndUndoes
Redoes
EndRedoes
EndUndoRedoHistory
Fore
SplineSet
582 249 m 2,0,-1
 682 249 l 1,1,-1
 803 1398 l 1,2,-1
 702 1398 l 2,3,4
 661 1398 661 1398 630.5 1381 c 128,-1,5
 600 1364 600 1364 583 1341 c 128,-1,6
 566 1318 566 1318 554 1276 c 128,-1,7
 542 1234 542 1234 537 1203 c 128,-1,8
 532 1172 532 1172 527 1121 c 2,9,-1
 462 504 l 2,10,11
 458 457 458 457 456 426 c 0,12,13
 456 418 456 418 455 410 c 0,14,15
 454 386 454 386 458 358 c 0,16,17
 462 321 462 321 475.5 299.5 c 128,-1,18
 489 278 489 278 515.5 263.5 c 128,-1,19
 542 249 542 249 582 249 c 2,0,-1
555 0 m 2,20,21
 443 0 443 0 359.5 25.5 c 128,-1,22
 276 51 276 51 223.5 99 c 128,-1,23
 171 147 171 147 140.5 216 c 0,24,25
 110 284 110 284 104 372 c 0,26,27
 102 405 102 405 102 441 c 0,28,29
 102 500 102 500 108 565 c 1,30,-1
 161 1066 l 2,31,32
 223 1652 223 1652 722 1653 c 1,33,-1
 1538 1653 l 1,34,-1
 1513 1407 l 1,35,-1
 1164 1407 l 1,36,-1
 1119 982 l 1,37,-1
 1379 982 l 1,38,-1
 1353 730 l 1,39,-1
 1092 730 l 1,40,-1
 1041 244 l 1,41,-1
 1392 244 l 1,42,-1
 1366 0 l 1,43,-1
 555 0 l 2,20,21
EndSplineSet
EndChar

StartChar: Pi
Encoding: 928 928 235
Width: 1242
GlyphClass: 2
Flags: W
LayerCount: 2
UndoRedoHistory
Layer: 1
Undoes
EndUndoes
Redoes
EndRedoes
EndUndoRedoHistory
Fore
SplineSet
57 0 m 1,0,-1
 231 1658 l 1,1,-1
 1259 1658 l 1,2,-1
 1085 0 l 1,3,-1
 764 0 l 1,4,-1
 912 1400 l 1,5,-1
 524 1400 l 1,6,-1
 377 0 l 1,7,-1
 57 0 l 1,0,-1
EndSplineSet
EndChar

StartChar: Tbar
Encoding: 358 358 244
Width: 909
GlyphClass: 2
Flags: W
LayerCount: 2
UndoRedoHistory
Layer: 1
Undoes
EndUndoes
Redoes
EndRedoes
EndUndoRedoHistory
Fore
SplineSet
198 0 m 1,0,-1
 278 758 l 1,1,-1
 94 758 l 1,2,-1
 113 933 l 1,3,-1
 296 933 l 1,4,-1
 344 1392 l 1,5,-1
 87 1392 l 1,6,-1
 115 1658 l 1,7,-1
 987 1658 l 1,8,-1
 959 1392 l 1,9,-1
 705 1392 l 1,10,-1
 657 933 l 1,11,-1
 857 933 l 1,12,-1
 838 758 l 1,13,-1
 638 758 l 1,14,-1
 558 0 l 1,15,-1
 198 0 l 1,0,-1
EndSplineSet
EndChar

StartChar: acutecomb
Encoding: 769 769 264
Width: 442
GlyphClass: 2
Flags: W
LayerCount: 2
UndoRedoHistory
Layer: 1
Undoes
EndUndoes
Redoes
EndRedoes
EndUndoRedoHistory
Fore
SplineSet
136 1246 m 1,0,-1
 304 1658 l 1,1,-1
 640 1658 l 1,2,-1
 339 1246 l 1,3,-1
 136 1246 l 1,0,-1
EndSplineSet
EndChar

StartChar: afii10018
Encoding: 1041 1041 266
Width: 1125
GlyphClass: 2
Flags: W
LayerCount: 2
UndoRedoHistory
Layer: 1
Undoes
EndUndoes
Redoes
EndRedoes
EndUndoRedoHistory
Fore
SplineSet
464 239 m 1,0,-1
 507 239 l 2,1,2
 613 239 613 239 663 296.5 c 128,-1,3
 713 354 713 354 724 488 c 0,4,5
 726 510 726 510 726 529 c 0,6,7
 726 606 726 606 697 652 c 0,8,9
 661 708 661 708 552 709 c 2,10,-1
 514 709 l 1,11,-1
 464 239 l 1,0,-1
79 0 m 1,12,-1
 253 1658 l 1,13,-1
 1070 1658 l 1,14,-1
 1041 1386 l 1,15,-1
 584 1386 l 1,16,-1
 540 959 l 1,17,-1
 609 959 l 2,18,19
 855 959 855 959 969 844 c 0,20,21
 1062 750 1062 750 1062 569 c 0,22,23
 1062 528 1062 528 1057 481 c 0,24,25
 1045 364 1045 364 1009 277.5 c 128,-1,26
 973 191 973 191 922.5 138.5 c 128,-1,27
 872 86 872 86 799 54.5 c 128,-1,28
 726 23 726 23 651 11.5 c 128,-1,29
 576 0 576 0 479 0 c 2,30,-1
 79 0 l 1,12,-1
EndSplineSet
EndChar

StartChar: afii10019
Encoding: 1042 1042 267
Width: 1199
GlyphClass: 2
Flags: W
LayerCount: 2
UndoRedoHistory
Layer: 1
Undoes
EndUndoes
Redoes
EndRedoes
EndUndoRedoHistory
Fore
SplineSet
544 993 m 1,0,-1
 615 993 l 2,1,2
 735 993 735 993 784 1046.5 c 128,-1,3
 833 1100 833 1100 846 1218 c 1,4,5
 848 1235 848 1235 848 1251 c 0,6,7
 848 1328 848 1328 806 1368 c 0,8,9
 756 1416 756 1416 644 1416 c 2,10,-1
 588 1416 l 1,11,-1
 544 993 l 1,0,-1
465 252 m 1,12,-1
 545 252 l 2,13,14
 666 252 666 252 720.5 310.5 c 128,-1,15
 775 369 775 369 788 495 c 0,16,17
 792 531 792 531 792 562 c 0,18,19
 792 652 792 652 760 696 c 0,20,21
 716 755 716 755 592 755 c 2,22,-1
 518 755 l 1,23,-1
 465 252 l 1,12,-1
79 0 m 1,24,-1
 253 1658 l 1,25,-1
 683 1658 l 2,26,27
 733 1658 733 1658 775.5 1655 c 128,-1,28
 818 1652 818 1652 863 1645 c 128,-1,29
 908 1638 908 1638 943.5 1626.5 c 128,-1,30
 979 1615 979 1615 1014 1597.5 c 128,-1,31
 1049 1580 1049 1580 1073.5 1556 c 128,-1,32
 1098 1532 1098 1532 1120 1499.5 c 128,-1,33
 1142 1467 1142 1467 1151.5 1426.5 c 128,-1,34
 1161 1386 1161 1386 1166 1336 c 0,35,36
 1168 1319 1168 1319 1168 1301 c 0,37,38
 1168 1265 1168 1265 1161 1225 c 1,39,40
 1125 932 1125 932 882 891 c 1,41,42
 1024 871 1024 871 1088 770 c 0,43,44
 1138 690 1138 690 1138 563 c 0,45,46
 1138 529 1138 529 1134 491 c 0,47,48
 1111 241 1111 241 970 120.5 c 128,-1,49
 829 0 829 0 586 0 c 2,50,-1
 79 0 l 1,24,-1
EndSplineSet
EndChar

StartChar: afii10020
Encoding: 1043 1043 268
Width: 936
GlyphClass: 2
Flags: W
LayerCount: 2
UndoRedoHistory
Layer: 1
Undoes
EndUndoes
Redoes
EndRedoes
EndUndoRedoHistory
Fore
SplineSet
79 0 m 1,0,-1
 253 1658 l 1,1,-1
 1010 1658 l 1,2,-1
 982 1392 l 1,3,-1
 585 1392 l 1,4,-1
 439 0 l 1,5,-1
 79 0 l 1,0,-1
EndSplineSet
EndChar

StartChar: afii10021
Encoding: 1044 1044 269
Width: 1413
GlyphClass: 2
Flags: W
LayerCount: 2
UndoRedoHistory
Layer: 1
Undoes
EndUndoes
Redoes
EndRedoes
EndUndoRedoHistory
Fore
SplineSet
401 257 m 1,0,-1
 830 257 l 1,1,-1
 950 1403 l 1,2,-1
 792 1403 l 1,3,-1
 737 1050 l 2,4,5
 717 926 717 926 693.5 823.5 c 128,-1,6
 670 721 670 721 649.5 649.5 c 128,-1,7
 629 578 629 578 601 517.5 c 128,-1,8
 573 457 573 457 553 422 c 128,-1,9
 533 387 533 387 501.5 351.5 c 128,-1,10
 470 316 470 316 452 300 c 128,-1,11
 434 284 434 284 401 257 c 1,0,-1
-53 -355 m 1,12,-1
 12 257 l 1,13,-1
 63 257 l 1,14,15
 145 286 145 286 210 369.5 c 128,-1,16
 275 453 275 453 335 632 c 128,-1,17
 395 811 395 811 443 1090 c 1,18,-1
 544 1658 l 1,19,-1
 1313 1658 l 1,20,-1
 1167 257 l 1,21,-1
 1354 257 l 1,22,-1
 1289 -355 l 1,23,-1
 1049 -355 l 1,24,-1
 1066 0 l 1,25,-1
 256 0 l 1,26,-1
 199 -355 l 1,27,-1
 -53 -355 l 1,12,-1
EndSplineSet
EndChar

StartChar: afii10024
Encoding: 1046 1046 272
Width: 1612
GlyphClass: 2
Flags: W
LayerCount: 2
UndoRedoHistory
Layer: 1
Undoes
EndUndoes
Redoes
EndRedoes
EndUndoRedoHistory
Fore
SplineSet
-41 0 m 1,0,-1
 398 834 l 1,1,-1
 145 1658 l 1,2,-1
 482 1658 l 1,3,-1
 689 880 l 1,4,-1
 706 880 l 1,5,-1
 788 1658 l 1,6,-1
 1073 1658 l 1,7,-1
 991 880 l 1,8,-1
 1009 880 l 1,9,-1
 1379 1658 l 1,10,-1
 1715 1658 l 1,11,-1
 1290 834 l 1,12,-1
 1553 0 l 1,13,-1
 1228 0 l 1,14,-1
 1002 807 l 1,15,-1
 984 807 l 1,16,-1
 899 0 l 1,17,-1
 614 0 l 1,18,-1
 699 807 l 1,19,-1
 681 807 l 1,20,-1
 284 0 l 1,21,-1
 -41 0 l 1,0,-1
EndSplineSet
EndChar

StartChar: afii10025
Encoding: 1047 1047 273
Width: 1070
GlyphClass: 2
Flags: W
LayerCount: 2
UndoRedoHistory
Layer: 1
Undoes
EndUndoes
Redoes
EndRedoes
EndUndoRedoHistory
Fore
SplineSet
488 -29 m 0,0,1
 363 -29 363 -29 277 7.5 c 128,-1,2
 191 44 191 44 146.5 113.5 c 128,-1,3
 102 183 102 183 88 274 c 0,4,5
 81 321 81 321 81 376 c 0,6,7
 81 427 81 427 87 485 c 2,8,-1
 93 544 l 1,9,-1
 430 544 l 1,10,11
 424 502 424 502 424 479 c 1,12,13
 420 434 420 434 420 398 c 0,14,15
 420 336 420 336 432 304 c 0,16,17
 452 252 452 252 522 253 c 0,18,19
 592 253 592 253 620 305 c 128,-1,20
 648 357 648 357 661 478 c 0,21,22
 665 515 665 515 665 547 c 0,23,24
 665 626 665 626 640 670 c 0,25,26
 605 731 605 731 491 735 c 0,27,28
 485 736 485 736 404 736 c 1,29,-1
 428 960 l 1,30,31
 503 960 503 960 509 961 c 0,32,33
 590 963 590 963 638 993 c 128,-1,34
 686 1023 686 1023 707 1074.5 c 128,-1,35
 728 1126 728 1126 737 1213 c 0,36,37
 740 1244 740 1244 740 1269 c 0,38,39
 740 1328 740 1328 723 1363 c 0,40,41
 698 1413 698 1413 629 1413 c 0,42,43
 507 1413 507 1413 480 1213 c 0,44,45
 479 1210 479 1210 474.5 1168 c 128,-1,46
 470 1126 470 1126 470 1123 c 1,47,-1
 133 1123 l 1,48,-1
 144 1221 l 1,49,50
 167 1441 167 1441 305 1562.5 c 128,-1,51
 443 1684 443 1684 657 1684 c 0,52,53
 874 1684 874 1684 984 1568 c 0,54,55
 1075 1472 1075 1472 1076 1306 c 0,56,57
 1076 1271 1076 1271 1072 1234 c 0,58,59
 1057 1093 1057 1093 989 993.5 c 128,-1,60
 921 894 921 894 829 869 c 1,61,62
 998 804 998 804 998 568 c 0,63,64
 998 530 998 530 994 487 c 0,65,66
 982 370 982 370 947.5 278 c 128,-1,67
 913 186 913 186 853 116 c 128,-1,68
 793 46 793 46 701 8.5 c 128,-1,69
 609 -29 609 -29 488 -29 c 0,0,1
EndSplineSet
EndChar

StartChar: afii10026
Encoding: 1048 1048 274
Width: 1202
GlyphClass: 2
Flags: W
LayerCount: 2
UndoRedoHistory
Layer: 1
Undoes
EndUndoes
Redoes
EndRedoes
EndUndoRedoHistory
Fore
SplineSet
79 0 m 1,0,-1
 253 1658 l 1,1,-1
 539 1658 l 1,2,-1
 438 703 l 1,3,-1
 963 1658 l 1,4,-1
 1197 1658 l 1,5,-1
 1023 0 l 1,6,-1
 733 0 l 1,7,-1
 835 974 l 1,8,-1
 299 0 l 1,9,-1
 79 0 l 1,0,-1
EndSplineSet
EndChar

StartChar: afii10028
Encoding: 1050 1050 276
Width: 1165
GlyphClass: 2
Flags: W
LayerCount: 2
UndoRedoHistory
Layer: 1
Undoes
EndUndoes
Redoes
EndRedoes
EndUndoRedoHistory
Fore
SplineSet
79 0 m 1,0,-1
 253 1658 l 1,1,-1
 613 1658 l 1,2,-1
 544 995 l 1,3,-1
 582 995 l 1,4,-1
 897 1658 l 1,5,-1
 1253 1658 l 1,6,-1
 871 880 l 1,7,-1
 1093 0 l 1,8,-1
 724 0 l 1,9,-1
 554 730 l 1,10,-1
 516 730 l 1,11,-1
 439 0 l 1,12,-1
 79 0 l 1,0,-1
EndSplineSet
EndChar

StartChar: afii10029
Encoding: 1051 1051 277
Width: 1332
GlyphClass: 2
Flags: W
LayerCount: 2
UndoRedoHistory
Layer: 1
Undoes
EndUndoes
Redoes
EndRedoes
EndUndoRedoHistory
Fore
SplineSet
-38 0 m 1,0,-1
 -11 254 l 1,1,2
 -7 254 -7 254 -3 254 c 0,3,4
 96 254 96 254 136 278 c 0,5,6
 190 310 190 310 224 420 c 0,7,8
 253 514 253 514 317 869 c 0,9,10
 318 875 318 875 320 887 c 1,11,-1
 320 888 l 1,12,-1
 320 889 l 1,13,-1
 321 890 l 1,14,-1
 321 891 l 1,15,-1
 321 893 l 1,16,-1
 455 1658 l 1,17,-1
 1327 1658 l 1,18,-1
 1153 0 l 1,19,-1
 793 0 l 1,20,-1
 939 1384 l 1,21,-1
 750 1384 l 1,22,-1
 658 830 l 2,23,24
 600 484 600 484 563 361 c 0,25,26
 507 170 507 170 410 90 c 0,27,28
 298 -2 298 -2 67 -3 c 0,29,30
 19 -3 19 -3 -38 0 c 1,0,-1
EndSplineSet
EndChar

StartChar: afii10030
Encoding: 1052 1052 278
Width: 1436
GlyphClass: 2
Flags: W
LayerCount: 2
UndoRedoHistory
Layer: 1
Undoes
EndUndoes
Redoes
EndRedoes
EndUndoRedoHistory
Fore
SplineSet
67 0 m 1,0,-1
 269 1658 l 1,1,-1
 646 1658 l 1,2,-1
 741 692 l 1,3,-1
 1051 1658 l 1,4,-1
 1416 1658 l 1,5,-1
 1269 0 l 1,6,-1
 1012 0 l 1,7,-1
 1101 1073 l 1,8,-1
 764 0 l 1,9,-1
 582 0 l 1,10,-1
 463 1080 l 1,11,-1
 327 0 l 1,12,-1
 67 0 l 1,0,-1
EndSplineSet
EndChar

StartChar: afii10033
Encoding: 1055 1055 281
Width: 1235
GlyphClass: 2
Flags: W
LayerCount: 2
UndoRedoHistory
Layer: 1
Undoes
EndUndoes
Redoes
EndRedoes
EndUndoRedoHistory
Fore
SplineSet
72 0 m 1,0,-1
 246 1658 l 1,1,-1
 1237 1658 l 1,2,-1
 1063 0 l 1,3,-1
 708 0 l 1,4,-1
 856 1400 l 1,5,-1
 574 1400 l 1,6,-1
 427 0 l 1,7,-1
 72 0 l 1,0,-1
EndSplineSet
EndChar

StartChar: afii10034
Encoding: 1056 1056 282
Width: 1148
GlyphClass: 2
Flags: W
LayerCount: 2
UndoRedoHistory
Layer: 1
Undoes
EndUndoes
Redoes
EndRedoes
EndUndoRedoHistory
Fore
SplineSet
533 961 m 1,0,-1
 648 961 l 2,1,2
 750 961 750 961 788.5 1011 c 128,-1,3
 827 1061 827 1061 840 1184 c 1,4,5
 844 1229 844 1229 844 1266 c 0,6,7
 844 1284 844 1284 843 1300 c 0,8,9
 840 1350 840 1350 804 1377.5 c 128,-1,10
 768 1405 768 1405 693 1405 c 2,11,-1
 580 1405 l 1,12,-1
 533 961 l 1,0,-1
72 0 m 1,13,-1
 246 1658 l 1,14,-1
 791 1658 l 2,15,16
 1010 1658 1010 1658 1106 1536 c 0,17,18
 1182 1438 1182 1438 1183 1268 c 0,19,20
 1183 1225 1183 1225 1178 1178 c 0,21,22
 1166 1068 1166 1068 1133 985.5 c 128,-1,23
 1100 903 1100 903 1053.5 851 c 128,-1,24
 1007 799 1007 799 941.5 767 c 128,-1,25
 876 735 876 735 806.5 722.5 c 128,-1,26
 737 710 737 710 652 710 c 2,27,-1
 507 710 l 1,28,-1
 432 0 l 1,29,-1
 72 0 l 1,13,-1
EndSplineSet
EndChar

StartChar: afii10037
Encoding: 1059 1059 285
Width: 1115
GlyphClass: 2
Flags: W
LayerCount: 2
UndoRedoHistory
Layer: 1
Undoes
EndUndoes
Redoes
EndRedoes
EndUndoRedoHistory
Fore
SplineSet
24 -324 m 1,0,-1
 50 -83 l 1,1,2
 75 -84 75 -84 98 -84 c 0,3,4
 246 -84 246 -84 316 -34 c 0,5,6
 381 12 381 12 381 114 c 0,7,8
 381 139 381 139 377 167 c 2,9,-1
 168 1658 l 1,10,-1
 501 1658 l 1,11,-1
 572 979 l 1,12,-1
 590 527 l 1,13,-1
 688 979 l 1,14,-1
 878 1658 l 1,15,-1
 1217 1658 l 1,16,-1
 717 119 l 2,17,18
 685 22 685 22 655 -44 c 128,-1,19
 625 -110 625 -110 583 -162.5 c 128,-1,20
 541 -215 541 -215 494 -245.5 c 128,-1,21
 447 -276 447 -276 376.5 -295.5 c 0,22,23
 306 -314 306 -314 224 -320 c 0,24,25
 164 -324 164 -324 84 -325 c 0,26,27
 55 -325 55 -325 24 -324 c 1,0,-1
EndSplineSet
EndChar

StartChar: afii10038
Encoding: 1060 1060 286
Width: 1543
GlyphClass: 2
Flags: W
LayerCount: 2
UndoRedoHistory
Layer: 1
Undoes
EndUndoes
Redoes
EndRedoes
EndUndoRedoHistory
Fore
SplineSet
945 409 m 0,0,1
 949 409 949 409 953 409 c 0,2,3
 1042 410 1042 410 1086 454 c 0,4,5
 1132 500 1132 500 1142 590 c 2,6,-1
 1195 1088 l 2,7,8
 1197 1108 1197 1108 1197 1126 c 0,9,10
 1197 1190 1197 1190 1169 1229 c 0,11,12
 1133 1279 1133 1279 1033 1280 c 1,13,-1
 1002 1280 l 1,14,-1
 911 411 l 1,15,16
 927 409 927 409 945 409 c 0,0,1
587 408 m 0,17,18
 602 408 602 408 616 410 c 1,19,-1
 708 1279 l 1,20,21
 687 1282 687 1282 676 1280 c 1,22,23
 578 1280 578 1280 532.5 1229.5 c 128,-1,24
 487 1179 487 1179 477 1088 c 2,25,-1
 425 591 l 2,26,27
 423 571 423 571 423 554 c 0,28,29
 423 492 423 492 451 454 c 0,30,31
 486 408 486 408 579 408 c 0,32,33
 583 408 583 408 587 408 c 0,17,18
567 -59 m 1,34,-1
 593 188 l 1,35,-1
 555 187 l 1,36,37
 525 185 525 185 497 185 c 0,38,39
 318 186 318 186 211 284 c 0,40,41
 105 382 105 382 105 542 c 0,42,43
 105 568 105 568 108 595 c 2,44,-1
 159 1084 l 2,45,46
 180 1280 180 1280 326 1394 c 0,47,48
 454 1494 454 1494 631 1494 c 0,49,50
 656 1494 656 1494 682 1492 c 1,51,-1
 730 1490 l 1,52,-1
 758 1760 l 1,53,-1
 1053 1760 l 1,54,-1
 1024 1491 l 1,55,-1
 1064 1492 l 1,56,57
 1091 1494 1091 1494 1117 1494 c 0,58,59
 1301 1494 1301 1494 1409 1394 c 0,60,61
 1515 1296 1515 1296 1515 1137 c 0,62,63
 1515 1111 1515 1111 1512 1084 c 2,64,-1
 1460 594 l 2,65,66
 1440 398 1440 398 1294 283 c 0,67,68
 1169 184 1169 184 996 184 c 0,69,70
 968 184 968 184 938 187 c 1,71,-1
 887 189 l 1,72,-1
 861 -59 l 1,73,-1
 567 -59 l 1,34,-1
EndSplineSet
EndChar

StartChar: afii10040
Encoding: 1062 1062 288
Width: 1399
GlyphClass: 2
Flags: W
LayerCount: 2
UndoRedoHistory
Layer: 1
Undoes
EndUndoes
Redoes
EndRedoes
EndUndoRedoHistory
Fore
SplineSet
1009 -355 m 1,0,-1
 1000 0 l 1,1,-1
 79 0 l 1,2,-1
 253 1658 l 1,3,-1
 613 1658 l 1,4,-1
 465 244 l 1,5,-1
 754 244 l 1,6,-1
 902 1658 l 1,7,-1
 1263 1658 l 1,8,-1
 1114 244 l 1,9,-1
 1336 244 l 1,10,-1
 1273 -355 l 1,11,-1
 1009 -355 l 1,0,-1
EndSplineSet
EndChar

StartChar: afii10041
Encoding: 1063 1063 289
Width: 1232
GlyphClass: 2
Flags: W
LayerCount: 2
UndoRedoHistory
Layer: 1
Undoes
EndUndoes
Redoes
EndRedoes
EndUndoRedoHistory
Fore
SplineSet
693 0 m 1,0,-1
 766 689 l 1,1,2
 654 673 654 673 569 673 c 0,3,4
 440 673 440 673 342.5 718 c 0,5,6
 245 764 245 764 192 856 c 0,7,8
 149 930 149 930 149 1026 c 0,9,10
 149 1050 149 1050 152 1074 c 2,11,-1
 214 1658 l 1,12,-1
 566 1658 l 1,13,-1
 505 1075 l 1,14,15
 501 1052 501 1052 501 1030 c 0,16,17
 501 1016 501 1016 503 1003 c 0,18,19
 507 970 507 970 522 946 c 128,-1,20
 537 922 537 922 577 908.5 c 128,-1,21
 617 895 617 895 682 895 c 0,22,23
 730 895 730 895 788 904 c 1,24,-1
 867 1658 l 1,25,-1
 1228 1658 l 1,26,-1
 1054 0 l 1,27,-1
 693 0 l 1,0,-1
EndSplineSet
EndChar

StartChar: afii10042
Encoding: 1064 1064 290
Width: 1682
GlyphClass: 2
Flags: W
LayerCount: 2
UndoRedoHistory
Layer: 1
Undoes
EndUndoes
Redoes
EndRedoes
EndUndoRedoHistory
Fore
SplineSet
79 0 m 1,0,-1
 253 1658 l 1,1,-1
 594 1658 l 1,2,-1
 447 258 l 1,3,-1
 651 258 l 1,4,-1
 798 1658 l 1,5,-1
 1139 1658 l 1,6,-1
 992 258 l 1,7,-1
 1190 258 l 1,8,-1
 1337 1658 l 1,9,-1
 1677 1658 l 1,10,-1
 1503 0 l 1,11,-1
 79 0 l 1,0,-1
EndSplineSet
EndChar

StartChar: afii10043
Encoding: 1065 1065 291
Width: 1862
GlyphClass: 2
Flags: W
LayerCount: 2
UndoRedoHistory
Layer: 1
Undoes
EndUndoes
Redoes
EndRedoes
EndUndoRedoHistory
Fore
SplineSet
1424 -355 m 1,0,-1
 1421 0 l 1,1,-1
 79 0 l 1,2,-1
 253 1658 l 1,3,-1
 594 1658 l 1,4,-1
 446 244 l 1,5,-1
 650 244 l 1,6,-1
 798 1658 l 1,7,-1
 1139 1658 l 1,8,-1
 991 244 l 1,9,-1
 1189 244 l 1,10,-1
 1338 1658 l 1,11,-1
 1678 1658 l 1,12,-1
 1530 244 l 1,13,-1
 1752 244 l 1,14,-1
 1689 -355 l 1,15,-1
 1424 -355 l 1,0,-1
EndSplineSet
EndChar

StartChar: afii10044
Encoding: 1066 1066 292
Width: 1286
GlyphClass: 2
Flags: W
LayerCount: 2
UndoRedoHistory
Layer: 1
Undoes
EndUndoes
Redoes
EndRedoes
EndUndoRedoHistory
Fore
SplineSet
608 239 m 1,0,-1
 668 239 l 2,1,2
 774 239 774 239 824 296.5 c 128,-1,3
 874 354 874 354 885 488 c 0,4,5
 887 510 887 510 887 529 c 0,6,7
 887 606 887 606 858 652 c 0,8,9
 822 708 822 708 713 709 c 2,10,-1
 658 709 l 1,11,-1
 608 239 l 1,0,-1
223 0 m 1,12,-1
 371 1411 l 1,13,-1
 76 1411 l 1,14,-1
 102 1658 l 1,15,-1
 757 1658 l 1,16,-1
 684 959 l 1,17,-1
 770 959 l 2,18,19
 1016 959 1016 959 1130 844 c 0,20,21
 1223 750 1223 750 1223 569 c 0,22,23
 1223 528 1223 528 1218 481 c 0,24,25
 1206 364 1206 364 1170 277.5 c 128,-1,26
 1134 191 1134 191 1083.5 138.5 c 128,-1,27
 1033 86 1033 86 960 54.5 c 128,-1,28
 887 23 887 23 812 11.5 c 128,-1,29
 737 0 737 0 640 0 c 2,30,-1
 223 0 l 1,12,-1
EndSplineSet
EndChar

StartChar: afii10045
Encoding: 1067 1067 293
Width: 1689
GlyphClass: 2
Flags: W
LayerCount: 2
UndoRedoHistory
Layer: 1
Undoes
EndUndoes
Redoes
EndRedoes
EndUndoRedoHistory
Fore
SplineSet
1150 0 m 1,0,-1
 1324 1658 l 1,1,-1
 1684 1658 l 1,2,-1
 1510 0 l 1,3,-1
 1150 0 l 1,0,-1
464 239 m 1,4,-1
 512 239 l 2,5,6
 618 239 618 239 668 296.5 c 128,-1,7
 718 354 718 354 729 488 c 0,8,9
 731 510 731 510 731 529 c 0,10,11
 731 606 731 606 702 652 c 0,12,13
 666 708 666 708 557 709 c 2,14,-1
 514 709 l 1,15,-1
 464 239 l 1,4,-1
79 0 m 1,16,-1
 253 1658 l 1,17,-1
 613 1658 l 1,18,-1
 540 959 l 1,19,-1
 614 959 l 2,20,21
 860 959 860 959 974 844 c 0,22,23
 1066 750 1066 750 1067 569 c 0,24,25
 1067 527 1067 527 1062 481 c 0,26,27
 1050 364 1050 364 1014 277.5 c 128,-1,28
 978 191 978 191 927.5 138.5 c 128,-1,29
 877 86 877 86 804.5 54.5 c 128,-1,30
 732 23 732 23 656.5 11.5 c 128,-1,31
 581 0 581 0 485 0 c 2,32,-1
 79 0 l 1,16,-1
EndSplineSet
EndChar

StartChar: afii10046
Encoding: 1068 1068 294
Width: 1130
GlyphClass: 2
Flags: W
LayerCount: 2
UndoRedoHistory
Layer: 1
Undoes
EndUndoes
Redoes
EndRedoes
EndUndoRedoHistory
Fore
SplineSet
464 239 m 1,0,-1
 510 239 l 2,1,2
 616 239 616 239 666 296.5 c 128,-1,3
 716 354 716 354 727 488 c 0,4,5
 729 510 729 510 729 529 c 0,6,7
 729 606 729 606 700 652 c 0,8,9
 664 708 664 708 555 709 c 2,10,-1
 514 709 l 1,11,-1
 464 239 l 1,0,-1
79 0 m 1,12,-1
 253 1658 l 1,13,-1
 613 1658 l 1,14,-1
 540 959 l 1,15,-1
 612 959 l 2,16,17
 858 959 858 959 972 844 c 0,18,19
 1065 750 1065 750 1065 569 c 0,20,21
 1065 528 1065 528 1060 481 c 0,22,23
 1048 364 1048 364 1012 277.5 c 128,-1,24
 976 191 976 191 925.5 138.5 c 128,-1,25
 875 86 875 86 802.5 54.5 c 128,-1,26
 730 23 730 23 654.5 11.5 c 128,-1,27
 579 0 579 0 483 0 c 2,28,-1
 79 0 l 1,12,-1
EndSplineSet
EndChar

StartChar: afii10047
Encoding: 1069 1069 295
Width: 1169
GlyphClass: 2
Flags: W
LayerCount: 2
UndoRedoHistory
Layer: 1
Undoes
EndUndoes
Redoes
EndRedoes
EndUndoRedoHistory
Fore
SplineSet
524 -16 m 0,0,1
 417 -16 417 -16 337.5 6.5 c 128,-1,2
 258 29 258 29 209 71 c 128,-1,3
 160 113 160 113 131.5 172 c 0,4,5
 103 230 103 230 98 304 c 0,6,7
 96 335 96 335 96 368 c 0,8,9
 96 414 96 414 100 463 c 1,10,-1
 109 551 l 1,11,-1
 461 551 l 1,12,-1
 450 444 l 2,13,14
 447 415 447 415 445.5 400.5 c 128,-1,15
 444 386 444 386 443.5 360 c 128,-1,16
 443 334 443 334 446 320.5 c 128,-1,17
 449 307 449 307 456 289 c 128,-1,18
 463 271 463 271 474.5 261.5 c 128,-1,19
 486 252 486 252 505 245.5 c 128,-1,20
 524 239 524 239 550 239 c 0,21,22
 593 239 593 239 622.5 256 c 128,-1,23
 652 273 652 273 667.5 307 c 128,-1,24
 683 341 683 341 690 373.5 c 128,-1,25
 697 406 697 406 702 455 c 2,26,-1
 733 741 l 1,27,-1
 460 741 l 1,28,-1
 479 925 l 1,29,-1
 752 925 l 1,30,-1
 782 1220 l 2,31,32
 786 1256 786 1256 786 1285 c 0,33,34
 786 1343 786 1343 772 1379 c 0,35,36
 750 1433 750 1433 675 1433 c 0,37,38
 641 1433 641 1433 615.5 1420 c 128,-1,39
 590 1407 590 1407 576 1389.5 c 128,-1,40
 562 1372 562 1372 552 1340 c 128,-1,41
 542 1308 542 1308 538.5 1284.5 c 128,-1,42
 535 1261 535 1261 531 1220 c 2,43,-1
 520 1111 l 1,44,-1
 168 1111 l 1,45,-1
 176 1192 l 2,46,47
 188 1305 188 1305 220 1391 c 128,-1,48
 252 1477 252 1477 311.5 1546 c 128,-1,49
 371 1615 371 1615 470 1651.5 c 128,-1,50
 569 1688 569 1688 703 1688 c 0,51,52
 814 1688 814 1688 896.5 1662.5 c 128,-1,53
 979 1637 979 1637 1030 1589.5 c 128,-1,54
 1081 1542 1081 1542 1110 1473.5 c 0,55,56
 1139 1406 1139 1406 1144 1320 c 0,57,58
 1146 1289 1146 1289 1146 1256 c 0,59,60
 1146 1197 1146 1197 1140 1132 c 1,61,-1
 1077 542 l 2,62,63
 1063 407 1063 407 1028 308 c 128,-1,64
 993 209 993 209 929 134 c 128,-1,65
 865 59 865 59 764 21.5 c 128,-1,66
 663 -16 663 -16 524 -16 c 0,0,1
EndSplineSet
EndChar

StartChar: afii10048
Encoding: 1070 1070 296
Width: 1676
GlyphClass: 2
Flags: W
LayerCount: 2
UndoRedoHistory
Layer: 1
Undoes
EndUndoes
Redoes
EndRedoes
EndUndoRedoHistory
Fore
SplineSet
1094 232 m 0,0,1
 1134 232 1134 232 1161.5 248.5 c 128,-1,2
 1189 265 1189 265 1204 297 c 128,-1,3
 1219 329 1219 329 1225.5 359.5 c 128,-1,4
 1232 390 1232 390 1237 436 c 2,5,-1
 1319 1226 l 1,6,7
 1323 1278 1323 1278 1323 1322.5 c 128,-1,8
 1323 1367 1323 1367 1297.5 1396.5 c 128,-1,9
 1272 1426 1272 1426 1220 1426 c 0,10,11
 1180 1426 1180 1426 1152.5 1410 c 128,-1,12
 1125 1394 1125 1394 1110 1362.5 c 128,-1,13
 1095 1331 1095 1331 1088.5 1301 c 128,-1,14
 1082 1271 1082 1271 1077 1226 c 2,15,-1
 995 436 l 1,16,17
 991 383 991 383 991 337.5 c 128,-1,18
 991 292 991 292 1016.5 262 c 128,-1,19
 1042 232 1042 232 1094 232 c 0,0,1
1067 -23 m 0,20,21
 939 -23 939 -23 852.5 17 c 128,-1,22
 766 57 766 57 724 131.5 c 128,-1,23
 682 206 682 206 668 310 c 0,24,25
 662 357 662 357 662 410 c 0,26,27
 662 473 662 473 671 544 c 1,28,-1
 687 707 l 1,29,-1
 508 707 l 1,30,-1
 433 0 l 1,31,-1
 79 0 l 1,32,-1
 253 1658 l 1,33,-1
 607 1658 l 1,34,-1
 536 973 l 1,35,-1
 716 973 l 1,36,-1
 731 1117 l 2,37,38
 745 1252 745 1252 778 1351.5 c 128,-1,39
 811 1451 811 1451 870.5 1527 c 128,-1,40
 930 1603 930 1603 1024 1642 c 128,-1,41
 1118 1681 1118 1681 1247 1681 c 0,42,43
 1375 1681 1375 1681 1461.5 1641 c 128,-1,44
 1548 1601 1548 1601 1590.5 1527.5 c 128,-1,45
 1633 1454 1633 1454 1647 1350 c 0,46,47
 1654 1301 1654 1301 1654 1247 c 0,48,49
 1654 1185 1654 1185 1645 1117 c 1,50,-1
 1585 544 l 2,51,52
 1571 410 1571 410 1537.5 310 c 128,-1,53
 1504 210 1504 210 1444.5 133 c 128,-1,54
 1385 56 1385 56 1290.5 16.5 c 128,-1,55
 1196 -23 1196 -23 1067 -23 c 0,20,21
EndSplineSet
EndChar

StartChar: afii10049
Encoding: 1071 1071 297
Width: 1232
GlyphClass: 2
Flags: W
LayerCount: 2
UndoRedoHistory
Layer: 1
Undoes
EndUndoes
Redoes
EndRedoes
EndUndoRedoHistory
Fore
SplineSet
740 912 m 2,0,-1
 789 912 l 1,1,-1
 841 1411 l 1,2,-1
 788 1411 l 2,3,4
 556 1411 556 1411 529 1163 c 1,5,6
 526 1138 526 1138 526 1116 c 0,7,8
 526 912 526 912 740 912 c 2,0,-1
-30 0 m 1,9,-1
 365 738 l 1,10,11
 272 794 272 794 226 906 c 0,12,13
 191 990 191 990 191 1096 c 0,14,15
 191 1130 191 1130 195 1166 c 0,16,17
 210 1305 210 1305 256.5 1401 c 128,-1,18
 303 1497 303 1497 383 1553 c 128,-1,19
 463 1609 463 1609 566 1633.5 c 128,-1,20
 669 1658 669 1658 808 1658 c 2,21,-1
 1227 1658 l 1,22,-1
 1053 0 l 1,23,-1
 693 0 l 1,24,-1
 762 657 l 1,25,-1
 697 657 l 1,26,-1
 674 657 l 1,27,-1
 359 0 l 1,28,-1
 -30 0 l 1,9,-1
EndSplineSet
EndChar

StartChar: afii10051
Encoding: 1026 1026 298
Width: 1280
GlyphClass: 2
Flags: W
LayerCount: 2
UndoRedoHistory
Layer: 1
Undoes
EndUndoes
Redoes
EndRedoes
EndUndoRedoHistory
Fore
SplineSet
174 0 m 1,0,-1
 321 1406 l 1,1,-1
 88 1406 l 1,2,-1
 115 1658 l 1,3,-1
 986 1658 l 1,4,-1
 959 1406 l 1,5,-1
 676 1406 l 1,6,-1
 624 912 l 1,7,8
 751 1001 751 1001 903 1001 c 0,9,10
 1047 1001 1047 1001 1142 919 c 0,11,12
 1224 848 1224 848 1224 736 c 0,13,14
 1224 718 1224 718 1222 700 c 2,15,-1
 1192 411 l 2,16,17
 1169 186 1169 186 1060.5 93 c 128,-1,18
 952 0 952 0 710 0 c 2,19,-1
 635 0 l 1,20,-1
 658 209 l 1,21,22
 755 209 755 209 804 258 c 128,-1,23
 853 307 853 307 864 412 c 2,24,-1
 890 665 l 2,25,26
 891 672 891 672 891 679 c 0,27,28
 891 719 891 719 866 753 c 0,29,30
 837 793 837 793 774 793 c 0,31,32
 703 793 703 793 606 733 c 1,33,-1
 529 0 l 1,34,-1
 174 0 l 1,0,-1
EndSplineSet
EndChar

StartChar: afii10053
Encoding: 1028 1028 300
Width: 1127
GlyphClass: 2
Flags: W
LayerCount: 2
UndoRedoHistory
Layer: 1
Undoes
EndUndoes
Redoes
EndRedoes
EndUndoRedoHistory
Fore
SplineSet
541 -23 m 0,0,1
 430 -23 430 -23 347.5 2.5 c 128,-1,2
 265 28 265 28 214.5 75.5 c 128,-1,3
 164 123 164 123 134.5 191.5 c 0,4,5
 104 260 104 260 100 346 c 0,6,7
 98 374 98 374 99 404 c 0,8,9
 99 465 99 465 105 533 c 1,10,-1
 167 1123 l 2,11,12
 181 1258 181 1258 216.5 1357 c 128,-1,13
 252 1456 252 1456 316 1531 c 128,-1,14
 380 1606 380 1606 481 1643.5 c 128,-1,15
 582 1681 582 1681 721 1681 c 0,16,17
 828 1681 828 1681 907.5 1658.5 c 128,-1,18
 987 1636 987 1636 1036 1594 c 128,-1,19
 1085 1552 1085 1552 1113.5 1493 c 128,-1,20
 1142 1434 1142 1434 1147 1360 c 0,21,22
 1149 1329 1149 1329 1149 1297 c 0,23,24
 1149 1251 1149 1251 1145 1202 c 1,25,-1
 1135 1106 l 1,26,-1
 783 1106 l 1,27,-1
 795 1221 l 2,28,29
 797 1245 797 1245 798 1255 c 128,-1,30
 799 1265 799 1265 800.5 1287 c 128,-1,31
 802 1309 802 1309 801 1319 c 128,-1,32
 800 1329 800 1329 797.5 1347 c 128,-1,33
 795 1365 795 1365 790 1374 c 128,-1,34
 785 1383 785 1383 777 1395 c 128,-1,35
 769 1407 769 1407 757.5 1412.5 c 128,-1,36
 746 1418 746 1418 730 1422 c 128,-1,37
 714 1426 714 1426 694 1426 c 0,38,39
 659 1426 659 1426 633 1413.5 c 128,-1,40
 607 1401 607 1401 591.5 1382.5 c 128,-1,41
 576 1364 576 1364 565.5 1332.5 c 128,-1,42
 555 1301 555 1301 550.5 1275.5 c 128,-1,43
 546 1250 546 1250 542 1210 c 2,44,-1
 513 936 l 1,45,-1
 789 936 l 1,46,-1
 768 738 l 1,47,-1
 493 738 l 1,48,-1
 462 445 l 2,49,50
 458 408 458 408 458 377 c 0,51,52
 458 321 458 321 472 286 c 0,53,54
 494 232 494 232 569 232 c 0,55,56
 603 232 603 232 628.5 245 c 128,-1,57
 654 258 654 258 668 275 c 128,-1,58
 682 292 682 292 692 325 c 128,-1,59
 702 358 702 358 705.5 381 c 128,-1,60
 709 404 709 404 714 445 c 2,61,-1
 725 554 l 1,62,-1
 1077 554 l 1,63,-1
 1069 473 l 2,64,65
 1057 360 1057 360 1025 274 c 128,-1,66
 993 188 993 188 933 119 c 128,-1,67
 873 50 873 50 774.5 13.5 c 128,-1,68
 676 -23 676 -23 541 -23 c 0,0,1
EndSplineSet
EndChar

StartChar: afii10055
Encoding: 1030 1030 302
Width: 566
GlyphClass: 2
Flags: W
LayerCount: 2
UndoRedoHistory
Layer: 1
Undoes
EndUndoes
Redoes
EndRedoes
EndUndoRedoHistory
Fore
SplineSet
61 0 m 1,0,-1
 235 1658 l 1,1,-1
 594 1658 l 1,2,-1
 420 0 l 1,3,-1
 61 0 l 1,0,-1
EndSplineSet
EndChar

StartChar: afii10057
Encoding: 1032 1032 304
Width: 664
GlyphClass: 2
Flags: W
LayerCount: 2
UndoRedoHistory
Layer: 1
Undoes
EndUndoes
Redoes
EndRedoes
EndUndoRedoHistory
Fore
SplineSet
-45 -40 m 1,0,-1
 -19 212 l 1,1,2
 -13 212 -13 212 -6 212 c 0,3,4
 101 212 101 212 144 244 c 0,5,6
 190 278 190 278 201 384 c 2,7,-1
 335 1658 l 1,8,-1
 695 1658 l 1,9,-1
 560 370 l 1,10,11
 547 263 547 263 520.5 190 c 128,-1,12
 494 117 494 117 445 63.5 c 128,-1,13
 396 10 396 10 318.5 -15 c 128,-1,14
 241 -40 241 -40 129 -40 c 2,15,-1
 -45 -40 l 1,0,-1
EndSplineSet
EndChar

StartChar: afii10058
Encoding: 1033 1033 305
Width: 1812
GlyphClass: 2
Flags: W
LayerCount: 2
UndoRedoHistory
Layer: 1
Undoes
EndUndoes
Redoes
EndRedoes
EndUndoRedoHistory
Fore
SplineSet
1186 239 m 1,0,-1
 1217 239 l 2,1,2
 1323 239 1323 239 1373 296.5 c 128,-1,3
 1423 354 1423 354 1434 488 c 0,4,5
 1436 510 1436 510 1436 529 c 0,6,7
 1436 606 1436 606 1407 652 c 0,8,9
 1371 708 1371 708 1262 709 c 2,10,-1
 1236 709 l 1,11,-1
 1186 239 l 1,0,-1
-29 0 m 1,12,-1
 -2 254 l 1,13,14
 8 254 8 254 18 254 c 0,15,16
 72 254 72 254 106 263 c 0,17,18
 146 274 146 274 181 312.5 c 128,-1,19
 216 351 216 351 237.5 419.5 c 128,-1,20
 259 488 259 488 279 605 c 2,21,-1
 462 1658 l 1,22,-1
 1335 1658 l 1,23,-1
 1262 959 l 1,24,-1
 1319 959 l 2,25,26
 1565 959 1565 959 1679 844 c 0,27,28
 1772 750 1772 750 1772 569 c 0,29,30
 1772 528 1772 528 1767 481 c 0,31,32
 1755 364 1755 364 1719 277.5 c 128,-1,33
 1683 191 1683 191 1632.5 138.5 c 128,-1,34
 1582 86 1582 86 1509 54.5 c 128,-1,35
 1436 23 1436 23 1360.5 11.5 c 128,-1,36
 1285 0 1285 0 1189 0 c 2,37,-1
 801 0 l 1,38,-1
 947 1384 l 1,39,-1
 758 1384 l 1,40,-1
 626 599 l 2,41,42
 597 424 597 424 555.5 310 c 128,-1,43
 514 196 514 196 449.5 125.5 c 0,44,45
 384 54 384 54 300 26 c 0,46,47
 218 -2 218 -2 103 -1 c 0,48,49
 99 -1 99 -1 95 -1 c 2,50,-1
 -29 0 l 1,12,-1
EndSplineSet
EndChar

StartChar: afii10059
Encoding: 1034 1034 306
Width: 1703
GlyphClass: 2
Flags: W
LayerCount: 2
UndoRedoHistory
Layer: 1
Undoes
EndUndoes
Redoes
EndRedoes
EndUndoRedoHistory
Fore
SplineSet
1066 239 m 1,0,-1
 1091 239 l 2,1,2
 1197 239 1197 239 1247 296.5 c 128,-1,3
 1297 354 1297 354 1308 488 c 0,4,5
 1310 510 1310 510 1310 529 c 0,6,7
 1310 606 1310 606 1281 652 c 0,8,9
 1245 708 1245 708 1136 709 c 2,10,-1
 1115 709 l 1,11,-1
 1066 239 l 1,0,-1
1064 0 m 2,12,-1
 680 1 l 1,13,-1
 754 707 l 1,14,-1
 513 707 l 1,15,-1
 439 1 l 1,16,-1
 79 1 l 1,17,-1
 253 1660 l 1,18,-1
 613 1660 l 1,19,-1
 542 980 l 1,20,-1
 784 980 l 1,21,-1
 854 1660 l 1,22,-1
 1214 1660 l 1,23,-1
 1141 959 l 1,24,-1
 1194 959 l 2,25,26
 1440 959 1440 959 1554 844 c 0,27,28
 1646 750 1646 750 1646 569 c 0,29,30
 1646 527 1646 527 1641 481 c 0,31,32
 1629 364 1629 364 1593 277.5 c 128,-1,33
 1557 191 1557 191 1506.5 138.5 c 128,-1,34
 1456 86 1456 86 1383.5 54.5 c 128,-1,35
 1311 23 1311 23 1235.5 11.5 c 128,-1,36
 1160 0 1160 0 1064 0 c 2,12,-1
EndSplineSet
EndChar

StartChar: afii10060
Encoding: 1035 1035 307
Width: 1200
GlyphClass: 2
Flags: W
LayerCount: 2
UndoRedoHistory
Layer: 1
Undoes
EndUndoes
Redoes
EndRedoes
EndUndoRedoHistory
Fore
SplineSet
185 0 m 1,0,-1
 331 1392 l 1,1,-1
 109 1392 l 1,2,-1
 137 1658 l 1,3,-1
 951 1658 l 1,4,-1
 923 1392 l 1,5,-1
 689 1392 l 1,6,-1
 641 926 l 1,7,8
 655 932 655 932 678.5 941 c 128,-1,9
 702 950 702 950 768.5 965.5 c 128,-1,10
 835 981 835 981 894 981 c 0,11,12
 1012 981 1012 981 1073 920 c 0,13,14
 1125 868 1125 868 1125 788 c 0,15,16
 1125 774 1125 774 1123 758 c 2,17,-1
 1043 0 l 1,18,-1
 715 0 l 1,19,-1
 791 716 l 1,20,21
 794 754 794 754 781.5 772 c 128,-1,22
 769 790 769 790 731 790 c 0,23,24
 692 789 692 789 623 756 c 1,25,-1
 543 0 l 1,26,-1
 185 0 l 1,0,-1
EndSplineSet
EndChar

StartChar: afii10066
Encoding: 1073 1073 311
Width: 981
GlyphClass: 2
Flags: W
LayerCount: 2
UndoRedoHistory
Layer: 1
Undoes
EndUndoes
Redoes
EndRedoes
EndUndoRedoHistory
Fore
SplineSet
472 193 m 0,0,1
 526 193 526 193 546 240.5 c 128,-1,2
 566 288 566 288 583 448 c 2,3,-1
 618 783 l 2,4,5
 623 828 623 828 623 860 c 0,6,7
 623 900 623 900 616 920 c 0,8,9
 604 958 604 958 557 957 c 0,10,11
 520 957 520 957 495 928 c 128,-1,12
 470 899 470 899 448 826 c 1,13,-1
 409 457 l 2,14,15
 402 387 402 387 399 346 c 0,16,17
 397 319 397 319 397 295 c 0,18,19
 398 283 398 283 398 272 c 0,20,21
 400 239 400 239 408.5 223.5 c 128,-1,22
 417 208 417 208 432 200.5 c 128,-1,23
 447 193 447 193 472 193 c 0,0,1
433 -19 m 0,24,25
 315 -18 315 -18 240 14 c 128,-1,26
 165 46 165 46 130.5 105.5 c 0,27,28
 96 166 96 166 86 252 c 0,29,30
 82 287 82 287 83 325 c 0,31,32
 83 382 83 382 91 448 c 1,33,-1
 157 1083 l 2,34,35
 170 1202 170 1202 193.5 1290.5 c 128,-1,36
 217 1379 217 1379 247 1436 c 128,-1,37
 277 1493 277 1493 321.5 1534 c 128,-1,38
 366 1575 366 1575 411 1596.5 c 128,-1,39
 456 1618 456 1618 520 1637 c 128,-1,40
 584 1656 584 1656 642 1668 c 128,-1,41
 700 1680 700 1680 781.5 1702.5 c 128,-1,42
 863 1725 863 1725 933 1753 c 1,43,-1
 926 1502 l 1,44,45
 853 1470 853 1470 781.5 1451.5 c 128,-1,46
 710 1433 710 1433 669 1428 c 128,-1,47
 628 1423 628 1423 589.5 1412.5 c 128,-1,48
 551 1402 551 1402 530.5 1380 c 128,-1,49
 510 1358 510 1358 494 1310.5 c 128,-1,50
 478 1263 478 1263 469 1180 c 2,51,-1
 460 1099 l 1,52,53
 562 1150 562 1150 666 1150 c 0,54,55
 824 1150 824 1150 885 1049 c 0,56,57
 928 977 928 977 928 837 c 0,58,59
 928 779 928 779 921 710 c 2,60,-1
 891 424 l 2,61,62
 880 317 880 317 852 238 c 128,-1,63
 824 159 824 159 784.5 109.5 c 128,-1,64
 745 60 745 60 688.5 30.5 c 0,65,66
 632 0 632 0 572 -10 c 0,67,68
 517 -20 517 -20 446 -19 c 0,69,70
 440 -19 440 -19 433 -19 c 0,24,25
EndSplineSet
EndChar

StartChar: afii10067
Encoding: 1074 1074 312
Width: 1021
GlyphClass: 2
Flags: W
LayerCount: 2
UndoRedoHistory
Layer: 1
Undoes
EndUndoes
Redoes
EndRedoes
EndUndoRedoHistory
Fore
SplineSet
457 718 m 1,0,-1
 538 718 l 2,1,2
 596 718 596 718 624.5 753.5 c 128,-1,3
 653 789 653 789 661 861 c 1,4,5
 663 878 663 878 663 893 c 0,6,7
 662 943 662 943 644 972 c 0,8,9
 620 1009 620 1009 546 1009 c 2,10,-1
 487 1009 l 1,11,-1
 457 718 l 1,0,-1
401 187 m 1,12,-1
 454 187 l 2,13,14
 476 187 476 187 490.5 188 c 128,-1,15
 505 189 505 189 523.5 192 c 128,-1,16
 542 195 542 195 554 201.5 c 128,-1,17
 566 208 566 208 580 220.5 c 128,-1,18
 594 233 594 233 602.5 250.5 c 128,-1,19
 611 268 611 268 618 293.5 c 128,-1,20
 625 319 625 319 629 353 c 0,21,22
 632 383 632 383 632 407 c 128,-1,23
 632 431 632 431 630.5 449 c 128,-1,24
 629 467 629 467 622.5 481 c 128,-1,25
 616 495 616 495 610.5 504 c 128,-1,26
 605 513 605 513 593.5 519 c 128,-1,27
 582 525 582 525 573.5 528.5 c 128,-1,28
 565 532 565 532 549 533.5 c 128,-1,29
 533 535 533 535 522.5 535.5 c 128,-1,30
 512 536 512 536 493 536 c 2,31,-1
 438 536 l 1,32,-1
 401 187 l 1,12,-1
55 0 m 1,33,-1
 179 1184 l 1,34,-1
 593 1184 l 2,35,36
 695 1184 695 1184 768.5 1170 c 128,-1,37
 842 1156 842 1156 883.5 1130 c 128,-1,38
 925 1104 925 1104 949 1067.5 c 0,39,40
 972 1031 972 1031 976 986 c 0,41,42
 978 965 978 965 978 942 c 0,43,44
 978 916 978 916 976 889 c 1,45,46
 965 780 965 780 913.5 723.5 c 128,-1,47
 862 667 862 667 769 644 c 1,48,49
 886 614 886 614 924 541 c 0,50,51
 952 487 952 487 951 404 c 0,52,53
 951 375 951 375 948 344 c 0,54,55
 936 224 936 224 886 150.5 c 128,-1,56
 836 77 836 77 730.5 38.5 c 128,-1,57
 625 0 625 0 455 0 c 2,58,-1
 55 0 l 1,33,-1
EndSplineSet
EndChar

StartChar: afii10068
Encoding: 1075 1075 313
Width: 711
GlyphClass: 2
Flags: W
LayerCount: 2
UndoRedoHistory
Layer: 1
Undoes
EndUndoes
Redoes
EndRedoes
EndUndoRedoHistory
Fore
SplineSet
55 0 m 1,0,-1
 179 1184 l 1,1,-1
 761 1184 l 1,2,-1
 739 963 l 1,3,-1
 485 963 l 1,4,-1
 383 0 l 1,5,-1
 55 0 l 1,0,-1
EndSplineSet
EndChar

StartChar: afii10069
Encoding: 1076 1076 314
Width: 1228
GlyphClass: 2
Flags: W
LayerCount: 2
UndoRedoHistory
Layer: 1
Undoes
EndUndoes
Redoes
EndRedoes
EndUndoRedoHistory
Fore
SplineSet
384 205 m 1,0,-1
 693 205 l 1,1,-1
 775 984 l 1,2,-1
 675 984 l 1,3,-1
 629 751 l 1,4,5
 596 522 596 522 534.5 397 c 128,-1,6
 473 272 473 272 384 205 c 1,0,-1
-24 -321 m 1,7,-1
 31 201 l 1,8,9
 173 269 173 269 258 417 c 128,-1,10
 343 565 343 565 383 826 c 1,11,-1
 452 1184 l 1,12,-1
 1096 1184 l 1,13,-1
 994 205 l 1,14,-1
 1165 205 l 1,15,-1
 1110 -321 l 1,16,-1
 874 -321 l 1,17,-1
 886 0 l 1,18,-1
 268 0 l 1,19,-1
 214 -321 l 1,20,-1
 -24 -321 l 1,7,-1
EndSplineSet
EndChar

StartChar: afii10072
Encoding: 1078 1078 317
Width: 1344
GlyphClass: 2
Flags: W
LayerCount: 2
UndoRedoHistory
Layer: 1
Undoes
EndUndoes
Redoes
EndRedoes
EndUndoRedoHistory
Fore
SplineSet
-37 0 m 1,0,-1
 264 596 l 1,1,-1
 101 1184 l 1,2,-1
 391 1184 l 1,3,-1
 522 621 l 1,4,-1
 544 621 l 1,5,-1
 603 1184 l 1,6,-1
 877 1184 l 1,7,-1
 819 621 l 1,8,-1
 840 621 l 1,9,-1
 1102 1184 l 1,10,-1
 1391 1184 l 1,11,-1
 1093 596 l 1,12,-1
 1281 0 l 1,13,-1
 1005 0 l 1,14,-1
 835 572 l 1,15,-1
 814 572 l 1,16,-1
 753 0 l 1,17,-1
 479 0 l 1,18,-1
 539 572 l 1,19,-1
 517 572 l 1,20,-1
 239 0 l 1,21,-1
 -37 0 l 1,0,-1
EndSplineSet
EndChar

StartChar: afii10073
Encoding: 1079 1079 318
Width: 910
GlyphClass: 2
Flags: W
LayerCount: 2
UndoRedoHistory
Layer: 1
Undoes
EndUndoes
Redoes
EndRedoes
EndUndoRedoHistory
Fore
SplineSet
399 -21 m 0,0,1
 306 -21 306 -21 240 0.5 c 128,-1,2
 174 22 174 22 138 60 c 128,-1,3
 102 98 102 98 82 150 c 128,-1,4
 62 202 62 202 62 263 c 128,-1,5
 62 324 62 324 67 392 c 1,6,-1
 331 392 l 1,7,8
 328 363 328 363 328 339 c 0,9,10
 328 281 328 281 345 249 c 0,11,12
 369 203 369 203 431 203 c 0,13,14
 495 203 495 203 523.5 245.5 c 128,-1,15
 552 288 552 288 561 367 c 1,16,17
 562 382 562 382 562 395 c 0,18,19
 562 462 562 462 524 492 c 0,20,21
 478 526 478 526 353 526 c 1,22,-1
 372 700 l 1,23,24
 456 700 456 700 501.5 715 c 128,-1,25
 547 730 547 730 566 760.5 c 128,-1,26
 585 791 585 791 591 848 c 0,27,28
 593 863 593 863 593 876 c 0,29,30
 593 976 593 976 498 976 c 0,31,32
 436 976 436 976 406.5 940.5 c 128,-1,33
 377 905 377 905 368 814 c 1,34,-1
 107 814 l 1,35,36
 116 902 116 902 141.5 969 c 128,-1,37
 167 1036 167 1036 215.5 1091 c 128,-1,38
 264 1146 264 1146 345 1175 c 128,-1,39
 426 1204 426 1204 538 1204 c 0,40,41
 637 1204 637 1204 710 1178.5 c 128,-1,42
 783 1153 783 1153 823.5 1107 c 0,43,44
 864 1060 864 1060 880 1002 c 0,45,46
 891 963 891 963 892 918 c 0,47,48
 892 896 892 896 889 873 c 0,49,50
 877 760 877 760 821.5 698 c 128,-1,51
 766 636 766 636 687 615 c 1,52,53
 728 600 728 600 754.5 582 c 128,-1,54
 781 564 781 564 805 532 c 128,-1,55
 829 500 829 500 837 448 c 0,56,57
 841 422 841 422 841 391.5 c 128,-1,58
 841 361 841 361 837 325 c 0,59,60
 820 165 820 165 711.5 72 c 128,-1,61
 603 -21 603 -21 399 -21 c 0,0,1
EndSplineSet
EndChar

StartChar: afii10074
Encoding: 1080 1080 319
Width: 1037
GlyphClass: 2
Flags: W
LayerCount: 2
UndoRedoHistory
Layer: 1
Undoes
EndUndoes
Redoes
EndRedoes
EndUndoRedoHistory
Fore
SplineSet
55 0 m 1,0,-1
 179 1184 l 1,1,-1
 440 1184 l 1,2,-1
 373 544 l 1,3,-1
 751 1184 l 1,4,-1
 1007 1184 l 1,5,-1
 882 0 l 1,6,-1
 617 0 l 1,7,-1
 684 634 l 1,8,-1
 313 0 l 1,9,-1
 55 0 l 1,0,-1
EndSplineSet
EndChar

StartChar: afii10076
Encoding: 1082 1082 321
Width: 1037
GlyphClass: 2
Flags: W
LayerCount: 2
UndoRedoHistory
Layer: 1
Undoes
EndUndoes
Redoes
EndRedoes
EndUndoRedoHistory
Fore
SplineSet
55 0 m 1,0,-1
 179 1184 l 1,1,-1
 507 1184 l 1,2,-1
 459 717 l 1,3,-1
 508 717 l 1,4,-1
 736 1184 l 1,5,-1
 1090 1184 l 1,6,-1
 797 624 l 1,7,-1
 971 0 l 1,8,-1
 623 0 l 1,9,-1
 488 527 l 1,10,-1
 438 527 l 1,11,-1
 383 0 l 1,12,-1
 55 0 l 1,0,-1
EndSplineSet
EndChar

StartChar: afii10077
Encoding: 1083 1083 322
Width: 1150
GlyphClass: 2
Flags: W
LayerCount: 2
UndoRedoHistory
Layer: 1
Undoes
EndUndoes
Redoes
EndRedoes
EndUndoRedoHistory
Fore
SplineSet
-23 -3 m 1,0,-1
 1 221 l 1,1,2
 23 219 23 219 42 219 c 0,3,4
 140 218 140 218 178 278 c 0,5,6
 223 350 223 350 263 578 c 1,7,-1
 373 1184 l 1,8,-1
 1120 1184 l 1,9,-1
 996 0 l 1,10,-1
 667 0 l 1,11,-1
 768 959 l 1,12,-1
 630 959 l 1,13,-1
 554 547 l 1,14,15
 523 373 523 373 488 265.5 c 128,-1,16
 453 158 453 158 400 95 c 128,-1,17
 347 32 347 32 282 9.5 c 128,-1,18
 217 -13 217 -13 117 -13 c 0,19,20
 64 -13 64 -13 -23 -3 c 1,0,-1
EndSplineSet
EndChar

StartChar: afii10078
Encoding: 1084 1084 323
Width: 1186
GlyphClass: 2
Flags: W
LayerCount: 2
UndoRedoHistory
Layer: 1
Undoes
EndUndoes
Redoes
EndRedoes
EndUndoRedoHistory
Fore
SplineSet
53 0 m 1,0,-1
 181 1184 l 1,1,-1
 424 1184 l 1,2,-1
 608 610 l 1,3,-1
 911 1184 l 1,4,-1
 1154 1184 l 1,5,-1
 1034 0 l 1,6,-1
 776 0 l 1,7,-1
 842 621 l 1,8,-1
 611 178 l 1,9,-1
 514 178 l 1,10,-1
 376 622 l 1,11,-1
 310 0 l 1,12,-1
 53 0 l 1,0,-1
EndSplineSet
EndChar

StartChar: afii10079
Encoding: 1085 1085 324
Width: 1067
GlyphClass: 2
Flags: W
LayerCount: 2
UndoRedoHistory
Layer: 1
Undoes
EndUndoes
Redoes
EndRedoes
EndUndoRedoHistory
Fore
SplineSet
55 0 m 1,0,-1
 179 1184 l 1,1,-1
 507 1184 l 1,2,-1
 459 724 l 1,3,-1
 660 724 l 1,4,-1
 708 1184 l 1,5,-1
 1036 1184 l 1,6,-1
 912 0 l 1,7,-1
 584 0 l 1,8,-1
 636 497 l 1,9,-1
 435 497 l 1,10,-1
 383 0 l 1,11,-1
 55 0 l 1,0,-1
EndSplineSet
EndChar

StartChar: afii10081
Encoding: 1087 1087 326
Width: 1039
GlyphClass: 2
Flags: W
LayerCount: 2
UndoRedoHistory
Layer: 1
Undoes
EndUndoes
Redoes
EndRedoes
EndUndoRedoHistory
Fore
SplineSet
55 0 m 1,0,-1
 179 1184 l 1,1,-1
 1009 1184 l 1,2,-1
 885 0 l 1,3,-1
 556 0 l 1,4,-1
 657 958 l 1,5,-1
 484 958 l 1,6,-1
 383 0 l 1,7,-1
 55 0 l 1,0,-1
EndSplineSet
EndChar

StartChar: afii10084
Encoding: 1090 1090 329
Width: 820
GlyphClass: 2
Flags: W
LayerCount: 2
UndoRedoHistory
Layer: 1
Undoes
EndUndoes
Redoes
EndRedoes
EndUndoRedoHistory
Fore
SplineSet
195 0 m 1,0,-1
 296 960 l 1,1,-1
 84 960 l 1,2,-1
 107 1184 l 1,3,-1
 862 1184 l 1,4,-1
 838 960 l 1,5,-1
 625 960 l 1,6,-1
 523 0 l 1,7,-1
 195 0 l 1,0,-1
EndSplineSet
EndChar

StartChar: afii10085
Encoding: 1091 1091 330
Width: 952
GlyphClass: 2
Flags: W
LayerCount: 2
UndoRedoHistory
Layer: 1
Undoes
EndUndoes
Redoes
EndRedoes
EndUndoRedoHistory
Fore
SplineSet
35 -373 m 1,0,-1
 36 -137 l 1,1,2
 98 -137 98 -137 136.5 -134 c 128,-1,3
 175 -131 175 -131 204.5 -121.5 c 128,-1,4
 234 -112 234 -112 248 -100 c 128,-1,5
 262 -88 262 -88 268.5 -62.5 c 128,-1,6
 275 -37 275 -37 274 -8.5 c 128,-1,7
 273 20 273 20 267 68 c 1,8,-1
 98 1184 l 1,9,-1
 381 1184 l 1,10,-1
 431 738 l 1,11,-1
 470 372 l 1,12,-1
 579 738 l 1,13,-1
 711 1184 l 1,14,-1
 1004 1184 l 1,15,-1
 577 -19 l 2,16,17
 549 -99 549 -99 527 -148 c 128,-1,18
 505 -197 505 -197 473 -240.5 c 128,-1,19
 441 -284 441 -284 407 -306.5 c 128,-1,20
 373 -329 373 -329 318 -346 c 128,-1,21
 263 -363 263 -363 197.5 -368 c 128,-1,22
 132 -373 132 -373 35 -373 c 1,0,-1
EndSplineSet
EndChar

StartChar: afii10086
Encoding: 1092 1092 331
Width: 1417
GlyphClass: 2
Flags: W
LayerCount: 2
UndoRedoHistory
Layer: 1
Undoes
EndUndoes
Redoes
EndRedoes
EndUndoRedoHistory
Fore
SplineSet
822 217 m 1,0,-1
 843 217 l 2,1,2
 910 217 910 217 960.5 271.5 c 128,-1,3
 1011 326 1011 326 1021 423 c 2,4,-1
 1060 797 l 2,5,6
 1062 817 1062 817 1062 834 c 0,7,8
 1062 902 1062 902 1032 943 c 0,9,10
 994 994 994 994 926 994 c 2,11,-1
 904 994 l 1,12,-1
 822 217 l 1,0,-1
513 217 m 2,13,-1
 536 217 l 1,14,-1
 618 994 l 1,15,-1
 594 994 l 2,16,17
 527 994 527 994 480.5 943.5 c 128,-1,18
 434 893 434 893 424 797 c 2,19,-1
 386 423 l 2,20,21
 383 399 383 399 383 377 c 0,22,23
 383 310 383 310 409 270 c 0,24,25
 443 216 443 216 513 217 c 2,13,-1
476 -356 m 1,26,-1
 516 20 l 1,27,-1
 484 20 l 2,28,29
 428 20 428 20 372 31.5 c 128,-1,30
 316 43 316 43 258 74 c 128,-1,31
 200 105 200 105 158 151 c 128,-1,32
 116 197 116 197 94 273 c 0,33,34
 79 325 79 325 79 386 c 0,35,36
 79 414 79 414 82 444 c 2,37,-1
 116 769 l 2,38,39
 127 872 127 872 175 953 c 128,-1,40
 223 1034 223 1034 293.5 1081.5 c 128,-1,41
 364 1129 364 1129 443.5 1153.5 c 128,-1,42
 523 1178 523 1178 606 1178 c 2,43,-1
 638 1178 l 1,44,-1
 688 1657 l 1,45,-1
 973 1657 l 1,46,-1
 923 1178 l 1,47,-1
 961 1178 l 2,48,49
 1045 1178 1045 1178 1119.5 1153.5 c 128,-1,50
 1194 1129 1194 1129 1253.5 1081.5 c 0,51,52
 1314 1034 1314 1034 1344 953 c 0,53,54
 1366 893 1366 893 1366 822 c 0,55,56
 1366 796 1366 796 1363 769 c 2,57,-1
 1329 444 l 2,58,59
 1319 349 1319 349 1281 273 c 128,-1,60
 1243 197 1243 197 1191.5 151 c 128,-1,61
 1140 105 1140 105 1075.5 74 c 128,-1,62
 1011 43 1011 43 953.5 31.5 c 128,-1,63
 896 20 896 20 840 20 c 2,64,-1
 802 20 l 1,65,-1
 762 -356 l 1,66,-1
 476 -356 l 1,26,-1
EndSplineSet
EndChar

StartChar: afii10088
Encoding: 1094 1094 333
Width: 1155
GlyphClass: 2
Flags: W
LayerCount: 2
UndoRedoHistory
Layer: 1
Undoes
EndUndoes
Redoes
EndRedoes
EndUndoRedoHistory
Fore
SplineSet
797 -321 m 1,0,-1
 808 0 l 1,1,-1
 54 0 l 1,2,-1
 178 1184 l 1,3,-1
 506 1184 l 1,4,-1
 404 205 l 1,5,-1
 588 205 l 1,6,-1
 690 1184 l 1,7,-1
 1019 1184 l 1,8,-1
 916 205 l 1,9,-1
 1087 205 l 1,10,-1
 1032 -321 l 1,11,-1
 797 -321 l 1,0,-1
EndSplineSet
EndChar

StartChar: afii10089
Encoding: 1095 1095 334
Width: 1009
GlyphClass: 2
Flags: W
LayerCount: 2
UndoRedoHistory
Layer: 1
Undoes
EndUndoes
Redoes
EndRedoes
EndUndoRedoHistory
Fore
SplineSet
526 0 m 1,0,-1
 577 476 l 1,1,2
 507 469 507 469 464 469 c 0,3,4
 355 469 355 469 281.5 488.5 c 128,-1,5
 208 508 208 508 168.5 547.5 c 0,6,7
 130 587 130 587 116 640 c 0,8,9
 107 675 107 675 107 719 c 0,10,11
 107 742 107 742 109 767 c 2,12,-1
 153 1184 l 1,13,-1
 482 1184 l 1,14,-1
 440 784 l 2,15,16
 438 768 438 768 438 754 c 0,17,18
 438 711 438 711 455 689 c 0,19,20
 477 660 477 660 552 658 c 0,21,22
 576 658 576 658 596 661 c 1,23,-1
 650 1184 l 1,24,-1
 979 1184 l 1,25,-1
 855 0 l 1,26,-1
 526 0 l 1,0,-1
EndSplineSet
EndChar

StartChar: afii10090
Encoding: 1096 1096 335
Width: 1449
GlyphClass: 2
Flags: W
LayerCount: 2
UndoRedoHistory
Layer: 1
Undoes
EndUndoes
Redoes
EndRedoes
EndUndoRedoHistory
Fore
SplineSet
55 0 m 1,0,-1
 179 1184 l 1,1,-1
 487 1184 l 1,2,-1
 386 222 l 1,3,-1
 542 222 l 1,4,-1
 643 1184 l 1,5,-1
 951 1184 l 1,6,-1
 850 222 l 1,7,-1
 1010 222 l 1,8,-1
 1110 1184 l 1,9,-1
 1419 1184 l 1,10,-1
 1295 0 l 1,11,-1
 55 0 l 1,0,-1
EndSplineSet
EndChar

StartChar: afii10091
Encoding: 1097 1097 336
Width: 1582
GlyphClass: 2
Flags: W
LayerCount: 2
UndoRedoHistory
Layer: 1
Undoes
EndUndoes
Redoes
EndRedoes
EndUndoRedoHistory
Fore
SplineSet
1197 -321 m 1,0,-1
 1208 0 l 1,1,-1
 55 0 l 1,2,-1
 179 1184 l 1,3,-1
 489 1184 l 1,4,-1
 386 205 l 1,5,-1
 539 205 l 1,6,-1
 641 1184 l 1,7,-1
 952 1184 l 1,8,-1
 849 205 l 1,9,-1
 1006 205 l 1,10,-1
 1109 1184 l 1,11,-1
 1419 1184 l 1,12,-1
 1317 205 l 1,13,-1
 1487 205 l 1,14,-1
 1433 -321 l 1,15,-1
 1197 -321 l 1,0,-1
EndSplineSet
EndChar

StartChar: afii10092
Encoding: 1098 1098 337
Width: 1131
GlyphClass: 2
Flags: W
LayerCount: 2
UndoRedoHistory
Layer: 1
Undoes
EndUndoes
Redoes
EndRedoes
EndUndoRedoHistory
Fore
SplineSet
534 188 m 1,0,-1
 540 188 l 1,1,2
 656 190 656 190 705 222.5 c 128,-1,3
 754 255 754 255 764 345 c 0,4,5
 766 364 766 364 766 380 c 0,6,7
 766 448 766 448 732 476 c 0,8,9
 690 510 690 510 578 513 c 1,10,-1
 568 513 l 1,11,-1
 534 188 l 1,0,-1
186 0 m 1,12,-1
 287 961 l 1,13,-1
 61 961 l 1,14,-1
 84 1184 l 1,15,-1
 639 1184 l 1,16,-1
 589 706 l 1,17,-1
 600 706 l 2,18,19
 729 706 729 706 815.5 689.5 c 128,-1,20
 902 673 902 673 964 633 c 0,21,22
 1026 592 1026 592 1050 522 c 0,23,24
 1066 474 1066 474 1066 410 c 0,25,26
 1066 380 1066 380 1062 347 c 0,27,28
 1042 158 1042 158 917.5 79 c 128,-1,29
 793 0 793 0 524 0 c 2,30,-1
 186 0 l 1,12,-1
EndSplineSet
EndChar

StartChar: afii10093
Encoding: 1099 1099 338
Width: 1504
GlyphClass: 2
Flags: W
LayerCount: 2
UndoRedoHistory
Layer: 1
Undoes
EndUndoes
Redoes
EndRedoes
EndUndoRedoHistory
Fore
SplineSet
1021 0 m 1,0,-1
 1145 1184 l 1,1,-1
 1473 1184 l 1,2,-1
 1349 0 l 1,3,-1
 1021 0 l 1,0,-1
403 188 m 1,4,-1
 409 188 l 1,5,6
 525 190 525 190 574 222.5 c 128,-1,7
 623 255 623 255 633 345 c 0,8,9
 635 364 635 364 635 380 c 0,10,11
 636 448 636 448 602 476 c 0,12,13
 560 511 560 511 446 513 c 1,14,-1
 437 513 l 1,15,-1
 403 188 l 1,4,-1
55 0 m 1,16,-1
 179 1184 l 1,17,-1
 507 1184 l 1,18,-1
 457 706 l 1,19,-1
 468 706 l 2,20,21
 597 706 597 706 683.5 689.5 c 128,-1,22
 770 673 770 673 832 633 c 0,23,24
 894 592 894 592 918 522 c 0,25,26
 934 474 934 474 934 410 c 0,27,28
 934 380 934 380 930 347 c 0,29,30
 911 159 911 159 786.5 79.5 c 128,-1,31
 662 0 662 0 393 0 c 2,32,-1
 55 0 l 1,16,-1
EndSplineSet
EndChar

StartChar: afii10094
Encoding: 1100 1100 339
Width: 997
GlyphClass: 2
Flags: W
LayerCount: 2
UndoRedoHistory
Layer: 1
Undoes
EndUndoes
Redoes
EndRedoes
EndUndoRedoHistory
Fore
SplineSet
403 188 m 1,0,-1
 409 188 l 1,1,2
 525 190 525 190 574 222.5 c 128,-1,3
 623 255 623 255 633 345 c 0,4,5
 635 364 635 364 635 380 c 0,6,7
 636 448 636 448 602 476 c 0,8,9
 560 511 560 511 446 513 c 1,10,-1
 437 513 l 1,11,-1
 403 188 l 1,0,-1
55 0 m 1,12,-1
 179 1184 l 1,13,-1
 507 1184 l 1,14,-1
 457 706 l 1,15,-1
 468 706 l 2,16,17
 597 706 597 706 683.5 689.5 c 128,-1,18
 770 673 770 673 832 633 c 0,19,20
 894 592 894 592 918 522 c 0,21,22
 934 474 934 474 934 410 c 0,23,24
 934 380 934 380 930 347 c 0,25,26
 911 159 911 159 786.5 79.5 c 128,-1,27
 662 0 662 0 393 0 c 2,28,-1
 55 0 l 1,12,-1
EndSplineSet
EndChar

StartChar: afii10095
Encoding: 1101 1101 340
Width: 967
GlyphClass: 2
Flags: W
LayerCount: 2
UndoRedoHistory
Layer: 1
Undoes
EndUndoes
Redoes
EndRedoes
EndUndoRedoHistory
Fore
SplineSet
428 -20 m 0,0,1
 236 -20 236 -20 144 70 c 0,2,3
 68 144 68 144 68 279 c 0,4,5
 68 307 68 307 71 337 c 2,6,-1
 77 395 l 1,7,-1
 392 395 l 1,8,-1
 386 335 l 1,9,10
 383 312 383 312 383 294 c 0,11,12
 382 258 382 258 394 240 c 0,13,14
 410 214 410 214 451 213 c 0,15,16
 492 213 492 213 513.5 245 c 128,-1,17
 535 277 535 277 543 357 c 2,18,-1
 560 513 l 1,19,-1
 290 513 l 1,20,-1
 305 655 l 1,21,-1
 575 655 l 1,22,-1
 593 828 l 2,23,24
 596 857 596 857 596 880 c 0,25,26
 596 920 596 920 586 939 c 0,27,28
 570 969 570 969 530 969 c 0,29,30
 489 969 489 969 468 941.5 c 128,-1,31
 447 914 447 914 440 850 c 2,32,-1
 431 766 l 1,33,-1
 116 766 l 1,34,-1
 124 843 l 2,35,36
 143 1020 143 1020 255 1112 c 128,-1,37
 367 1204 367 1204 557 1204 c 0,38,39
 752 1204 752 1204 846 1098 c 0,40,41
 923 1011 923 1011 924 866 c 0,42,43
 924 835 924 835 920 801 c 2,44,-1
 876 381 l 2,45,46
 856 190 856 190 740 85 c 128,-1,47
 624 -20 624 -20 428 -20 c 0,0,1
EndSplineSet
EndChar

StartChar: afii10096
Encoding: 1102 1102 341
Width: 1418
GlyphClass: 2
Flags: W
LayerCount: 2
UndoRedoHistory
Layer: 1
Undoes
EndUndoes
Redoes
EndRedoes
EndUndoRedoHistory
Fore
SplineSet
924 214 m 0,0,1
 970 214 970 214 991 251 c 128,-1,2
 1012 288 1012 288 1019 362 c 2,3,-1
 1067 821 l 2,4,5
 1070 849 1070 849 1070 872 c 0,6,7
 1070 908 1070 908 1062 932 c 0,8,9
 1049 970 1049 970 1004 970 c 0,10,11
 960 970 960 970 938.5 932 c 128,-1,12
 917 894 917 894 910 821 c 2,13,-1
 862 362 l 2,14,15
 859 335 859 335 859 312 c 0,16,17
 859 275 859 275 867 252 c 0,18,19
 880 214 880 214 924 214 c 0,0,1
898 -20 m 0,20,21
 717 -20 717 -20 627 80 c 0,22,23
 554 161 554 161 554 302 c 0,24,25
 554 335 554 335 558 371 c 1,26,-1
 569 479 l 1,27,-1
 424 480 l 1,28,-1
 374 0 l 1,29,-1
 55 0 l 1,30,-1
 179 1184 l 1,31,-1
 498 1184 l 1,32,-1
 448 709 l 1,33,-1
 593 709 l 1,34,-1
 604 813 l 2,35,36
 624 1003 624 1003 735 1103.5 c 128,-1,37
 846 1204 846 1204 1027 1204 c 0,38,39
 1208 1204 1208 1204 1300 1104 c 0,40,41
 1375 1022 1375 1022 1376 878 c 0,42,43
 1376 847 1376 847 1372 813 c 2,44,-1
 1326 371 l 2,45,46
 1306 181 1306 181 1193 80.5 c 128,-1,47
 1080 -20 1080 -20 898 -20 c 0,20,21
EndSplineSet
EndChar

StartChar: afii10097
Encoding: 1103 1103 342
Width: 1047
GlyphClass: 2
Flags: W
LayerCount: 2
UndoRedoHistory
Layer: 1
Undoes
EndUndoes
Redoes
EndRedoes
EndUndoRedoHistory
Fore
SplineSet
617 618 m 1,0,-1
 629 618 l 1,1,-1
 668 998 l 1,2,-1
 658 998 l 1,3,4
 426 996 426 996 407 815 c 0,5,6
 405 799 405 799 405 785 c 0,7,8
 405 709 405 709 450 668 c 0,9,10
 503 619 503 619 617 618 c 1,0,-1
-18 0 m 1,11,-1
 220 490 l 1,12,13
 153 528 153 528 125 613 c 0,14,15
 105 673 105 673 105 747 c 0,16,17
 105 779 105 779 109 814 c 0,18,19
 147 1184 147 1184 592 1184 c 2,20,-1
 1016 1184 l 1,21,-1
 892 0 l 1,22,-1
 564 0 l 1,23,-1
 608 426 l 1,24,25
 539 426 539 426 513 428 c 1,26,-1
 331 0 l 1,27,-1
 -18 0 l 1,11,-1
EndSplineSet
EndChar

StartChar: afii10098
Encoding: 1169 1169 343
Width: 735
GlyphClass: 2
Flags: W
LayerCount: 2
UndoRedoHistory
Layer: 1
Undoes
EndUndoes
Redoes
EndRedoes
EndUndoRedoHistory
Fore
SplineSet
59 0 m 1,0,-1
 183 1184 l 1,1,-1
 619 1184 l 1,2,-1
 645 1432 l 1,3,-1
 811 1432 l 1,4,-1
 762 968 l 1,5,-1
 484 968 l 1,6,-1
 382 0 l 1,7,-1
 59 0 l 1,0,-1
EndSplineSet
EndChar

StartChar: afii10099
Encoding: 1106 1106 344
Width: 1041
GlyphClass: 2
Flags: W
LayerCount: 2
UndoRedoHistory
Layer: 1
Undoes
EndUndoes
Redoes
EndRedoes
EndUndoRedoHistory
Fore
SplineSet
307 -329 m 1,0,-1
 325 -162 l 1,1,-1
 361 -162 l 2,2,3
 416 -162 416 -162 454.5 -147 c 128,-1,4
 493 -132 493 -132 517.5 -107 c 128,-1,5
 542 -82 542 -82 558.5 -34 c 128,-1,6
 575 14 575 14 583.5 63.5 c 128,-1,7
 592 113 592 113 600 194 c 2,8,-1
 647 646 l 2,9,10
 649 668 649 668 649 685 c 0,11,12
 648 720 648 720 640 740 c 0,13,14
 626 770 626 770 583 770 c 0,15,16
 542 770 542 770 472 739 c 1,17,-1
 395 0 l 1,18,-1
 66 0 l 1,19,-1
 194 1217 l 1,20,-1
 61 1217 l 1,21,-1
 78 1382 l 1,22,-1
 211 1382 l 1,23,-1
 240 1658 l 1,24,-1
 569 1658 l 1,25,-1
 540 1382 l 1,26,-1
 803 1382 l 1,27,-1
 786 1217 l 1,28,-1
 522 1217 l 1,29,-1
 492 927 l 2,30,31
 493 927 493 927 522 938 c 128,-1,32
 551 949 551 949 558.5 951 c 128,-1,33
 566 953 566 953 592.5 962 c 128,-1,34
 619 971 619 971 632.5 973.5 c 128,-1,35
 646 976 646 976 668.5 981 c 128,-1,36
 691 986 691 986 710.5 988 c 128,-1,37
 730 990 730 990 749 990 c 0,38,39
 979 990 979 990 979 720 c 0,40,41
 979 683 979 683 975 641 c 2,42,-1
 930 210 l 2,43,44
 918 96 918 96 899 14.5 c 128,-1,45
 880 -67 880 -67 847.5 -128.5 c 128,-1,46
 815 -190 815 -190 774 -227.5 c 128,-1,47
 733 -265 733 -265 670 -288.5 c 128,-1,48
 607 -312 607 -312 534 -320.5 c 128,-1,49
 461 -329 461 -329 358 -329 c 2,50,-1
 307 -329 l 1,0,-1
EndSplineSet
EndChar

StartChar: afii10101
Encoding: 1108 1108 346
Width: 935
GlyphClass: 2
Flags: W
LayerCount: 2
UndoRedoHistory
Layer: 1
Undoes
EndUndoes
Redoes
EndRedoes
EndUndoRedoHistory
Fore
SplineSet
436 -20 m 0,0,1
 240 -20 240 -20 146 86 c 0,2,3
 68 173 68 173 68 319 c 0,4,5
 68 350 68 350 72 383 c 2,6,-1
 116 802 l 2,7,8
 136 993 136 993 252.5 1098.5 c 128,-1,9
 369 1204 369 1204 564 1204 c 0,10,11
 756 1204 756 1204 848 1114 c 0,12,13
 925 1039 925 1039 925 903 c 0,14,15
 925 876 925 876 922 847 c 1,16,-1
 913 768 l 1,17,-1
 597 768 l 1,18,-1
 606 848 l 2,19,20
 608 869 608 869 608 887 c 0,21,22
 608 926 608 926 597 944 c 0,23,24
 581 970 581 970 541 971 c 0,25,26
 500 971 500 971 478.5 939 c 128,-1,27
 457 907 457 907 448 827 c 2,28,-1
 433 677 l 1,29,-1
 706 677 l 1,30,-1
 691 528 l 1,31,-1
 417 528 l 1,32,-1
 399 356 l 2,33,34
 396 327 396 327 396 304 c 0,35,36
 396 264 396 264 406 244 c 0,37,38
 422 214 422 214 462 214 c 0,39,40
 503 214 503 214 524 242 c 128,-1,41
 545 270 545 270 552 334 c 2,42,-1
 563 437 l 1,43,-1
 879 437 l 1,44,-1
 868 340 l 1,45,46
 849 163 849 163 737 71.5 c 128,-1,47
 625 -20 625 -20 436 -20 c 0,0,1
EndSplineSet
EndChar

StartChar: afii10103
Encoding: 1110 1110 348
Width: 515
GlyphClass: 2
Flags: W
LayerCount: 2
UndoRedoHistory
Layer: 1
Undoes
EndUndoes
Redoes
EndRedoes
EndUndoRedoHistory
Fore
SplineSet
191 1374 m 1,0,-1
 215 1609 l 1,1,-1
 545 1609 l 1,2,-1
 520 1374 l 1,3,-1
 191 1374 l 1,0,-1
47 0 m 1,4,-1
 171 1184 l 1,5,-1
 499 1184 l 1,6,-1
 375 0 l 1,7,-1
 47 0 l 1,4,-1
EndSplineSet
EndChar

StartChar: afii10105
Encoding: 1112 1112 350
Width: 523
GlyphClass: 2
Flags: W
LayerCount: 2
UndoRedoHistory
Layer: 1
Undoes
EndUndoes
Redoes
EndRedoes
EndUndoRedoHistory
Fore
SplineSet
221 1382 m 1,0,-1
 246 1617 l 1,1,-1
 576 1617 l 1,2,-1
 551 1382 l 1,3,-1
 221 1382 l 1,0,-1
-109 -336 m 1,4,-1
 -85 -100 l 1,5,6
 -49 -108 -49 -108 -26 -108 c 0,7,8
 66 -108 66 -108 76 -7 c 2,9,-1
 201 1184 l 1,10,-1
 530 1184 l 1,11,-1
 401 -46 l 2,12,13
 386 -190 386 -190 297.5 -276 c 128,-1,14
 209 -362 209 -362 62 -362 c 0,15,16
 -21 -362 -21 -362 -109 -336 c 1,4,-1
EndSplineSet
EndChar

StartChar: afii10106
Encoding: 1113 1113 351
Width: 1637
GlyphClass: 2
Flags: W
LayerCount: 2
UndoRedoHistory
Layer: 1
Undoes
EndUndoes
Redoes
EndRedoes
EndUndoRedoHistory
Fore
SplineSet
1053 188 m 1,0,-1
 1061 188 l 1,1,2
 1169 189 1169 189 1215.5 223 c 128,-1,3
 1262 257 1262 257 1272 345 c 0,4,5
 1274 364 1274 364 1274 381 c 0,6,7
 1274 448 1274 448 1242 476 c 0,8,9
 1202 512 1202 512 1093 512 c 2,10,-1
 1087 512 l 1,11,-1
 1053 188 l 1,0,-1
16 -3 m 1,12,-1
 40 221 l 1,13,14
 59 220 59 220 75 220 c 0,15,16
 108 220 108 220 132 226 c 0,17,18
 166 234 166 234 194.5 255.5 c 128,-1,19
 223 277 223 277 243 335 c 128,-1,20
 263 393 263 393 279.5 466 c 128,-1,21
 296 539 296 539 320 673 c 2,22,-1
 411 1184 l 1,23,-1
 1158 1184 l 1,24,-1
 1108 706 l 1,25,-1
 1121 706 l 2,26,27
 1245 706 1245 706 1330 689 c 128,-1,28
 1415 672 1415 672 1474.5 631.5 c 128,-1,29
 1534 591 1534 591 1558 521 c 0,30,31
 1574 473 1574 473 1574 410 c 0,32,33
 1574 380 1574 380 1570 347 c 0,34,35
 1551 161 1551 161 1429 81.5 c 128,-1,36
 1307 2 1307 2 1044 0 c 1,37,-1
 705 0 l 1,38,-1
 806 959 l 1,39,-1
 668 959 l 1,40,-1
 604 603 l 1,41,42
 581 467 581 467 557.5 372.5 c 128,-1,43
 534 278 534 278 503 205.5 c 128,-1,44
 472 133 472 133 437 90.5 c 128,-1,45
 402 48 402 48 351.5 23 c 0,46,47
 302 -2 302 -2 244 -9 c 0,48,49
 207 -13 207 -13 160 -13 c 0,50,51
 133 -13 133 -13 104 -12 c 1,52,53
 47 -7 47 -7 16 -3 c 1,12,-1
EndSplineSet
EndChar

StartChar: afii10107
Encoding: 1114 1114 352
Width: 1474
GlyphClass: 2
Flags: W
LayerCount: 2
UndoRedoHistory
Layer: 1
Undoes
EndUndoes
Redoes
EndRedoes
EndUndoRedoHistory
Fore
SplineSet
905 189 m 1,0,1
 908 190 908 190 914 190 c 0,2,3
 1015 194 1015 194 1059 227.5 c 128,-1,4
 1103 261 1103 261 1112 347 c 0,5,6
 1114 366 1114 366 1114 383 c 0,7,8
 1114 446 1114 446 1085 474 c 0,9,10
 1048 510 1048 510 949 513 c 0,11,12
 947 513 947 513 943.5 513.5 c 128,-1,13
 940 514 940 514 939 514 c 2,14,-1
 905 189 l 1,0,1
55 0 m 1,15,-1
 179 1184 l 1,16,-1
 507 1184 l 1,17,-1
 458 711 l 1,18,-1
 631 711 l 1,19,-1
 681 1185 l 1,20,-1
 1010 1185 l 1,21,-1
 959 708 l 1,22,23
 979 708 979 708 981 707 c 0,24,25
 1100 705 1100 705 1181 687 c 128,-1,26
 1262 669 1262 669 1319 628.5 c 128,-1,27
 1376 588 1376 588 1398 519 c 0,28,29
 1413 472 1413 472 1413 409 c 0,30,31
 1413 380 1413 380 1410 348 c 0,32,33
 1390 162 1390 162 1268.5 82.5 c 128,-1,34
 1147 3 1147 3 885 1 c 1,35,-1
 557 1 l 1,36,-1
 603 445 l 1,37,-1
 430 445 l 1,38,-1
 383 0 l 1,39,-1
 55 0 l 1,15,-1
EndSplineSet
EndChar

StartChar: afii10108
Encoding: 1115 1115 353
Width: 1055
GlyphClass: 2
Flags: W
LayerCount: 2
UndoRedoHistory
Layer: 1
Undoes
EndUndoes
Redoes
EndRedoes
EndUndoRedoHistory
Fore
SplineSet
66 0 m 1,0,-1
 194 1217 l 1,1,-1
 61 1217 l 1,2,-1
 78 1382 l 1,3,-1
 211 1382 l 1,4,-1
 240 1658 l 1,5,-1
 569 1658 l 1,6,-1
 540 1382 l 1,7,-1
 803 1382 l 1,8,-1
 786 1217 l 1,9,-1
 522 1217 l 1,10,-1
 492 927 l 2,11,12
 493 927 493 927 522 938 c 128,-1,13
 551 949 551 949 558.5 951 c 128,-1,14
 566 953 566 953 592.5 962 c 128,-1,15
 619 971 619 971 632.5 973.5 c 128,-1,16
 646 976 646 976 668.5 981 c 128,-1,17
 691 986 691 986 710.5 988 c 128,-1,18
 730 990 730 990 749 990 c 0,19,20
 979 990 979 990 979 720 c 0,21,22
 979 683 979 683 975 641 c 2,23,-1
 908 0 l 1,24,-1
 579 0 l 1,25,-1
 647 646 l 2,26,27
 649 668 649 668 649 685 c 0,28,29
 648 720 648 720 640 740 c 0,30,31
 626 770 626 770 583 770 c 0,32,33
 542 770 542 770 472 739 c 1,34,-1
 395 0 l 1,35,-1
 66 0 l 1,0,-1
EndSplineSet
EndChar

StartChar: afii10145
Encoding: 1039 1039 356
Width: 1221
GlyphClass: 2
Flags: W
LayerCount: 2
UndoRedoHistory
Layer: 1
Undoes
EndUndoes
Redoes
EndRedoes
EndUndoRedoHistory
Fore
SplineSet
397 -355 m 1,0,-1
 420 0 l 1,1,-1
 72 0 l 1,2,-1
 246 1658 l 1,3,-1
 606 1658 l 1,4,-1
 461 272 l 1,5,-1
 717 272 l 1,6,-1
 863 1658 l 1,7,-1
 1223 1658 l 1,8,-1
 1049 0 l 1,9,-1
 709 0 l 1,10,-1
 657 -355 l 1,11,-1
 397 -355 l 1,0,-1
EndSplineSet
EndChar

StartChar: afii10193
Encoding: 1119 1119 357
Width: 1051
GlyphClass: 2
Flags: W
LayerCount: 2
UndoRedoHistory
Layer: 1
Undoes
EndUndoes
Redoes
EndRedoes
EndUndoRedoHistory
Fore
SplineSet
336 -322 m 1,0,-1
 348 0 l 1,1,-1
 55 0 l 1,2,-1
 179 1184 l 1,3,-1
 507 1184 l 1,4,-1
 404 203 l 1,5,-1
 590 203 l 1,6,-1
 692 1184 l 1,7,-1
 1021 1184 l 1,8,-1
 897 0 l 1,9,-1
 619 0 l 1,10,-1
 567 -322 l 1,11,-1
 336 -322 l 1,0,-1
EndSplineSet
EndChar

StartChar: afii61289
Encoding: 8467 8467 358
Width: 1238
GlyphClass: 2
Flags: W
LayerCount: 2
UndoRedoHistory
Layer: 1
Undoes
EndUndoes
Redoes
EndRedoes
EndUndoRedoHistory
Fore
SplineSet
803 1099 m 1,0,1
 854 1160 854 1160 879 1192 c 0,2,3
 1118 1490 1118 1490 1118 1649 c 0,4,5
 1118 1718 1118 1718 1072 1730 c 1,6,7
 1063 1733 1063 1733 1054 1733 c 0,8,9
 1021 1733 1021 1733 986 1698 c 1,10,11
 953 1663 953 1663 939 1612 c 2,12,-1
 803 1099 l 1,0,1
959 148 m 1,13,14
 903 92 903 92 838.5 51.5 c 128,-1,15
 774 11 774 11 713 -7 c 128,-1,16
 652 -25 652 -25 594 -25 c 128,-1,17
 536 -25 536 -25 492.5 -0.5 c 128,-1,18
 449 24 449 24 420 69 c 128,-1,19
 391 114 391 114 388 186 c 0,20,21
 388 194 388 194 388 203 c 0,22,23
 388 269 388 269 408 353 c 2,24,-1
 443 493 l 1,25,-1
 256 295 l 1,26,-1
 168 409 l 1,27,-1
 519 791 l 1,28,-1
 728 1612 l 2,29,30
 769 1776 769 1776 904 1865 c 0,31,32
 1001 1930 1001 1930 1102 1930 c 0,33,34
 1118 1930 1118 1930 1134 1928 c 0,35,36
 1249 1916 1249 1916 1298 1826 c 0,37,38
 1326 1774 1326 1774 1326 1707 c 0,39,40
 1326 1600 1326 1600 1255 1454 c 0,41,42
 1146 1230 1146 1230 881 951 c 2,43,-1
 718 779 l 1,44,-1
 604 350 l 1,45,46
 589 289 589 289 589 245 c 0,47,48
 590 235 590 235 590 226 c 0,49,50
 594 178 594 178 620 159 c 0,51,52
 641 144 641 144 669 144 c 0,53,54
 677 144 677 144 686 146 c 0,55,56
 725 152 725 152 776 184 c 128,-1,57
 827 216 827 216 880 270 c 1,58,-1
 959 148 l 1,13,14
EndSplineSet
EndChar

StartChar: approxequal
Encoding: 8776 8776 362
Width: 986
GlyphClass: 2
Flags: W
LayerCount: 2
UndoRedoHistory
Layer: 1
Undoes
EndUndoes
Redoes
EndRedoes
EndUndoRedoHistory
Fore
SplineSet
709 854 m 0,0,1
 659 854 659 854 593.5 884 c 128,-1,2
 528 914 528 914 469.5 944.5 c 128,-1,3
 411 975 411 975 379 975 c 0,4,5
 353 975 353 975 308.5 948 c 128,-1,6
 264 921 264 921 228 878 c 1,7,-1
 137 1017 l 1,8,9
 190 1090 190 1090 265 1148 c 128,-1,10
 340 1206 340 1206 401 1206 c 0,11,12
 450 1206 450 1206 515.5 1176 c 128,-1,13
 581 1146 581 1146 638 1116.5 c 128,-1,14
 695 1087 695 1087 726 1087 c 0,15,16
 777 1087 777 1087 876 1184 c 1,17,-1
 978 1064 l 1,18,19
 932 984 932 984 854 919 c 128,-1,20
 776 854 776 854 709 854 c 0,0,1
662 415 m 0,21,22
 613 415 613 415 547.5 445.5 c 128,-1,23
 482 476 482 476 423.5 506 c 128,-1,24
 365 536 365 536 333 536 c 0,25,26
 307 536 307 536 262.5 509.5 c 128,-1,27
 218 483 218 483 181 439 c 1,28,-1
 92 577 l 1,29,30
 144 650 144 650 219 708.5 c 128,-1,31
 294 767 294 767 355 767 c 0,32,33
 394 767 394 767 444 748.5 c 128,-1,34
 494 730 494 730 533 707.5 c 128,-1,35
 572 685 572 685 613.5 666.5 c 128,-1,36
 655 648 655 648 680 648 c 0,37,38
 734 648 734 648 830 744 c 1,39,-1
 932 625 l 1,40,41
 887 545 887 545 808 480 c 128,-1,42
 729 415 729 415 662 415 c 0,21,22
EndSplineSet
EndChar

StartChar: breve
Encoding: 728 728 363
Width: 669
GlyphClass: 2
Flags: W
LayerCount: 2
UndoRedoHistory
Layer: 1
Undoes
EndUndoes
Redoes
EndRedoes
EndUndoRedoHistory
Fore
SplineSet
418 1397 m 0,0,1
 290 1398 290 1398 229 1466 c 0,2,3
 179 1522 179 1522 179 1616 c 0,4,5
 179 1636 179 1636 181 1658 c 1,6,-1
 327 1658 l 1,7,8
 325 1642 325 1642 325 1627 c 0,9,10
 325 1584 325 1584 343 1562 c 0,11,12
 367 1532 367 1532 432 1532.5 c 128,-1,13
 497 1533 497 1533 527 1563 c 128,-1,14
 557 1593 557 1593 564 1658 c 1,15,-1
 709 1658 l 1,16,17
 697 1535 697 1535 622 1466 c 128,-1,18
 547 1397 547 1397 418 1397 c 0,0,1
EndSplineSet
EndChar

StartChar: bullet
Encoding: 8226 8226 364
Width: 968
GlyphClass: 2
Flags: W
LayerCount: 2
UndoRedoHistory
Layer: 1
Undoes
EndUndoes
Redoes
EndRedoes
EndUndoRedoHistory
Fore
SplineSet
473 394 m 0,0,1
 403 394 403 394 341.5 418 c 128,-1,2
 280 442 280 442 234.5 487.5 c 0,3,4
 189 532 189 532 167 604 c 0,5,6
 151 655 151 655 151 714 c 0,7,8
 151 738 151 738 154 764 c 0,9,10
 173 941 173 941 288 1039.5 c 128,-1,11
 403 1138 403 1138 551 1138 c 0,12,13
 622 1138 622 1138 683.5 1113.5 c 128,-1,14
 745 1089 745 1089 791 1043 c 128,-1,15
 837 997 837 997 859 925 c 0,16,17
 875 874 875 874 875 814 c 0,18,19
 875 790 875 790 872 764 c 0,20,21
 854 591 854 591 737.5 492.5 c 128,-1,22
 621 394 621 394 473 394 c 0,0,1
EndSplineSet
EndChar

StartChar: caron
Encoding: 711 711 366
Width: 817
GlyphClass: 2
Flags: W
LayerCount: 2
UndoRedoHistory
Layer: 1
Undoes
EndUndoes
Redoes
EndRedoes
EndUndoRedoHistory
Fore
SplineSet
331 1280 m 1,0,-1
 194 1658 l 1,1,-1
 427 1658 l 1,2,-1
 506 1435 l 1,3,-1
 636 1658 l 1,4,-1
 870 1658 l 1,5,-1
 648 1280 l 1,6,-1
 331 1280 l 1,0,-1
EndSplineSet
EndChar

StartChar: circumflex
Encoding: 710 710 370
Width: 823
GlyphClass: 2
Flags: W
LayerCount: 2
UndoRedoHistory
Layer: 1
Undoes
EndUndoes
Redoes
EndRedoes
EndUndoRedoHistory
Fore
SplineSet
171 1259 m 1,0,-1
 405 1658 l 1,1,-1
 677 1658 l 1,2,-1
 834 1259 l 1,3,-1
 592 1259 l 1,4,-1
 528 1511 l 1,5,-1
 411 1259 l 1,6,-1
 171 1259 l 1,0,-1
EndSplineSet
EndChar

StartChar: dagger
Encoding: 8224 8224 371
Width: 837
GlyphClass: 2
Flags: W
LayerCount: 2
UndoRedoHistory
Layer: 1
Undoes
EndUndoes
Redoes
EndRedoes
EndUndoRedoHistory
Fore
SplineSet
238 0 m 1,0,-1
 344 1016 l 1,1,-1
 125 1016 l 1,2,-1
 146 1216 l 1,3,-1
 366 1216 l 1,4,-1
 412 1656 l 1,5,-1
 679 1656 l 1,6,-1
 633 1216 l 1,7,-1
 849 1216 l 1,8,-1
 827 1016 l 1,9,-1
 612 1016 l 1,10,-1
 505 0 l 1,11,-1
 238 0 l 1,0,-1
EndSplineSet
EndChar

StartChar: daggerdbl
Encoding: 8225 8225 372
Width: 837
GlyphClass: 2
Flags: W
LayerCount: 2
UndoRedoHistory
Layer: 1
Undoes
EndUndoes
Redoes
EndRedoes
EndUndoRedoHistory
Fore
SplineSet
238 0 m 1,0,-1
 290 493 l 1,1,-1
 63 493 l 1,2,-1
 82 674 l 1,3,-1
 309 674 l 1,4,-1
 343 993 l 1,5,-1
 116 993 l 1,6,-1
 136 1185 l 1,7,-1
 363 1185 l 1,8,-1
 412 1656 l 1,9,-1
 678 1656 l 1,10,-1
 629 1185 l 1,11,-1
 852 1185 l 1,12,-1
 831 993 l 1,13,-1
 609 993 l 1,14,-1
 575 674 l 1,15,-1
 798 674 l 1,16,-1
 779 493 l 1,17,-1
 556 493 l 1,18,-1
 504 0 l 1,19,-1
 238 0 l 1,0,-1
EndSplineSet
EndChar

